<svg xmlns="http://www.w3.org/2000/svg" xmlns:xlink="http://www.w3.org/1999/xlink" style="width:1521px;height:1410px;background:#fff" width="1521" height="1410" contentStyleType="text/css" preserveAspectRatio="none" version="1.1" viewBox="0 0 1521 1410" zoomAndPan="magnify"><g><rect style="stroke:#00000000;stroke-width:1;fill:none" width="444" height="26.488" x="534.75" y="22.777"/><text x="539.75" y="41.313" fill="#000" font-family="sans-serif" font-size="14" font-weight="bold" lengthAdjust="spacing" textLength="434">Multipool Auto Swap Sequence Diagram Removing Liquidity</text><rect style="stroke:#181818;stroke-width:.5" width="309.5" height="1333.156" x="763" y="56.266" fill="#DDD"/><text x="905.75" y="68.834" fill="#000" font-family="sans-serif" font-size="13" font-weight="bold" lengthAdjust="spacing" textLength="24">Zoe</text><rect style="stroke:#000;stroke-width:1.5;fill:none" width="985.5" height="75.932" x="211" y="194.065"/><rect style="stroke:#000;stroke-width:1.5;fill:none" width="556" height="75.932" x="211" y="283.996"/><rect style="stroke:#000;stroke-width:1.5;fill:none" width="497.5" height="74.932" x="211" y="373.928"/><rect style="stroke:#000;stroke-width:1.5;fill:none" width="1161.5" height="495.969" x="211" y="462.859"/><rect style="stroke:#000;stroke-width:1.5;fill:none" width="867.5" height="320.106" x="211" y="972.828"/><line style="stroke:#181818;stroke-width:.5;fill:none;stroke-dasharray:5,5" x1="55" x2="55" y1="131.754" y2="1309.934"/><line style="stroke:#181818;stroke-width:.5;fill:none;stroke-dasharray:5,5" x1="163" x2="163" y1="131.754" y2="1309.934"/><line style="stroke:#181818;stroke-width:.5;fill:none;stroke-dasharray:5,5" x1="256" x2="256" y1="131.754" y2="1309.934"/><line style="stroke:#181818;stroke-width:.5;fill:none;stroke-dasharray:5,5" x1="703" x2="703" y1="131.754" y2="1309.934"/><line style="stroke:#181818;stroke-width:.5;fill:none;stroke-dasharray:5,5" x1="783" x2="783" y1="131.754" y2="1309.934"/><line style="stroke:#181818;stroke-width:.5;fill:none;stroke-dasharray:5,5" x1="1035.5" x2="1035.5" y1="131.754" y2="1309.934"/><line style="stroke:#181818;stroke-width:.5;fill:none;stroke-dasharray:5,5" x1="1132.5" x2="1132.5" y1="131.754" y2="1309.934"/><line style="stroke:#181818;stroke-width:.5;fill:none;stroke-dasharray:5,5" x1="1293.5" x2="1293.5" y1="131.754" y2="1309.934"/><line style="stroke:#181818;stroke-width:.5;fill:none;stroke-dasharray:5,5" x1="1433.5" x2="1433.5" y1="131.754" y2="1309.934"/><text x="5" y="128.801" fill="#000" font-family="sans-serif" font-size="14" lengthAdjust="spacing" textLength="94">MPAS Creator</text><ellipse cx="55" cy="63.766" fill="#0F0" rx="8" ry="8" style="stroke:#181818;stroke-width:.5"/><path fill="none" d="M55,71.7656 L55,98.7656 M42,79.7656 L68,79.7656 M55,98.7656 L42,113.7656 M55,98.7656 L68,113.7656" style="stroke:#181818;stroke-width:.5"/><text x="5" y="1322.469" fill="#000" font-family="sans-serif" font-size="14" lengthAdjust="spacing" textLength="94">MPAS Creator</text><ellipse cx="55" cy="1333.922" fill="#0F0" rx="8" ry="8" style="stroke:#181818;stroke-width:.5"/><path fill="none" d="M55,1341.9219 L55,1368.9219 M42,1349.9219 L68,1349.9219 M55,1368.9219 L42,1383.9219 M55,1368.9219 L68,1383.9219" style="stroke:#181818;stroke-width:.5"/><text x="115" y="128.801" fill="#000" font-family="sans-serif" font-size="14" lengthAdjust="spacing" textLength="90">Pool Adder N</text><ellipse cx="163" cy="63.766" fill="#FF0" rx="8" ry="8" style="stroke:#181818;stroke-width:.5"/><path fill="none" d="M163,71.7656 L163,98.7656 M150,79.7656 L176,79.7656 M163,98.7656 L150,113.7656 M163,98.7656 L176,113.7656" style="stroke:#181818;stroke-width:.5"/><text x="115" y="1322.469" fill="#000" font-family="sans-serif" font-size="14" lengthAdjust="spacing" textLength="90">Pool Adder N</text><ellipse cx="163" cy="1333.922" fill="#FF0" rx="8" ry="8" style="stroke:#181818;stroke-width:.5"/><path fill="none" d="M163,1341.9219 L163,1368.9219 M150,1349.9219 L176,1349.9219 M163,1368.9219 L150,1383.9219 M163,1368.9219 L176,1383.9219" style="stroke:#181818;stroke-width:.5"/><text x="221" y="128.801" fill="#000" font-family="sans-serif" font-size="14" lengthAdjust="spacing" textLength="65">Pool User</text><ellipse cx="256.5" cy="63.766" fill="#E2E2F0" rx="8" ry="8" style="stroke:#181818;stroke-width:.5"/><path fill="none" d="M256.5,71.7656 L256.5,98.7656 M243.5,79.7656 L269.5,79.7656 M256.5,98.7656 L243.5,113.7656 M256.5,98.7656 L269.5,113.7656" style="stroke:#181818;stroke-width:.5"/><text x="221" y="1322.469" fill="#000" font-family="sans-serif" font-size="14" lengthAdjust="spacing" textLength="65">Pool User</text><ellipse cx="256.5" cy="1333.922" fill="#E2E2F0" rx="8" ry="8" style="stroke:#181818;stroke-width:.5"/><path fill="none" d="M256.5,1341.9219 L256.5,1368.9219 M243.5,1349.9219 L269.5,1349.9219 M256.5,1368.9219 L243.5,1383.9219 M256.5,1368.9219 L269.5,1383.9219" style="stroke:#181818;stroke-width:.5"/><text x="650" y="128.801" fill="#000" font-family="sans-serif" font-size="14" lengthAdjust="spacing" textLength="101">MPAS Contract</text><path fill="#E2E2F0" d="M685.5,79.2656 C685.5,69.2656 703.5,69.2656 703.5,69.2656 C703.5,69.2656 721.5,69.2656 721.5,79.2656 L721.5,105.2656 C721.5,115.2656 703.5,115.2656 703.5,115.2656 C703.5,115.2656 685.5,115.2656 685.5,105.2656 L685.5,79.2656" style="stroke:#181818;stroke-width:1.5"/><path fill="none" d="M685.5,79.2656 C685.5,89.2656 703.5,89.2656 703.5,89.2656 C703.5,89.2656 721.5,89.2656 721.5,79.2656" style="stroke:#181818;stroke-width:1.5"/><text x="650" y="1322.469" fill="#000" font-family="sans-serif" font-size="14" lengthAdjust="spacing" textLength="101">MPAS Contract</text><path fill="#E2E2F0" d="M685.5,1335.4219 C685.5,1325.4219 703.5,1325.4219 703.5,1325.4219 C703.5,1325.4219 721.5,1325.4219 721.5,1335.4219 L721.5,1361.4219 C721.5,1371.4219 703.5,1371.4219 703.5,1371.4219 C703.5,1371.4219 685.5,1371.4219 685.5,1361.4219 L685.5,1335.4219" style="stroke:#181818;stroke-width:1.5"/><path fill="none" d="M685.5,1335.4219 C685.5,1345.4219 703.5,1345.4219 703.5,1345.4219 C703.5,1345.4219 721.5,1345.4219 721.5,1335.4219" style="stroke:#181818;stroke-width:1.5"/><text x="767.5" y="128.801" fill="#000" font-family="sans-serif" font-size="14" lengthAdjust="spacing" textLength="25">Zoe</text><ellipse cx="783" cy="99.266" fill="#E2E2F0" rx="12" ry="12" style="stroke:#181818;stroke-width:.5"/><line style="stroke:#181818;stroke-width:.5" x1="771" x2="795" y1="113.266" y2="113.266"/><text x="767.5" y="1322.469" fill="#000" font-family="sans-serif" font-size="14" lengthAdjust="spacing" textLength="25">Zoe</text><ellipse cx="783" cy="1341.422" fill="#E2E2F0" rx="12" ry="12" style="stroke:#181818;stroke-width:.5"/><line style="stroke:#181818;stroke-width:.5" x1="771" x2="795" y1="1355.422" y2="1355.422"/><text x="1003.5" y="128.801" fill="#000" font-family="sans-serif" font-size="14" lengthAdjust="spacing" textLength="59">userSeat</text><ellipse cx="1036" cy="99.266" fill="#E2E2F0" rx="12" ry="12" style="stroke:#181818;stroke-width:.5"/><line style="stroke:#181818;stroke-width:.5" x1="1024" x2="1048" y1="113.266" y2="113.266"/><text x="1003.5" y="1322.469" fill="#000" font-family="sans-serif" font-size="14" lengthAdjust="spacing" textLength="59">userSeat</text><ellipse cx="1036" cy="1341.422" fill="#E2E2F0" rx="12" ry="12" style="stroke:#181818;stroke-width:.5"/><line style="stroke:#181818;stroke-width:.5" x1="1024" x2="1048" y1="1355.422" y2="1355.422"/><text x="1078.5" y="128.801" fill="#000" font-family="sans-serif" font-size="14" lengthAdjust="spacing" textLength="102">Pool SML:BUCK</text><path fill="#E2E2F0" d="M1114.5,79.2656 C1114.5,69.2656 1132.5,69.2656 1132.5,69.2656 C1132.5,69.2656 1150.5,69.2656 1150.5,79.2656 L1150.5,105.2656 C1150.5,115.2656 1132.5,115.2656 1132.5,115.2656 C1132.5,115.2656 1114.5,115.2656 1114.5,105.2656 L1114.5,79.2656" style="stroke:#181818;stroke-width:1.5"/><path fill="none" d="M1114.5,79.2656 C1114.5,89.2656 1132.5,89.2656 1132.5,89.2656 C1132.5,89.2656 1150.5,89.2656 1150.5,79.2656" style="stroke:#181818;stroke-width:1.5"/><text x="1078.5" y="1322.469" fill="#000" font-family="sans-serif" font-size="14" lengthAdjust="spacing" textLength="102">Pool SML:BUCK</text><path fill="#E2E2F0" d="M1114.5,1335.4219 C1114.5,1325.4219 1132.5,1325.4219 1132.5,1325.4219 C1132.5,1325.4219 1150.5,1325.4219 1150.5,1335.4219 L1150.5,1361.4219 C1150.5,1371.4219 1132.5,1371.4219 1132.5,1371.4219 C1132.5,1371.4219 1114.5,1371.4219 1114.5,1361.4219 L1114.5,1335.4219" style="stroke:#181818;stroke-width:1.5"/><path fill="none" d="M1114.5,1335.4219 C1114.5,1345.4219 1132.5,1345.4219 1132.5,1345.4219 C1132.5,1345.4219 1150.5,1345.4219 1150.5,1335.4219" style="stroke:#181818;stroke-width:1.5"/><text x="1224.5" y="128.801" fill="#000" font-family="sans-serif" font-size="14" lengthAdjust="spacing" textLength="132">poolSeat SML:BUCK</text><ellipse cx="1293.5" cy="99.266" fill="#E2E2F0" rx="12" ry="12" style="stroke:#181818;stroke-width:.5"/><line style="stroke:#181818;stroke-width:.5" x1="1281.5" x2="1305.5" y1="113.266" y2="113.266"/><text x="1224.5" y="1322.469" fill="#000" font-family="sans-serif" font-size="14" lengthAdjust="spacing" textLength="132">poolSeat SML:BUCK</text><ellipse cx="1293.5" cy="1341.422" fill="#E2E2F0" rx="12" ry="12" style="stroke:#181818;stroke-width:.5"/><line style="stroke:#181818;stroke-width:.5" x1="1281.5" x2="1305.5" y1="1355.422" y2="1355.422"/><text x="1372.5" y="128.801" fill="#000" font-family="sans-serif" font-size="14" lengthAdjust="spacing" textLength="116">Pool MOOL:BUCK</text><path fill="#E2E2F0" d="M1415.5,79.2656 C1415.5,69.2656 1433.5,69.2656 1433.5,69.2656 C1433.5,69.2656 1451.5,69.2656 1451.5,79.2656 L1451.5,105.2656 C1451.5,115.2656 1433.5,115.2656 1433.5,115.2656 C1433.5,115.2656 1415.5,115.2656 1415.5,105.2656 L1415.5,79.2656" style="stroke:#181818;stroke-width:1.5"/><path fill="none" d="M1415.5,79.2656 C1415.5,89.2656 1433.5,89.2656 1433.5,89.2656 C1433.5,89.2656 1451.5,89.2656 1451.5,79.2656" style="stroke:#181818;stroke-width:1.5"/><text x="1372.5" y="1322.469" fill="#000" font-family="sans-serif" font-size="14" lengthAdjust="spacing" textLength="116">Pool MOOL:BUCK</text><path fill="#E2E2F0" d="M1415.5,1335.4219 C1415.5,1325.4219 1433.5,1325.4219 1433.5,1325.4219 C1433.5,1325.4219 1451.5,1325.4219 1451.5,1335.4219 L1451.5,1361.4219 C1451.5,1371.4219 1433.5,1371.4219 1433.5,1371.4219 C1433.5,1371.4219 1415.5,1371.4219 1415.5,1361.4219 L1415.5,1335.4219" style="stroke:#181818;stroke-width:1.5"/><path fill="none" d="M1415.5,1335.4219 C1415.5,1345.4219 1433.5,1345.4219 1433.5,1345.4219 C1433.5,1345.4219 1451.5,1345.4219 1451.5,1335.4219" style="stroke:#181818;stroke-width:1.5"/><line style="stroke:#000;stroke-width:1;stroke-dasharray:2,2" x1="0" x2="1514.5" y1="142.754" y2="142.754"/><rect style="stroke:#eee;stroke-width:1" width="1514.5" height="3" x="0" y="164.409" fill="#EEE"/><line style="stroke:#000;stroke-width:1" x1="0" x2="1514.5" y1="164.409" y2="164.409"/><line style="stroke:#000;stroke-width:1" x1="0" x2="1514.5" y1="167.409" y2="167.409"/><rect style="stroke:#000;stroke-width:2" width="150" height="23.311" x="682.25" y="153.754" fill="#EEE"/><text x="688.25" y="170.322" fill="#000" font-family="sans-serif" font-size="13" font-weight="bold" lengthAdjust="spacing" textLength="132">Removing Liquidity</text><path fill="#EEE" d="M211,194.0645 L528,194.0645 L528,201.375 L518,211.375 L211,211.375 L211,194.0645" style="stroke:#000;stroke-width:1.5"/><rect style="stroke:#000;stroke-width:1.5" width="985.5" height="75.932" x="211" y="194.065" fill="none"/><text x="226" y="207.633" fill="#000" font-family="sans-serif" font-size="13" font-weight="bold" lengthAdjust="spacing" textLength="272">discover existing proportion of balances</text><polygon fill="#181818" points="1120.5 228.685 1130.5 232.685 1120.5 236.685 1124.5 232.685" style="stroke:#181818;stroke-width:1"/><line style="stroke:#181818;stroke-width:1" x1="256.5" x2="1126.5" y1="232.685" y2="232.685"/><text x="263.5" y="227.943" fill="#000" font-family="sans-serif" font-size="13" font-weight="bold" lengthAdjust="spacing" textLength="27">200</text><text x="294.5" y="227.531" fill="#000" font-family="monospace" font-size="13" lengthAdjust="spacing" textLength="176">getPoolAllocation(SML)</text><polygon fill="#181818" points="267.5 257.996 257.5 261.996 267.5 265.996 263.5 261.996" style="stroke:#181818;stroke-width:1"/><line style="stroke:#181818;stroke-width:1;stroke-dasharray:2,2" x1="261.5" x2="1131.5" y1="261.996" y2="261.996"/><text x="273.5" y="257.254" fill="#000" font-family="sans-serif" font-size="13" font-weight="bold" lengthAdjust="spacing" textLength="27">201</text><text x="304.5" y="256.841" fill="#000" font-family="monospace" font-size="13" lengthAdjust="spacing" textLength="112">poolAllocation</text><path fill="#EEE" d="M211,283.9961 L340,283.9961 L340,291.3066 L330,301.3066 L211,301.3066 L211,283.9961" style="stroke:#000;stroke-width:1.5"/><rect style="stroke:#000;stroke-width:1.5" width="556" height="75.932" x="211" y="283.996" fill="none"/><text x="226" y="297.565" fill="#000" font-family="sans-serif" font-size="13" font-weight="bold" lengthAdjust="spacing" textLength="84">create invite</text><polygon fill="#181818" points="691.5 318.617 701.5 322.617 691.5 326.617 695.5 322.617" style="stroke:#181818;stroke-width:1"/><line style="stroke:#181818;stroke-width:1" x1="256.5" x2="697.5" y1="322.617" y2="322.617"/><text x="263.5" y="317.875" fill="#000" font-family="sans-serif" font-size="13" font-weight="bold" lengthAdjust="spacing" textLength="27">202</text><text x="294.5" y="317.462" fill="#000" font-family="monospace" font-size="13" lengthAdjust="spacing" textLength="208">makeAddLiquidityInvitation</text><polygon fill="#181818" points="267.5 347.928 257.5 351.928 267.5 355.928 263.5 351.928" style="stroke:#181818;stroke-width:1"/><line style="stroke:#181818;stroke-width:1;stroke-dasharray:2,2" x1="261.5" x2="702.5" y1="351.928" y2="351.928"/><text x="273.5" y="347.185" fill="#000" font-family="sans-serif" font-size="13" font-weight="bold" lengthAdjust="spacing" textLength="27">203</text><text x="304.5" y="346.773" fill="#000" font-family="monospace" font-size="13" lengthAdjust="spacing" textLength="80">invitation</text><path fill="#EEE" d="M211,373.9277 L361,373.9277 L361,381.2383 L351,391.2383 L211,391.2383 L211,373.9277" style="stroke:#000;stroke-width:1.5"/><rect style="stroke:#000;stroke-width:1.5" width="497.5" height="74.932" x="211" y="373.928" fill="none"/><text x="226" y="387.496" fill="#000" font-family="sans-serif" font-size="13" font-weight="bold" lengthAdjust="spacing" textLength="105">create proposal</text><line style="stroke:#181818;stroke-width:1" x1="256.5" x2="298.5" y1="427.859" y2="427.859"/><line style="stroke:#181818;stroke-width:1" x1="298.5" x2="298.5" y1="427.859" y2="440.859"/><line style="stroke:#181818;stroke-width:1" x1="257.5" x2="298.5" y1="440.859" y2="440.859"/><polygon fill="#181818" points="267.5 436.859 257.5 440.859 267.5 444.859 263.5 440.859" style="stroke:#181818;stroke-width:1"/><text x="263.5" y="415.462" fill="#000" font-family="sans-serif" font-size="13" font-weight="bold" lengthAdjust="spacing" textLength="27">204</text><text x="294.5" y="407.807" fill="#000" font-family="sans-serif" font-size="13" lengthAdjust="spacing" textLength="40">Create</text><text x="338.5" y="407.483" fill="#000" font-family="monospace" font-size="13" lengthAdjust="spacing" textLength="64">proposal</text><text x="406.5" y="407.807" fill="#000" font-family="sans-serif" font-size="13" lengthAdjust="spacing" textLength="75">to remove 1</text><text x="485.5" y="407.483" fill="#000" font-family="monospace" font-size="13" lengthAdjust="spacing" textLength="72">liquidity</text><text x="561.5" y="407.807" fill="#000" font-family="sans-serif" font-size="13" lengthAdjust="spacing" textLength="135">for 1 BUCK and 1 SML</text><text x="294.5" y="423.117" fill="#000" font-family="sans-serif" font-size="13" lengthAdjust="spacing" textLength="62">at ratio of</text><text x="360.5" y="422.793" fill="#000" font-family="monospace" font-size="13" lengthAdjust="spacing" textLength="112">poolAllocation</text><path fill="#EEE" d="M211,462.8594 L362,462.8594 L362,470.1699 L352,480.1699 L211,480.1699 L211,462.8594" style="stroke:#000;stroke-width:1.5"/><rect style="stroke:#000;stroke-width:1.5" width="1161.5" height="495.969" x="211" y="462.859" fill="none"/><text x="226" y="476.428" fill="#000" font-family="sans-serif" font-size="13" font-weight="bold" lengthAdjust="spacing" textLength="106">withdraw funds</text><line style="stroke:#181818;stroke-width:1" x1="256.5" x2="298.5" y1="501.481" y2="501.481"/><line style="stroke:#181818;stroke-width:1" x1="298.5" x2="298.5" y1="501.481" y2="514.481"/><line style="stroke:#181818;stroke-width:1" x1="257.5" x2="298.5" y1="514.481" y2="514.481"/><polygon fill="#181818" points="267.5 510.481 257.5 514.481 267.5 518.481 263.5 514.481" style="stroke:#181818;stroke-width:1"/><text x="263.5" y="496.738" fill="#000" font-family="sans-serif" font-size="13" font-weight="bold" lengthAdjust="spacing" textLength="27">205</text><text x="294.5" y="496.738" fill="#000" font-family="sans-serif" font-size="13" lengthAdjust="spacing" textLength="119">withdraw funds for</text><text x="417.5" y="496.415" fill="#000" font-family="monospace" font-size="13" lengthAdjust="spacing" textLength="72">liquidity</text><text x="493.5" y="496.738" fill="#000" font-family="sans-serif" font-size="13" lengthAdjust="spacing" textLength="25">into</text><text x="522.5" y="496.415" fill="#000" font-family="monospace" font-size="13" lengthAdjust="spacing" textLength="64">payments</text><text x="590.5" y="496.738" fill="#000" font-family="sans-serif" font-size="13" lengthAdjust="spacing" textLength="40">record</text><polygon fill="#181818" points="771 539.791 781 543.791 771 547.791 775 543.791" style="stroke:#181818;stroke-width:1"/><line style="stroke:#181818;stroke-width:1" x1="256.5" x2="777" y1="543.791" y2="543.791"/><text x="263.5" y="539.049" fill="#000" font-family="sans-serif" font-size="13" font-weight="bold" lengthAdjust="spacing" textLength="27">206</text><text x="294.5" y="538.636" fill="#000" font-family="monospace" font-size="13" lengthAdjust="spacing" textLength="296">offer(invitation, proposal, payments)</text><line style="stroke:#181818;stroke-width:1" x1="783" x2="825" y1="573.102" y2="573.102"/><line style="stroke:#181818;stroke-width:1" x1="825" x2="825" y1="573.102" y2="586.102"/><line style="stroke:#181818;stroke-width:1" x1="784" x2="825" y1="586.102" y2="586.102"/><polygon fill="#181818" points="794 582.102 784 586.102 794 590.102 790 586.102" style="stroke:#181818;stroke-width:1"/><text x="790" y="568.359" fill="#000" font-family="sans-serif" font-size="13" font-weight="bold" lengthAdjust="spacing" textLength="27">207</text><text x="821" y="568.359" fill="#000" font-family="sans-serif" font-size="13" lengthAdjust="spacing" textLength="83">validate offer</text><polygon fill="#181818" points="1024 611.412 1034 615.412 1024 619.412 1028 615.412" style="stroke:#181818;stroke-width:1"/><line style="stroke:#181818;stroke-width:1" x1="783" x2="1030" y1="615.412" y2="615.412"/><text x="790" y="610.67" fill="#000" font-family="sans-serif" font-size="13" font-weight="bold" lengthAdjust="spacing" textLength="27">208</text><text x="821" y="610.67" fill="#000" font-family="sans-serif" font-size="13" lengthAdjust="spacing" textLength="38">create</text><text x="863" y="610.346" fill="#000" font-family="monospace" font-size="13" lengthAdjust="spacing" textLength="64">userSeat</text><polygon fill="#181818" points="794 640.723 784 644.723 794 648.723 790 644.723" style="stroke:#181818;stroke-width:1"/><line style="stroke:#181818;stroke-width:1;stroke-dasharray:2,2" x1="788" x2="1035" y1="644.723" y2="644.723"/><text x="800" y="639.981" fill="#000" font-family="sans-serif" font-size="13" font-weight="bold" lengthAdjust="spacing" textLength="27">209</text><text x="831" y="639.568" fill="#000" font-family="monospace" font-size="13" lengthAdjust="spacing" textLength="64">userSeat</text><polygon fill="#181818" points="1120.5 670.033 1130.5 674.033 1120.5 678.033 1124.5 674.033" style="stroke:#181818;stroke-width:1"/><line style="stroke:#181818;stroke-width:1" x1="783" x2="1126.5" y1="674.033" y2="674.033"/><text x="790" y="669.291" fill="#000" font-family="sans-serif" font-size="13" font-weight="bold" lengthAdjust="spacing" textLength="27">210</text><text x="821" y="668.878" fill="#000" font-family="monospace" font-size="13" lengthAdjust="spacing" textLength="104">getPoolSeat()</text><polygon fill="#181818" points="1281.5 699.344 1291.5 703.344 1281.5 707.344 1285.5 703.344" style="stroke:#181818;stroke-width:1"/><line style="stroke:#181818;stroke-width:1" x1="1132.5" x2="1287.5" y1="703.344" y2="703.344"/><text x="1139.5" y="698.602" fill="#000" font-family="sans-serif" font-size="13" font-weight="bold" lengthAdjust="spacing" textLength="27">211</text><text x="1170.5" y="698.602" fill="#000" font-family="sans-serif" font-size="13" lengthAdjust="spacing" textLength="38">create</text><text x="1212.5" y="698.278" fill="#000" font-family="monospace" font-size="13" lengthAdjust="spacing" textLength="64">poolSeat</text><polygon fill="#181818" points="794 728.654 784 732.654 794 736.654 790 732.654" style="stroke:#181818;stroke-width:1"/><line style="stroke:#181818;stroke-width:1;stroke-dasharray:2,2" x1="788" x2="1292.5" y1="732.654" y2="732.654"/><text x="800" y="727.912" fill="#000" font-family="sans-serif" font-size="13" font-weight="bold" lengthAdjust="spacing" textLength="27">212</text><text x="831" y="727.5" fill="#000" font-family="monospace" font-size="13" lengthAdjust="spacing" textLength="64">poolSeat</text><polygon fill="#181818" points="1281.5 757.965 1291.5 761.965 1281.5 765.965 1285.5 761.965" style="stroke:#181818;stroke-width:1"/><line style="stroke:#181818;stroke-width:1" x1="783" x2="1287.5" y1="761.965" y2="761.965"/><text x="790" y="757.223" fill="#000" font-family="sans-serif" font-size="13" font-weight="bold" lengthAdjust="spacing" textLength="27">213</text><text x="821" y="756.81" fill="#000" font-family="monospace" font-size="13" lengthAdjust="spacing" textLength="96">addLiquidity</text><polygon fill="#181818" points="1281.5 787.275 1291.5 791.275 1281.5 795.275 1285.5 791.275" style="stroke:#181818;stroke-width:1"/><line style="stroke:#181818;stroke-width:1" x1="703.5" x2="1287.5" y1="791.275" y2="791.275"/><text x="710.5" y="786.533" fill="#000" font-family="sans-serif" font-size="13" font-weight="bold" lengthAdjust="spacing" textLength="27">214</text><text x="741.5" y="786.533" fill="#000" font-family="sans-serif" font-size="13" lengthAdjust="spacing" textLength="78">stage assets</text><polygon fill="#181818" points="1024 816.586 1034 820.586 1024 824.586 1028 820.586" style="stroke:#181818;stroke-width:1"/><line style="stroke:#181818;stroke-width:1" x1="703.5" x2="1030" y1="820.586" y2="820.586"/><text x="710.5" y="815.844" fill="#000" font-family="sans-serif" font-size="13" font-weight="bold" lengthAdjust="spacing" textLength="27">215</text><text x="741.5" y="815.844" fill="#000" font-family="sans-serif" font-size="13" lengthAdjust="spacing" textLength="78">stage assets</text><line style="stroke:#181818;stroke-width:1" x1="783" x2="825" y1="849.896" y2="849.896"/><line style="stroke:#181818;stroke-width:1" x1="825" x2="825" y1="849.896" y2="862.896"/><line style="stroke:#181818;stroke-width:1" x1="784" x2="825" y1="862.896" y2="862.896"/><polygon fill="#181818" points="794 858.896 784 862.896 794 866.896 790 862.896" style="stroke:#181818;stroke-width:1"/><text x="790" y="845.154" fill="#000" font-family="sans-serif" font-size="13" font-weight="bold" lengthAdjust="spacing" textLength="27">216</text><text x="821" y="844.742" fill="#000" font-family="monospace" font-size="13" lengthAdjust="spacing" textLength="208">reallocate(seat, poolSeat)</text><polygon fill="#181818" points="267.5 888.207 257.5 892.207 267.5 896.207 263.5 892.207" style="stroke:#181818;stroke-width:1"/><line style="stroke:#181818;stroke-width:1;stroke-dasharray:2,2" x1="261.5" x2="1035" y1="892.207" y2="892.207"/><text x="273.5" y="887.465" fill="#000" font-family="sans-serif" font-size="13" font-weight="bold" lengthAdjust="spacing" textLength="27">217</text><text x="304.5" y="887.052" fill="#000" font-family="monospace" font-size="13" lengthAdjust="spacing" textLength="64">userSeat</text><polygon fill="#181818" points="771 917.518 781 921.518 771 925.518 775 921.518" style="stroke:#181818;stroke-width:1"/><line style="stroke:#181818;stroke-width:1" x1="256.5" x2="777" y1="921.518" y2="921.518"/><text x="263.5" y="916.775" fill="#000" font-family="sans-serif" font-size="13" font-weight="bold" lengthAdjust="spacing" textLength="27">218</text><text x="294.5" y="916.363" fill="#000" font-family="monospace" font-size="13" lengthAdjust="spacing" textLength="128">getOfferResult()</text><polygon fill="#181818" points="267.5 946.828 257.5 950.828 267.5 954.828 263.5 950.828" style="stroke:#181818;stroke-width:1"/><line style="stroke:#181818;stroke-width:1;stroke-dasharray:2,2" x1="261.5" x2="782" y1="950.828" y2="950.828"/><text x="273.5" y="946.086" fill="#000" font-family="sans-serif" font-size="13" font-weight="bold" lengthAdjust="spacing" textLength="27">219</text><text x="304.5" y="946.086" fill="#000" font-family="sans-serif" font-size="13" lengthAdjust="spacing" textLength="168">result of failure or success</text><path fill="#EEE" d="M211,972.8281 L372,972.8281 L372,980.1387 L362,990.1387 L211,990.1387 L211,972.8281" style="stroke:#000;stroke-width:1.5"/><rect style="stroke:#000;stroke-width:1.5" width="867.5" height="320.106" x="211" y="972.828" fill="none"/><text x="226" y="986.396" fill="#000" font-family="sans-serif" font-size="13" font-weight="bold" lengthAdjust="spacing" textLength="116">recovering funds</text><polygon fill="#181818" points="1024 1007.449 1034 1011.449 1024 1015.449 1028 1011.449" style="stroke:#181818;stroke-width:1"/><line style="stroke:#181818;stroke-width:1" x1="256.5" x2="1030" y1="1011.449" y2="1011.449"/><text x="263.5" y="1006.707" fill="#000" font-family="sans-serif" font-size="13" font-weight="bold" lengthAdjust="spacing" textLength="27">220</text><text x="294.5" y="1006.383" fill="#000" font-family="monospace" font-size="13" lengthAdjust="spacing" textLength="176">getPayout(&quot;Liquidity&quot;)</text><text x="474.5" y="1006.707" fill="#000" font-family="sans-serif" font-size="13" lengthAdjust="spacing" textLength="34">(give)</text><polygon fill="#181818" points="267.5 1036.76 257.5 1040.76 267.5 1044.76 263.5 1040.76" style="stroke:#181818;stroke-width:1"/><line style="stroke:#181818;stroke-width:1;stroke-dasharray:2,2" x1="261.5" x2="1035" y1="1040.76" y2="1040.76"/><text x="273.5" y="1036.018" fill="#000" font-family="sans-serif" font-size="13" font-weight="bold" lengthAdjust="spacing" textLength="27">221</text><text x="304.5" y="1035.605" fill="#000" font-family="monospace" font-size="13" lengthAdjust="spacing" textLength="120">payoutLiquidity</text><line style="stroke:#181818;stroke-width:1" x1="256.5" x2="298.5" y1="1070.07" y2="1070.07"/><line style="stroke:#181818;stroke-width:1" x1="298.5" x2="298.5" y1="1070.07" y2="1083.07"/><line style="stroke:#181818;stroke-width:1" x1="257.5" x2="298.5" y1="1083.07" y2="1083.07"/><polygon fill="#181818" points="267.5 1079.07 257.5 1083.07 267.5 1087.07 263.5 1083.07" style="stroke:#181818;stroke-width:1"/><text x="263.5" y="1065.328" fill="#000" font-family="sans-serif" font-size="13" font-weight="bold" lengthAdjust="spacing" textLength="27">222</text><text x="294.5" y="1065.328" fill="#000" font-family="sans-serif" font-size="13" lengthAdjust="spacing" textLength="47">deposit</text><text x="345.5" y="1065.004" fill="#000" font-family="monospace" font-size="13" lengthAdjust="spacing" textLength="120">payoutLiquidity</text><text x="469.5" y="1065.328" fill="#000" font-family="sans-serif" font-size="13" lengthAdjust="spacing" textLength="64">into purse</text><polygon fill="#181818" points="1024 1108.381 1034 1112.381 1024 1116.381 1028 1112.381" style="stroke:#181818;stroke-width:1"/><line style="stroke:#181818;stroke-width:1" x1="256.5" x2="1030" y1="1112.381" y2="1112.381"/><text x="263.5" y="1107.639" fill="#000" font-family="sans-serif" font-size="13" font-weight="bold" lengthAdjust="spacing" textLength="27">223</text><text x="294.5" y="1107.315" fill="#000" font-family="monospace" font-size="13" lengthAdjust="spacing" textLength="160">getPayout(&quot;Central&quot;)</text><text x="458.5" y="1107.639" fill="#000" font-family="sans-serif" font-size="13" lengthAdjust="spacing" textLength="38">(want)</text><polygon fill="#181818" points="267.5 1137.691 257.5 1141.691 267.5 1145.691 263.5 1141.691" style="stroke:#181818;stroke-width:1"/><line style="stroke:#181818;stroke-width:1;stroke-dasharray:2,2" x1="261.5" x2="1035" y1="1141.691" y2="1141.691"/><text x="273.5" y="1136.949" fill="#000" font-family="sans-serif" font-size="13" font-weight="bold" lengthAdjust="spacing" textLength="27">224</text><text x="304.5" y="1136.537" fill="#000" font-family="monospace" font-size="13" lengthAdjust="spacing" textLength="104">payoutCentral</text><line style="stroke:#181818;stroke-width:1" x1="256.5" x2="298.5" y1="1171.002" y2="1171.002"/><line style="stroke:#181818;stroke-width:1" x1="298.5" x2="298.5" y1="1171.002" y2="1184.002"/><line style="stroke:#181818;stroke-width:1" x1="257.5" x2="298.5" y1="1184.002" y2="1184.002"/><polygon fill="#181818" points="267.5 1180.002 257.5 1184.002 267.5 1188.002 263.5 1184.002" style="stroke:#181818;stroke-width:1"/><text x="263.5" y="1166.26" fill="#000" font-family="sans-serif" font-size="13" font-weight="bold" lengthAdjust="spacing" textLength="27">225</text><text x="294.5" y="1166.26" fill="#000" font-family="sans-serif" font-size="13" lengthAdjust="spacing" textLength="47">deposit</text><text x="345.5" y="1165.936" fill="#000" font-family="monospace" font-size="13" lengthAdjust="spacing" textLength="104">payoutCentral</text><text x="453.5" y="1166.26" fill="#000" font-family="sans-serif" font-size="13" lengthAdjust="spacing" textLength="64">into purse</text><polygon fill="#181818" points="1024 1209.313 1034 1213.313 1024 1217.313 1028 1213.313" style="stroke:#181818;stroke-width:1"/><line style="stroke:#181818;stroke-width:1" x1="256.5" x2="1030" y1="1213.313" y2="1213.313"/><text x="263.5" y="1208.57" fill="#000" font-family="sans-serif" font-size="13" font-weight="bold" lengthAdjust="spacing" textLength="27">226</text><text x="294.5" y="1208.247" fill="#000" font-family="monospace" font-size="13" lengthAdjust="spacing" textLength="176">getPayout(&quot;Secondary&quot;)</text><text x="474.5" y="1208.57" fill="#000" font-family="sans-serif" font-size="13" lengthAdjust="spacing" textLength="38">(want)</text><polygon fill="#181818" points="267.5 1238.623 257.5 1242.623 267.5 1246.623 263.5 1242.623" style="stroke:#181818;stroke-width:1"/><line style="stroke:#181818;stroke-width:1;stroke-dasharray:2,2" x1="261.5" x2="1035" y1="1242.623" y2="1242.623"/><text x="273.5" y="1237.881" fill="#000" font-family="sans-serif" font-size="13" font-weight="bold" lengthAdjust="spacing" textLength="27">227</text><text x="304.5" y="1237.468" fill="#000" font-family="monospace" font-size="13" lengthAdjust="spacing" textLength="120">payoutSecondary</text><line style="stroke:#181818;stroke-width:1" x1="256.5" x2="298.5" y1="1271.934" y2="1271.934"/><line style="stroke:#181818;stroke-width:1" x1="298.5" x2="298.5" y1="1271.934" y2="1284.934"/><line style="stroke:#181818;stroke-width:1" x1="257.5" x2="298.5" y1="1284.934" y2="1284.934"/><polygon fill="#181818" points="267.5 1280.934 257.5 1284.934 267.5 1288.934 263.5 1284.934" style="stroke:#181818;stroke-width:1"/><text x="263.5" y="1267.191" fill="#000" font-family="sans-serif" font-size="13" font-weight="bold" lengthAdjust="spacing" textLength="27">228</text><text x="294.5" y="1267.191" fill="#000" font-family="sans-serif" font-size="13" lengthAdjust="spacing" textLength="47">deposit</text><text x="345.5" y="1266.868" fill="#000" font-family="monospace" font-size="13" lengthAdjust="spacing" textLength="120">payoutSecondary</text><text x="469.5" y="1267.191" fill="#000" font-family="sans-serif" font-size="13" lengthAdjust="spacing" textLength="64">into purse</text><rect style="stroke:#00000000;stroke-width:1;fill:none" width="176" height="11.777" x="1337.5" y="5"/><text x="1337.5" y="14.668" fill="#888" font-family="sans-serif" font-size="10" lengthAdjust="spacing" textLength="176">Agoric Systems Operating Company.</text><rect style="stroke:#00000000;stroke-width:1;fill:none" width="55" height="11.777" x="729.25" y="1390.422"/><text x="729.25" y="1400.09" fill="#888" font-family="sans-serif" font-size="10" lengthAdjust="spacing" textLength="55">Page 4 of 4</text></g></svg>