<svg xmlns="http://www.w3.org/2000/svg" xmlns:xlink="http://www.w3.org/1999/xlink" style="width:1521px;height:1414px;background:#fff" width="1521" height="1414" contentStyleType="text/css" preserveAspectRatio="none" version="1.1" viewBox="0 0 1521 1414" zoomAndPan="magnify"><g><rect style="stroke:#00000000;stroke-width:1;fill:none" width="403" height="26.488" x="555.25" y="22.777"/><text x="560.25" y="41.313" fill="#000" font-family="sans-serif" font-size="14" font-weight="bold" lengthAdjust="spacing" textLength="393">Multipool Auto Swap Sequence Diagram Swap Request</text><rect style="stroke:#181818;stroke-width:.5" width="309.5" height="1337.156" x="763" y="56.266" fill="#DDD"/><text x="905.75" y="68.834" fill="#000" font-family="sans-serif" font-size="13" font-weight="bold" lengthAdjust="spacing" textLength="24">Zoe</text><rect style="stroke:#000;stroke-width:1.5;fill:none" width="556" height="75.932" x="211" y="194.065"/><rect style="stroke:#000;stroke-width:1.5;fill:none" width="1293.5" height="134.553" x="211" y="283.996"/><rect style="stroke:#000;stroke-width:1.5;fill:none" width="357.5" height="59.621" x="211" y="432.549"/><rect style="stroke:#000;stroke-width:1.5;fill:none" width="556" height="75.932" x="211" y="506.17"/><rect style="stroke:#000;stroke-width:1.5;fill:none" width="1161.5" height="466.658" x="211" y="596.102"/><rect style="stroke:#000;stroke-width:1.5;fill:none" width="867.5" height="219.174" x="211" y="1076.76"/><line style="stroke:#181818;stroke-width:.5;fill:none;stroke-dasharray:5,5" x1="55" x2="55" y1="131.754" y2="1313.934"/><line style="stroke:#181818;stroke-width:.5;fill:none;stroke-dasharray:5,5" x1="163" x2="163" y1="131.754" y2="1313.934"/><line style="stroke:#181818;stroke-width:.5;fill:none;stroke-dasharray:5,5" x1="256" x2="256" y1="131.754" y2="1313.934"/><line style="stroke:#181818;stroke-width:.5;fill:none;stroke-dasharray:5,5" x1="703" x2="703" y1="131.754" y2="1313.934"/><line style="stroke:#181818;stroke-width:.5;fill:none;stroke-dasharray:5,5" x1="783" x2="783" y1="131.754" y2="1313.934"/><line style="stroke:#181818;stroke-width:.5;fill:none;stroke-dasharray:5,5" x1="1035.5" x2="1035.5" y1="131.754" y2="1313.934"/><line style="stroke:#181818;stroke-width:.5;fill:none;stroke-dasharray:5,5" x1="1132.5" x2="1132.5" y1="131.754" y2="1313.934"/><line style="stroke:#181818;stroke-width:.5;fill:none;stroke-dasharray:5,5" x1="1293.5" x2="1293.5" y1="131.754" y2="1313.934"/><line style="stroke:#181818;stroke-width:.5;fill:none;stroke-dasharray:5,5" x1="1433.5" x2="1433.5" y1="131.754" y2="1313.934"/><text x="5" y="128.801" fill="#000" font-family="sans-serif" font-size="14" lengthAdjust="spacing" textLength="94">MPAS Creator</text><ellipse cx="55" cy="63.766" fill="#0F0" rx="8" ry="8" style="stroke:#181818;stroke-width:.5"/><path fill="none" d="M55,71.7656 L55,98.7656 M42,79.7656 L68,79.7656 M55,98.7656 L42,113.7656 M55,98.7656 L68,113.7656" style="stroke:#181818;stroke-width:.5"/><text x="5" y="1326.469" fill="#000" font-family="sans-serif" font-size="14" lengthAdjust="spacing" textLength="94">MPAS Creator</text><ellipse cx="55" cy="1337.922" fill="#0F0" rx="8" ry="8" style="stroke:#181818;stroke-width:.5"/><path fill="none" d="M55,1345.9219 L55,1372.9219 M42,1353.9219 L68,1353.9219 M55,1372.9219 L42,1387.9219 M55,1372.9219 L68,1387.9219" style="stroke:#181818;stroke-width:.5"/><text x="115" y="128.801" fill="#000" font-family="sans-serif" font-size="14" lengthAdjust="spacing" textLength="90">Pool Adder N</text><ellipse cx="163" cy="63.766" fill="#FF0" rx="8" ry="8" style="stroke:#181818;stroke-width:.5"/><path fill="none" d="M163,71.7656 L163,98.7656 M150,79.7656 L176,79.7656 M163,98.7656 L150,113.7656 M163,98.7656 L176,113.7656" style="stroke:#181818;stroke-width:.5"/><text x="115" y="1326.469" fill="#000" font-family="sans-serif" font-size="14" lengthAdjust="spacing" textLength="90">Pool Adder N</text><ellipse cx="163" cy="1337.922" fill="#FF0" rx="8" ry="8" style="stroke:#181818;stroke-width:.5"/><path fill="none" d="M163,1345.9219 L163,1372.9219 M150,1353.9219 L176,1353.9219 M163,1372.9219 L150,1387.9219 M163,1372.9219 L176,1387.9219" style="stroke:#181818;stroke-width:.5"/><text x="221" y="128.801" fill="#000" font-family="sans-serif" font-size="14" lengthAdjust="spacing" textLength="65">Pool User</text><ellipse cx="256.5" cy="63.766" fill="#E2E2F0" rx="8" ry="8" style="stroke:#181818;stroke-width:.5"/><path fill="none" d="M256.5,71.7656 L256.5,98.7656 M243.5,79.7656 L269.5,79.7656 M256.5,98.7656 L243.5,113.7656 M256.5,98.7656 L269.5,113.7656" style="stroke:#181818;stroke-width:.5"/><text x="221" y="1326.469" fill="#000" font-family="sans-serif" font-size="14" lengthAdjust="spacing" textLength="65">Pool User</text><ellipse cx="256.5" cy="1337.922" fill="#E2E2F0" rx="8" ry="8" style="stroke:#181818;stroke-width:.5"/><path fill="none" d="M256.5,1345.9219 L256.5,1372.9219 M243.5,1353.9219 L269.5,1353.9219 M256.5,1372.9219 L243.5,1387.9219 M256.5,1372.9219 L269.5,1387.9219" style="stroke:#181818;stroke-width:.5"/><text x="650" y="128.801" fill="#000" font-family="sans-serif" font-size="14" lengthAdjust="spacing" textLength="101">MPAS Contract</text><path fill="#E2E2F0" d="M685.5,79.2656 C685.5,69.2656 703.5,69.2656 703.5,69.2656 C703.5,69.2656 721.5,69.2656 721.5,79.2656 L721.5,105.2656 C721.5,115.2656 703.5,115.2656 703.5,115.2656 C703.5,115.2656 685.5,115.2656 685.5,105.2656 L685.5,79.2656" style="stroke:#181818;stroke-width:1.5"/><path fill="none" d="M685.5,79.2656 C685.5,89.2656 703.5,89.2656 703.5,89.2656 C703.5,89.2656 721.5,89.2656 721.5,79.2656" style="stroke:#181818;stroke-width:1.5"/><text x="650" y="1326.469" fill="#000" font-family="sans-serif" font-size="14" lengthAdjust="spacing" textLength="101">MPAS Contract</text><path fill="#E2E2F0" d="M685.5,1339.4219 C685.5,1329.4219 703.5,1329.4219 703.5,1329.4219 C703.5,1329.4219 721.5,1329.4219 721.5,1339.4219 L721.5,1365.4219 C721.5,1375.4219 703.5,1375.4219 703.5,1375.4219 C703.5,1375.4219 685.5,1375.4219 685.5,1365.4219 L685.5,1339.4219" style="stroke:#181818;stroke-width:1.5"/><path fill="none" d="M685.5,1339.4219 C685.5,1349.4219 703.5,1349.4219 703.5,1349.4219 C703.5,1349.4219 721.5,1349.4219 721.5,1339.4219" style="stroke:#181818;stroke-width:1.5"/><text x="767.5" y="128.801" fill="#000" font-family="sans-serif" font-size="14" lengthAdjust="spacing" textLength="25">Zoe</text><ellipse cx="783" cy="99.266" fill="#E2E2F0" rx="12" ry="12" style="stroke:#181818;stroke-width:.5"/><line style="stroke:#181818;stroke-width:.5" x1="771" x2="795" y1="113.266" y2="113.266"/><text x="767.5" y="1326.469" fill="#000" font-family="sans-serif" font-size="14" lengthAdjust="spacing" textLength="25">Zoe</text><ellipse cx="783" cy="1345.422" fill="#E2E2F0" rx="12" ry="12" style="stroke:#181818;stroke-width:.5"/><line style="stroke:#181818;stroke-width:.5" x1="771" x2="795" y1="1359.422" y2="1359.422"/><text x="1003.5" y="128.801" fill="#000" font-family="sans-serif" font-size="14" lengthAdjust="spacing" textLength="59">userSeat</text><ellipse cx="1036" cy="99.266" fill="#E2E2F0" rx="12" ry="12" style="stroke:#181818;stroke-width:.5"/><line style="stroke:#181818;stroke-width:.5" x1="1024" x2="1048" y1="113.266" y2="113.266"/><text x="1003.5" y="1326.469" fill="#000" font-family="sans-serif" font-size="14" lengthAdjust="spacing" textLength="59">userSeat</text><ellipse cx="1036" cy="1345.422" fill="#E2E2F0" rx="12" ry="12" style="stroke:#181818;stroke-width:.5"/><line style="stroke:#181818;stroke-width:.5" x1="1024" x2="1048" y1="1359.422" y2="1359.422"/><text x="1078.5" y="128.801" fill="#000" font-family="sans-serif" font-size="14" lengthAdjust="spacing" textLength="102">Pool SML:BUCK</text><path fill="#E2E2F0" d="M1114.5,79.2656 C1114.5,69.2656 1132.5,69.2656 1132.5,69.2656 C1132.5,69.2656 1150.5,69.2656 1150.5,79.2656 L1150.5,105.2656 C1150.5,115.2656 1132.5,115.2656 1132.5,115.2656 C1132.5,115.2656 1114.5,115.2656 1114.5,105.2656 L1114.5,79.2656" style="stroke:#181818;stroke-width:1.5"/><path fill="none" d="M1114.5,79.2656 C1114.5,89.2656 1132.5,89.2656 1132.5,89.2656 C1132.5,89.2656 1150.5,89.2656 1150.5,79.2656" style="stroke:#181818;stroke-width:1.5"/><text x="1078.5" y="1326.469" fill="#000" font-family="sans-serif" font-size="14" lengthAdjust="spacing" textLength="102">Pool SML:BUCK</text><path fill="#E2E2F0" d="M1114.5,1339.4219 C1114.5,1329.4219 1132.5,1329.4219 1132.5,1329.4219 C1132.5,1329.4219 1150.5,1329.4219 1150.5,1339.4219 L1150.5,1365.4219 C1150.5,1375.4219 1132.5,1375.4219 1132.5,1375.4219 C1132.5,1375.4219 1114.5,1375.4219 1114.5,1365.4219 L1114.5,1339.4219" style="stroke:#181818;stroke-width:1.5"/><path fill="none" d="M1114.5,1339.4219 C1114.5,1349.4219 1132.5,1349.4219 1132.5,1349.4219 C1132.5,1349.4219 1150.5,1349.4219 1150.5,1339.4219" style="stroke:#181818;stroke-width:1.5"/><text x="1224.5" y="128.801" fill="#000" font-family="sans-serif" font-size="14" lengthAdjust="spacing" textLength="132">poolSeat SML:BUCK</text><ellipse cx="1293.5" cy="99.266" fill="#E2E2F0" rx="12" ry="12" style="stroke:#181818;stroke-width:.5"/><line style="stroke:#181818;stroke-width:.5" x1="1281.5" x2="1305.5" y1="113.266" y2="113.266"/><text x="1224.5" y="1326.469" fill="#000" font-family="sans-serif" font-size="14" lengthAdjust="spacing" textLength="132">poolSeat SML:BUCK</text><ellipse cx="1293.5" cy="1345.422" fill="#E2E2F0" rx="12" ry="12" style="stroke:#181818;stroke-width:.5"/><line style="stroke:#181818;stroke-width:.5" x1="1281.5" x2="1305.5" y1="1359.422" y2="1359.422"/><text x="1372.5" y="128.801" fill="#000" font-family="sans-serif" font-size="14" lengthAdjust="spacing" textLength="116">Pool MOOL:BUCK</text><path fill="#E2E2F0" d="M1415.5,79.2656 C1415.5,69.2656 1433.5,69.2656 1433.5,69.2656 C1433.5,69.2656 1451.5,69.2656 1451.5,79.2656 L1451.5,105.2656 C1451.5,115.2656 1433.5,115.2656 1433.5,115.2656 C1433.5,115.2656 1415.5,115.2656 1415.5,105.2656 L1415.5,79.2656" style="stroke:#181818;stroke-width:1.5"/><path fill="none" d="M1415.5,79.2656 C1415.5,89.2656 1433.5,89.2656 1433.5,89.2656 C1433.5,89.2656 1451.5,89.2656 1451.5,79.2656" style="stroke:#181818;stroke-width:1.5"/><text x="1372.5" y="1326.469" fill="#000" font-family="sans-serif" font-size="14" lengthAdjust="spacing" textLength="116">Pool MOOL:BUCK</text><path fill="#E2E2F0" d="M1415.5,1339.4219 C1415.5,1329.4219 1433.5,1329.4219 1433.5,1329.4219 C1433.5,1329.4219 1451.5,1329.4219 1451.5,1339.4219 L1451.5,1365.4219 C1451.5,1375.4219 1433.5,1375.4219 1433.5,1375.4219 C1433.5,1375.4219 1415.5,1375.4219 1415.5,1365.4219 L1415.5,1339.4219" style="stroke:#181818;stroke-width:1.5"/><path fill="none" d="M1415.5,1339.4219 C1415.5,1349.4219 1433.5,1349.4219 1433.5,1349.4219 C1433.5,1349.4219 1451.5,1349.4219 1451.5,1339.4219" style="stroke:#181818;stroke-width:1.5"/><line style="stroke:#000;stroke-width:1;stroke-dasharray:2,2" x1="0" x2="1514.5" y1="142.754" y2="142.754"/><rect style="stroke:#eee;stroke-width:1" width="1514.5" height="3" x="0" y="164.409" fill="#EEE"/><line style="stroke:#000;stroke-width:1" x1="0" x2="1514.5" y1="164.409" y2="164.409"/><line style="stroke:#000;stroke-width:1" x1="0" x2="1514.5" y1="167.409" y2="167.409"/><rect style="stroke:#000;stroke-width:2" width="112" height="23.311" x="701.25" y="153.754" fill="#EEE"/><text x="707.25" y="170.322" fill="#000" font-family="sans-serif" font-size="13" font-weight="bold" lengthAdjust="spacing" textLength="94">Swap Request</text><path fill="#EEE" d="M211,194.0645 L514,194.0645 L514,201.375 L504,211.375 L211,211.375 L211,194.0645" style="stroke:#000;stroke-width:1.5"/><rect style="stroke:#000;stroke-width:1.5" width="556" height="75.932" x="211" y="194.065" fill="none"/><text x="226" y="207.633" fill="#000" font-family="sans-serif" font-size="13" font-weight="bold" lengthAdjust="spacing" textLength="258">asking for the current price UNK:BUCK</text><polygon fill="#181818" points="691.5 228.685 701.5 232.685 691.5 236.685 695.5 232.685" style="stroke:#181818;stroke-width:1"/><line style="stroke:#181818;stroke-width:1" x1="256.5" x2="697.5" y1="232.685" y2="232.685"/><text x="263.5" y="227.943" fill="#000" font-family="sans-serif" font-size="13" font-weight="bold" lengthAdjust="spacing" textLength="18">50</text><text x="285.5" y="227.531" fill="#000" font-family="monospace" font-size="13" lengthAdjust="spacing" textLength="192">getOutputPrice(UNK:BUCK)</text><line style="stroke:#181818;stroke-width:2" x1="262.5" x2="272.5" y1="256.996" y2="266.996"/><line style="stroke:#181818;stroke-width:2" x1="262.5" x2="272.5" y1="266.996" y2="256.996"/><line style="stroke:#181818;stroke-width:1;stroke-dasharray:2,2" x1="268.5" x2="702.5" y1="261.996" y2="261.996"/><text x="273.5" y="257.254" fill="#000" font-family="sans-serif" font-size="13" font-weight="bold" lengthAdjust="spacing" textLength="18">51</text><text x="295.5" y="256.841" fill="#000" font-family="monospace" font-size="13" lengthAdjust="spacing" textLength="208">brands were not recognized</text><path fill="#EEE" d="M211,283.9961 L527,283.9961 L527,291.3066 L517,301.3066 L211,301.3066 L211,283.9961" style="stroke:#000;stroke-width:1.5"/><rect style="stroke:#000;stroke-width:1.5" width="1293.5" height="134.553" x="211" y="283.996" fill="none"/><text x="226" y="297.565" fill="#000" font-family="sans-serif" font-size="13" font-weight="bold" lengthAdjust="spacing" textLength="271">asking for the current price MOOL:BUCK</text><polygon fill="#181818" points="691.5 318.617 701.5 322.617 691.5 326.617 695.5 322.617" style="stroke:#181818;stroke-width:1"/><line style="stroke:#181818;stroke-width:1" x1="256.5" x2="697.5" y1="322.617" y2="322.617"/><text x="263.5" y="317.875" fill="#000" font-family="sans-serif" font-size="13" font-weight="bold" lengthAdjust="spacing" textLength="18">52</text><text x="285.5" y="317.462" fill="#000" font-family="monospace" font-size="13" lengthAdjust="spacing" textLength="200">getOutputPrice(MOOL:BUCK)</text><polygon fill="#181818" points="1421.5 347.928 1431.5 351.928 1421.5 355.928 1425.5 351.928" style="stroke:#181818;stroke-width:1"/><line style="stroke:#181818;stroke-width:1" x1="703.5" x2="1427.5" y1="351.928" y2="351.928"/><text x="710.5" y="347.185" fill="#000" font-family="sans-serif" font-size="13" font-weight="bold" lengthAdjust="spacing" textLength="18">53</text><text x="732.5" y="346.773" fill="#000" font-family="monospace" font-size="13" lengthAdjust="spacing" textLength="304">getPriceGivenRequiredOutput(MOOL:BUCK)</text><polygon fill="#181818" points="714.5 377.238 704.5 381.238 714.5 385.238 710.5 381.238" style="stroke:#181818;stroke-width:1"/><line style="stroke:#181818;stroke-width:1;stroke-dasharray:2,2" x1="708.5" x2="1432.5" y1="381.238" y2="381.238"/><text x="720.5" y="376.496" fill="#000" font-family="sans-serif" font-size="13" font-weight="bold" lengthAdjust="spacing" textLength="18">54</text><text x="742.5" y="376.084" fill="#000" font-family="monospace" font-size="13" lengthAdjust="spacing" textLength="40">quote</text><polygon fill="#181818" points="267.5 406.549 257.5 410.549 267.5 414.549 263.5 410.549" style="stroke:#181818;stroke-width:1"/><line style="stroke:#181818;stroke-width:1;stroke-dasharray:2,2" x1="261.5" x2="702.5" y1="410.549" y2="410.549"/><text x="273.5" y="405.807" fill="#000" font-family="sans-serif" font-size="13" font-weight="bold" lengthAdjust="spacing" textLength="18">55</text><text x="295.5" y="405.394" fill="#000" font-family="monospace" font-size="13" lengthAdjust="spacing" textLength="40">quote</text><path fill="#EEE" d="M211,432.5488 L382,432.5488 L382,439.8594 L372,449.8594 L211,449.8594 L211,432.5488" style="stroke:#000;stroke-width:1.5"/><rect style="stroke:#000;stroke-width:1.5" width="357.5" height="59.621" x="211" y="432.549" fill="none"/><text x="226" y="446.117" fill="#000" font-family="sans-serif" font-size="13" font-weight="bold" lengthAdjust="spacing" textLength="126">making a proposal</text><line style="stroke:#181818;stroke-width:1" x1="256.5" x2="298.5" y1="471.17" y2="471.17"/><line style="stroke:#181818;stroke-width:1" x1="298.5" x2="298.5" y1="471.17" y2="484.17"/><line style="stroke:#181818;stroke-width:1" x1="257.5" x2="298.5" y1="484.17" y2="484.17"/><polygon fill="#181818" points="267.5 480.17 257.5 484.17 267.5 488.17 263.5 484.17" style="stroke:#181818;stroke-width:1"/><text x="263.5" y="466.428" fill="#000" font-family="sans-serif" font-size="13" font-weight="bold" lengthAdjust="spacing" textLength="18">56</text><text x="285.5" y="466.428" fill="#000" font-family="sans-serif" font-size="13" lengthAdjust="spacing" textLength="203">create proposal for SML:BUCK as</text><text x="492.5" y="466.104" fill="#000" font-family="monospace" font-size="13" lengthAdjust="spacing" textLength="64">proposal</text><path fill="#EEE" d="M211,506.1699 L518,506.1699 L518,513.4805 L508,523.4805 L211,523.4805 L211,506.1699" style="stroke:#000;stroke-width:1.5"/><rect style="stroke:#000;stroke-width:1.5" width="556" height="75.932" x="211" y="506.17" fill="none"/><text x="226" y="519.738" fill="#000" font-family="sans-serif" font-size="13" font-weight="bold" lengthAdjust="spacing" textLength="262">requesting an invitation for a SwapOut</text><polygon fill="#181818" points="691.5 540.791 701.5 544.791 691.5 548.791 695.5 544.791" style="stroke:#181818;stroke-width:1"/><line style="stroke:#181818;stroke-width:1" x1="256.5" x2="697.5" y1="544.791" y2="544.791"/><text x="263.5" y="540.049" fill="#000" font-family="sans-serif" font-size="13" font-weight="bold" lengthAdjust="spacing" textLength="18">57</text><text x="285.5" y="539.636" fill="#000" font-family="monospace" font-size="13" lengthAdjust="spacing" textLength="184">makeSwapOutInvitation()</text><polygon fill="#181818" points="267.5 570.102 257.5 574.102 267.5 578.102 263.5 574.102" style="stroke:#181818;stroke-width:1"/><line style="stroke:#181818;stroke-width:1;stroke-dasharray:2,2" x1="261.5" x2="702.5" y1="574.102" y2="574.102"/><text x="273.5" y="569.359" fill="#000" font-family="sans-serif" font-size="13" font-weight="bold" lengthAdjust="spacing" textLength="18">58</text><text x="295.5" y="568.947" fill="#000" font-family="monospace" font-size="13" lengthAdjust="spacing" textLength="80">invitation</text><path fill="#EEE" d="M211,596.1016 L364,596.1016 L364,603.4121 L354,613.4121 L211,613.4121 L211,596.1016" style="stroke:#000;stroke-width:1.5"/><rect style="stroke:#000;stroke-width:1.5" width="1161.5" height="466.658" x="211" y="596.102" fill="none"/><text x="226" y="609.67" fill="#000" font-family="sans-serif" font-size="13" font-weight="bold" lengthAdjust="spacing" textLength="108">making an offer</text><line style="stroke:#181818;stroke-width:1" x1="256.5" x2="298.5" y1="634.723" y2="634.723"/><line style="stroke:#181818;stroke-width:1" x1="298.5" x2="298.5" y1="634.723" y2="647.723"/><line style="stroke:#181818;stroke-width:1" x1="257.5" x2="298.5" y1="647.723" y2="647.723"/><polygon fill="#181818" points="267.5 643.723 257.5 647.723 267.5 651.723 263.5 647.723" style="stroke:#181818;stroke-width:1"/><text x="263.5" y="629.981" fill="#000" font-family="sans-serif" font-size="13" font-weight="bold" lengthAdjust="spacing" textLength="18">59</text><text x="285.5" y="629.981" fill="#000" font-family="sans-serif" font-size="13" lengthAdjust="spacing" textLength="245">withdraw funds from purse of SML into</text><text x="534.5" y="629.657" fill="#000" font-family="monospace" font-size="13" lengthAdjust="spacing" textLength="56">payment</text><polygon fill="#181818" points="771 673.033 781 677.033 771 681.033 775 677.033" style="stroke:#181818;stroke-width:1"/><line style="stroke:#181818;stroke-width:1" x1="256.5" x2="777" y1="677.033" y2="677.033"/><text x="263.5" y="672.291" fill="#000" font-family="sans-serif" font-size="13" font-weight="bold" lengthAdjust="spacing" textLength="18">60</text><text x="285.5" y="671.878" fill="#000" font-family="monospace" font-size="13" lengthAdjust="spacing" textLength="296">offer(invitation, proposal, payment))</text><line style="stroke:#181818;stroke-width:1" x1="783" x2="825" y1="706.344" y2="706.344"/><line style="stroke:#181818;stroke-width:1" x1="825" x2="825" y1="706.344" y2="719.344"/><line style="stroke:#181818;stroke-width:1" x1="784" x2="825" y1="719.344" y2="719.344"/><polygon fill="#181818" points="794 715.344 784 719.344 794 723.344 790 719.344" style="stroke:#181818;stroke-width:1"/><text x="790" y="701.602" fill="#000" font-family="sans-serif" font-size="13" font-weight="bold" lengthAdjust="spacing" textLength="18">61</text><text x="812" y="701.602" fill="#000" font-family="sans-serif" font-size="13" lengthAdjust="spacing" textLength="83">validate offer</text><polygon fill="#181818" points="1024 744.654 1034 748.654 1024 752.654 1028 748.654" style="stroke:#181818;stroke-width:1"/><line style="stroke:#181818;stroke-width:1" x1="783" x2="1030" y1="748.654" y2="748.654"/><text x="790" y="743.912" fill="#000" font-family="sans-serif" font-size="13" font-weight="bold" lengthAdjust="spacing" textLength="18">62</text><text x="812" y="743.912" fill="#000" font-family="sans-serif" font-size="13" lengthAdjust="spacing" textLength="38">create</text><text x="854" y="743.588" fill="#000" font-family="monospace" font-size="13" lengthAdjust="spacing" textLength="64">userSeat</text><polygon fill="#181818" points="794 773.965 784 777.965 794 781.965 790 777.965" style="stroke:#181818;stroke-width:1"/><line style="stroke:#181818;stroke-width:1;stroke-dasharray:2,2" x1="788" x2="1035" y1="777.965" y2="777.965"/><text x="800" y="773.223" fill="#000" font-family="sans-serif" font-size="13" font-weight="bold" lengthAdjust="spacing" textLength="18">63</text><text x="822" y="772.81" fill="#000" font-family="monospace" font-size="13" lengthAdjust="spacing" textLength="64">userSeat</text><polygon fill="#181818" points="1120.5 803.275 1130.5 807.275 1120.5 811.275 1124.5 807.275" style="stroke:#181818;stroke-width:1"/><line style="stroke:#181818;stroke-width:1" x1="783" x2="1126.5" y1="807.275" y2="807.275"/><text x="790" y="802.533" fill="#000" font-family="sans-serif" font-size="13" font-weight="bold" lengthAdjust="spacing" textLength="18">64</text><text x="812" y="802.121" fill="#000" font-family="monospace" font-size="13" lengthAdjust="spacing" textLength="104">getPoolSeat()</text><polygon fill="#181818" points="1281.5 832.586 1291.5 836.586 1281.5 840.586 1285.5 836.586" style="stroke:#181818;stroke-width:1"/><line style="stroke:#181818;stroke-width:1" x1="1132.5" x2="1287.5" y1="836.586" y2="836.586"/><text x="1139.5" y="831.844" fill="#000" font-family="sans-serif" font-size="13" font-weight="bold" lengthAdjust="spacing" textLength="18">65</text><text x="1161.5" y="831.844" fill="#000" font-family="sans-serif" font-size="13" lengthAdjust="spacing" textLength="38">create</text><text x="1203.5" y="831.52" fill="#000" font-family="monospace" font-size="13" lengthAdjust="spacing" textLength="64">poolSeat</text><polygon fill="#181818" points="794 861.896 784 865.896 794 869.896 790 865.896" style="stroke:#181818;stroke-width:1"/><line style="stroke:#181818;stroke-width:1;stroke-dasharray:2,2" x1="788" x2="1292.5" y1="865.896" y2="865.896"/><text x="800" y="861.154" fill="#000" font-family="sans-serif" font-size="13" font-weight="bold" lengthAdjust="spacing" textLength="18">66</text><text x="822" y="860.742" fill="#000" font-family="monospace" font-size="13" lengthAdjust="spacing" textLength="64">poolSeat</text><polygon fill="#181818" points="1281.5 891.207 1291.5 895.207 1281.5 899.207 1285.5 895.207" style="stroke:#181818;stroke-width:1"/><line style="stroke:#181818;stroke-width:1" x1="703.5" x2="1287.5" y1="895.207" y2="895.207"/><text x="710.5" y="890.465" fill="#000" font-family="sans-serif" font-size="13" font-weight="bold" lengthAdjust="spacing" textLength="18">67</text><text x="732.5" y="890.465" fill="#000" font-family="sans-serif" font-size="13" lengthAdjust="spacing" textLength="78">stage assets</text><polygon fill="#181818" points="1024 920.518 1034 924.518 1024 928.518 1028 924.518" style="stroke:#181818;stroke-width:1"/><line style="stroke:#181818;stroke-width:1" x1="703.5" x2="1030" y1="924.518" y2="924.518"/><text x="710.5" y="919.775" fill="#000" font-family="sans-serif" font-size="13" font-weight="bold" lengthAdjust="spacing" textLength="18">68</text><text x="732.5" y="919.775" fill="#000" font-family="sans-serif" font-size="13" lengthAdjust="spacing" textLength="78">stage assets</text><line style="stroke:#181818;stroke-width:1" x1="783" x2="825" y1="953.828" y2="953.828"/><line style="stroke:#181818;stroke-width:1" x1="825" x2="825" y1="953.828" y2="966.828"/><line style="stroke:#181818;stroke-width:1" x1="784" x2="825" y1="966.828" y2="966.828"/><polygon fill="#181818" points="794 962.828 784 966.828 794 970.828 790 966.828" style="stroke:#181818;stroke-width:1"/><text x="790" y="949.086" fill="#000" font-family="sans-serif" font-size="13" font-weight="bold" lengthAdjust="spacing" textLength="18">69</text><text x="812" y="948.673" fill="#000" font-family="monospace" font-size="13" lengthAdjust="spacing" textLength="208">reallocate(seat, poolSeat)</text><polygon fill="#181818" points="267.5 992.139 257.5 996.139 267.5 1000.139 263.5 996.139" style="stroke:#181818;stroke-width:1"/><line style="stroke:#181818;stroke-width:1;stroke-dasharray:2,2" x1="261.5" x2="1035" y1="996.139" y2="996.139"/><text x="273.5" y="991.396" fill="#000" font-family="sans-serif" font-size="13" font-weight="bold" lengthAdjust="spacing" textLength="18">70</text><text x="295.5" y="990.984" fill="#000" font-family="monospace" font-size="13" lengthAdjust="spacing" textLength="64">userSeat</text><polygon fill="#181818" points="771 1021.449 781 1025.449 771 1029.449 775 1025.449" style="stroke:#181818;stroke-width:1"/><line style="stroke:#181818;stroke-width:1" x1="256.5" x2="777" y1="1025.449" y2="1025.449"/><text x="263.5" y="1020.707" fill="#000" font-family="sans-serif" font-size="13" font-weight="bold" lengthAdjust="spacing" textLength="18">71</text><text x="285.5" y="1020.294" fill="#000" font-family="monospace" font-size="13" lengthAdjust="spacing" textLength="128">getOfferResult()</text><polygon fill="#181818" points="267.5 1050.76 257.5 1054.76 267.5 1058.76 263.5 1054.76" style="stroke:#181818;stroke-width:1"/><line style="stroke:#181818;stroke-width:1;stroke-dasharray:2,2" x1="261.5" x2="782" y1="1054.76" y2="1054.76"/><text x="273.5" y="1050.018" fill="#000" font-family="sans-serif" font-size="13" font-weight="bold" lengthAdjust="spacing" textLength="18">72</text><text x="295.5" y="1050.018" fill="#000" font-family="sans-serif" font-size="13" lengthAdjust="spacing" textLength="168">result of failure or success</text><path fill="#EEE" d="M211,1076.7598 L372,1076.7598 L372,1084.0703 L362,1094.0703 L211,1094.0703 L211,1076.7598" style="stroke:#000;stroke-width:1.5"/><rect style="stroke:#000;stroke-width:1.5" width="867.5" height="219.174" x="211" y="1076.76" fill="none"/><text x="226" y="1090.328" fill="#000" font-family="sans-serif" font-size="13" font-weight="bold" lengthAdjust="spacing" textLength="116">recovering funds</text><polygon fill="#181818" points="1024 1111.381 1034 1115.381 1024 1119.381 1028 1115.381" style="stroke:#181818;stroke-width:1"/><line style="stroke:#181818;stroke-width:1" x1="256.5" x2="1030" y1="1115.381" y2="1115.381"/><text x="263.5" y="1110.639" fill="#000" font-family="sans-serif" font-size="13" font-weight="bold" lengthAdjust="spacing" textLength="18">73</text><text x="285.5" y="1110.315" fill="#000" font-family="monospace" font-size="13" lengthAdjust="spacing" textLength="160">getPayout(&quot;Central&quot;)</text><text x="449.5" y="1110.639" fill="#000" font-family="sans-serif" font-size="13" lengthAdjust="spacing" textLength="34">(give)</text><polygon fill="#181818" points="267.5 1140.691 257.5 1144.691 267.5 1148.691 263.5 1144.691" style="stroke:#181818;stroke-width:1"/><line style="stroke:#181818;stroke-width:1;stroke-dasharray:2,2" x1="261.5" x2="1035" y1="1144.691" y2="1144.691"/><text x="273.5" y="1139.949" fill="#000" font-family="sans-serif" font-size="13" font-weight="bold" lengthAdjust="spacing" textLength="18">74</text><text x="295.5" y="1139.537" fill="#000" font-family="monospace" font-size="13" lengthAdjust="spacing" textLength="104">payoutCentral</text><line style="stroke:#181818;stroke-width:1" x1="256.5" x2="298.5" y1="1174.002" y2="1174.002"/><line style="stroke:#181818;stroke-width:1" x1="298.5" x2="298.5" y1="1174.002" y2="1187.002"/><line style="stroke:#181818;stroke-width:1" x1="257.5" x2="298.5" y1="1187.002" y2="1187.002"/><polygon fill="#181818" points="267.5 1183.002 257.5 1187.002 267.5 1191.002 263.5 1187.002" style="stroke:#181818;stroke-width:1"/><text x="263.5" y="1169.26" fill="#000" font-family="sans-serif" font-size="13" font-weight="bold" lengthAdjust="spacing" textLength="18">75</text><text x="285.5" y="1169.26" fill="#000" font-family="sans-serif" font-size="13" lengthAdjust="spacing" textLength="47">deposit</text><text x="336.5" y="1168.936" fill="#000" font-family="monospace" font-size="13" lengthAdjust="spacing" textLength="104">payoutCentral</text><text x="444.5" y="1169.26" fill="#000" font-family="sans-serif" font-size="13" lengthAdjust="spacing" textLength="64">into purse</text><polygon fill="#181818" points="1024 1212.313 1034 1216.313 1024 1220.313 1028 1216.313" style="stroke:#181818;stroke-width:1"/><line style="stroke:#181818;stroke-width:1" x1="256.5" x2="1030" y1="1216.313" y2="1216.313"/><text x="263.5" y="1211.57" fill="#000" font-family="sans-serif" font-size="13" font-weight="bold" lengthAdjust="spacing" textLength="18">76</text><text x="285.5" y="1211.247" fill="#000" font-family="monospace" font-size="13" lengthAdjust="spacing" textLength="176">getPayout(&quot;Secondary&quot;)</text><text x="465.5" y="1211.57" fill="#000" font-family="sans-serif" font-size="13" lengthAdjust="spacing" textLength="38">(want)</text><polygon fill="#181818" points="267.5 1241.623 257.5 1245.623 267.5 1249.623 263.5 1245.623" style="stroke:#181818;stroke-width:1"/><line style="stroke:#181818;stroke-width:1;stroke-dasharray:2,2" x1="261.5" x2="1035" y1="1245.623" y2="1245.623"/><text x="273.5" y="1240.881" fill="#000" font-family="sans-serif" font-size="13" font-weight="bold" lengthAdjust="spacing" textLength="18">77</text><text x="295.5" y="1240.468" fill="#000" font-family="monospace" font-size="13" lengthAdjust="spacing" textLength="120">payoutSecondary</text><line style="stroke:#181818;stroke-width:1" x1="256.5" x2="298.5" y1="1274.934" y2="1274.934"/><line style="stroke:#181818;stroke-width:1" x1="298.5" x2="298.5" y1="1274.934" y2="1287.934"/><line style="stroke:#181818;stroke-width:1" x1="257.5" x2="298.5" y1="1287.934" y2="1287.934"/><polygon fill="#181818" points="267.5 1283.934 257.5 1287.934 267.5 1291.934 263.5 1287.934" style="stroke:#181818;stroke-width:1"/><text x="263.5" y="1270.191" fill="#000" font-family="sans-serif" font-size="13" font-weight="bold" lengthAdjust="spacing" textLength="18">78</text><text x="285.5" y="1270.191" fill="#000" font-family="sans-serif" font-size="13" lengthAdjust="spacing" textLength="47">deposit</text><text x="336.5" y="1269.868" fill="#000" font-family="monospace" font-size="13" lengthAdjust="spacing" textLength="120">payoutSecondary</text><text x="460.5" y="1270.191" fill="#000" font-family="sans-serif" font-size="13" lengthAdjust="spacing" textLength="64">into purse</text><line style="stroke:#000;stroke-width:1;stroke-dasharray:2,2" x1="0" x2="1514.5" y1="1302.934" y2="1302.934"/><rect style="stroke:#00000000;stroke-width:1;fill:none" width="176" height="11.777" x="1337.5" y="5"/><text x="1337.5" y="14.668" fill="#888" font-family="sans-serif" font-size="10" lengthAdjust="spacing" textLength="176">Agoric Systems Operating Company.</text><rect style="stroke:#00000000;stroke-width:1;fill:none" width="55" height="11.777" x="729.25" y="1394.422"/><text x="729.25" y="1404.09" fill="#888" font-family="sans-serif" font-size="10" lengthAdjust="spacing" textLength="55">Page 2 of 4</text></g></svg>