<svg xmlns="http://www.w3.org/2000/svg" xmlns:xlink="http://www.w3.org/1999/xlink" style="width:3153px;height:743px;background:#fff" width="3153" height="743" contentStyleType="text/css" preserveAspectRatio="none" version="1.1" viewBox="0 0 3153 743" zoomAndPan="magnify"><g><rect style="stroke:#00000000;stroke-width:1;fill:none" width="176" height="11.777" x="2963.5" y="0"/><text x="2963.5" y="9.668" fill="#888" font-family="sans-serif" font-size="10" lengthAdjust="spacing" textLength="176">Agoric Systems Operating Company.</text><rect style="stroke:#00000000;stroke-width:1;fill:none" width="315" height="26.488" x="1412.25" y="17.777"/><text x="1417.25" y="36.313" fill="#000" font-family="sans-serif" font-size="14" font-weight="bold" lengthAdjust="spacing" textLength="305">Multiswap Auto Pool Component Diagram</text><g id="cluster_zoe"><path d="M572,56.2656 L598,56.2656 A3.75,3.75 0 0 1 600.5,58.7656 L607.5,78.7539 L736,78.7539 A2.5,2.5 0 0 1 738.5,81.2539 L738.5,131.7656 A2.5,2.5 0 0 1 736,134.2656 L572,134.2656 A2.5,2.5 0 0 1 569.5,131.7656 L569.5,58.7656 A2.5,2.5 0 0 1 572,56.2656" style="stroke:#000;stroke-width:1.5;fill:none"/><line style="stroke:#000;stroke-width:1.5;fill:none" x1="569.5" x2="607.5" y1="78.754" y2="78.754"/><text x="573.5" y="71.801" fill="#000" font-family="sans-serif" font-size="14" font-weight="bold" lengthAdjust="spacing" textLength="25">zoe</text></g><g id="cluster_Multipool Autoswap"><path d="M510,304.2656 L657,304.2656 A3.75,3.75 0 0 1 659.5,306.7656 L666.5,326.7539 L3144,326.7539 A2.5,2.5 0 0 1 3146.5,329.2539 L3146.5,714.7656 A2.5,2.5 0 0 1 3144,717.2656 L510,717.2656 A2.5,2.5 0 0 1 507.5,714.7656 L507.5,306.7656 A2.5,2.5 0 0 1 510,304.2656" style="stroke:#000;stroke-width:1.5;fill:none"/><line style="stroke:#000;stroke-width:1.5;fill:none" x1="507.5" x2="666.5" y1="326.754" y2="326.754"/><text x="511.5" y="319.801" fill="#000" font-family="sans-serif" font-size="14" font-weight="bold" lengthAdjust="spacing" textLength="146">Multipool Autoswap</text></g><g id="cluster_conf1"><polygon points="1152.5 379.906 1162.5 369.906 2323.5 369.906 2323.5 675.266 2313.5 685.266 1152.5 685.266 1152.5 379.906" style="stroke:#181818;stroke-width:1;fill:none"/><line style="stroke:#181818;stroke-width:1;fill:none" x1="2313.5" x2="2323.5" y1="379.906" y2="369.906"/><line style="stroke:#181818;stroke-width:1;fill:none" x1="1152.5" x2="2313.5" y1="379.906" y2="379.906"/><line style="stroke:#181818;stroke-width:1;fill:none" x1="2313.5" x2="2313.5" y1="379.906" y2="685.266"/><text x="1717" y="396.441" fill="#000" font-family="sans-serif" font-size="14" font-style="italic" lengthAdjust="spacing" textLength="34">«zcf»</text><text x="1686.5" y="412.929" fill="#000" font-family="sans-serif" font-size="14" font-weight="bold" lengthAdjust="spacing" textLength="95">contractFacet</text></g><g id="cluster_pa1"><path d="M1288,520.2656 L1361,520.2656 A3.75,3.75 0 0 1 1363.5,522.7656 L1370.5,542.7539 L1589,542.7539 A2.5,2.5 0 0 1 1591.5,545.2539 L1591.5,642.7656 A2.5,2.5 0 0 1 1589,645.2656 L1288,645.2656 A2.5,2.5 0 0 1 1285.5,642.7656 L1285.5,522.7656 A2.5,2.5 0 0 1 1288,520.2656" style="stroke:#000;stroke-width:1.5;fill:none"/><line style="stroke:#000;stroke-width:1.5;fill:none" x1="1285.5" x2="1370.5" y1="542.754" y2="542.754"/><text x="1289.5" y="535.801" fill="#000" font-family="sans-serif" font-size="14" font-weight="bold" lengthAdjust="spacing" textLength="72">poolSeatA</text></g><g id="cluster_pa2"><path d="M1980,520.2656 L2052,520.2656 A3.75,3.75 0 0 1 2054.5,522.7656 L2061.5,542.7539 L2281,542.7539 A2.5,2.5 0 0 1 2283.5,545.2539 L2283.5,642.7656 A2.5,2.5 0 0 1 2281,645.2656 L1980,645.2656 A2.5,2.5 0 0 1 1977.5,642.7656 L1977.5,522.7656 A2.5,2.5 0 0 1 1980,520.2656" style="stroke:#000;stroke-width:1.5;fill:none"/><line style="stroke:#000;stroke-width:1.5;fill:none" x1="1977.5" x2="2061.5" y1="542.754" y2="542.754"/><text x="1981.5" y="535.801" fill="#000" font-family="sans-serif" font-size="14" font-weight="bold" lengthAdjust="spacing" textLength="71">poolSeatB</text></g><g id="cluster_use"><path d="M1634,520.2656 L1697,520.2656 A3.75,3.75 0 0 1 1699.5,522.7656 L1706.5,542.7539 L1935,542.7539 A2.5,2.5 0 0 1 1937.5,545.2539 L1937.5,642.7656 A2.5,2.5 0 0 1 1935,645.2656 L1634,645.2656 A2.5,2.5 0 0 1 1631.5,642.7656 L1631.5,522.7656 A2.5,2.5 0 0 1 1634,520.2656" style="stroke:#000;stroke-width:1.5;fill:none"/><line style="stroke:#000;stroke-width:1.5;fill:none" x1="1631.5" x2="1706.5" y1="542.754" y2="542.754"/><text x="1635.5" y="535.801" fill="#000" font-family="sans-serif" font-size="14" font-weight="bold" lengthAdjust="spacing" textLength="62">UserSeat</text></g><g id="cluster_pf0"><path d="M2852,354.2656 L2934,354.2656 A3.75,3.75 0 0 1 2936.5,356.7656 L2943.5,376.7539 L3120,376.7539 A2.5,2.5 0 0 1 3122.5,379.2539 L3122.5,460.7656 A2.5,2.5 0 0 1 3120,463.2656 L2852,463.2656 A2.5,2.5 0 0 1 2849.5,460.7656 L2849.5,356.7656 A2.5,2.5 0 0 1 2852,354.2656" style="stroke:#000;stroke-width:1.5;fill:none"/><line style="stroke:#000;stroke-width:1.5;fill:none" x1="2849.5" x2="2943.5" y1="376.754" y2="376.754"/><text x="2853.5" y="369.801" fill="#000" font-family="sans-serif" font-size="14" font-weight="bold" lengthAdjust="spacing" textLength="81">publicFacet</text></g><g id="cluster_poolb"><polygon points="2355.5 357.266 2365.5 347.266 2825.5 347.266 2825.5 616.266 2815.5 626.266 2355.5 626.266 2355.5 357.266" style="stroke:#181818;stroke-width:1;fill:none"/><line style="stroke:#181818;stroke-width:1;fill:none" x1="2815.5" x2="2825.5" y1="357.266" y2="347.266"/><line style="stroke:#181818;stroke-width:1;fill:none" x1="2355.5" x2="2815.5" y1="357.266" y2="357.266"/><line style="stroke:#181818;stroke-width:1;fill:none" x1="2815.5" x2="2815.5" y1="357.266" y2="626.266"/><text x="2563.5" y="373.801" fill="#000" font-family="sans-serif" font-size="14" font-weight="bold" lengthAdjust="spacing" textLength="46">Pool B</text></g><g id="cluster_poola"><polygon points="648.5 357.266 658.5 347.266 1120.5 347.266 1120.5 616.266 1110.5 626.266 648.5 626.266 648.5 357.266" style="stroke:#181818;stroke-width:1;fill:none"/><line style="stroke:#181818;stroke-width:1;fill:none" x1="1110.5" x2="1120.5" y1="357.266" y2="347.266"/><line style="stroke:#181818;stroke-width:1;fill:none" x1="648.5" x2="1110.5" y1="357.266" y2="357.266"/><line style="stroke:#181818;stroke-width:1;fill:none" x1="1110.5" x2="1110.5" y1="357.266" y2="626.266"/><text x="857" y="373.801" fill="#000" font-family="sans-serif" font-size="14" font-weight="bold" lengthAdjust="spacing" textLength="47">Pool A</text></g><g id="elem_offer"><ellipse cx="594.5" cy="104.766" fill="#F1F1F1" rx="8" ry="8" style="stroke:#181818;stroke-width:.5"/><text x="573" y="135.301" fill="#000" font-family="sans-serif" font-size="14" lengthAdjust="spacing" textLength="43">offer()</text></g><g id="elem_cf0"><rect style="stroke:#181818;stroke-width:.5" width="105" height="36.488" x="524" y="400.266" fill="#F1F1F1" rx="2.5" ry="2.5"/><text x="534" y="423.801" fill="#000" font-family="sans-serif" font-size="14" lengthAdjust="spacing" textLength="85">creatorFacet</text></g><g id="elem_reall"><ellipse cx="1217.5" cy="592.266" fill="#F1F1F1" rx="8" ry="8" style="stroke:#181818;stroke-width:.5"/><text x="1184" y="622.801" fill="#000" font-family="sans-serif" font-size="14" lengthAdjust="spacing" textLength="67">reallocate</text></g><g id="elem_pa1i1"><ellipse cx="1378.5" cy="592.266" fill="#F1F1F1" rx="8" ry="8" style="stroke:#181818;stroke-width:.5"/><text x="1336.5" y="622.801" fill="#000" font-family="sans-serif" font-size="14" lengthAdjust="spacing" textLength="84">incrementBy</text></g><g id="elem_pa1i2"><ellipse cx="1515.5" cy="592.266" fill="#F1F1F1" rx="8" ry="8" style="stroke:#181818;stroke-width:.5"/><text x="1471.5" y="622.801" fill="#000" font-family="sans-serif" font-size="14" lengthAdjust="spacing" textLength="88">decrementBy</text></g><g id="elem_pa2i1"><ellipse cx="2051.5" cy="592.266" fill="#F1F1F1" rx="8" ry="8" style="stroke:#181818;stroke-width:.5"/><text x="2009.5" y="622.801" fill="#000" font-family="sans-serif" font-size="14" lengthAdjust="spacing" textLength="84">incrementBy</text></g><g id="elem_pa2i2"><ellipse cx="2188.5" cy="592.266" fill="#F1F1F1" rx="8" ry="8" style="stroke:#181818;stroke-width:.5"/><text x="2144.5" y="622.801" fill="#000" font-family="sans-serif" font-size="14" lengthAdjust="spacing" textLength="88">decrementBy</text></g><g id="elem_usi1"><ellipse cx="1724.5" cy="592.266" fill="#F1F1F1" rx="8" ry="8" style="stroke:#181818;stroke-width:.5"/><text x="1682.5" y="622.801" fill="#000" font-family="sans-serif" font-size="14" lengthAdjust="spacing" textLength="84">incrementBy</text></g><g id="elem_usi2"><ellipse cx="1861.5" cy="592.266" fill="#F1F1F1" rx="8" ry="8" style="stroke:#181818;stroke-width:.5"/><text x="1817.5" y="622.801" fill="#000" font-family="sans-serif" font-size="14" lengthAdjust="spacing" textLength="88">decrementBy</text></g><g id="elem_ap"><ellipse cx="3065.5" cy="418.266" fill="#F1F1F1" rx="8" ry="8" style="stroke:#181818;stroke-width:.5"/><text x="3032.5" y="448.801" fill="#000" font-family="sans-serif" font-size="14" lengthAdjust="spacing" textLength="66">addPool()</text></g><g id="elem_om"><ellipse cx="2927.5" cy="418.266" fill="#F1F1F1" rx="8" ry="8" style="stroke:#181818;stroke-width:.5"/><text x="2873.5" y="448.801" fill="#000" font-family="sans-serif" font-size="14" lengthAdjust="spacing" textLength="108">otherMethods...</text></g><g id="elem_ct2"><rect style="stroke:#181818;stroke-width:.5" width="117" height="36.488" x="2529" y="574.266" fill="#F1F1F1" rx="2.5" ry="2.5"/><text x="2539" y="597.801" fill="#000" font-family="sans-serif" font-size="14" lengthAdjust="spacing" textLength="97">Central Token</text></g><g id="elem_pr2"><path fill="#F1F1F1" d="M2697.5,397.2656 C2697.5,387.2656 2753.5,387.2656 2753.5,387.2656 C2753.5,387.2656 2809.5,387.2656 2809.5,397.2656 L2809.5,439.2422 C2809.5,449.2422 2753.5,449.2422 2753.5,449.2422 C2753.5,449.2422 2697.5,449.2422 2697.5,439.2422 L2697.5,397.2656" style="stroke:#181818;stroke-width:.5"/><path fill="none" d="M2697.5,397.2656 C2697.5,407.2656 2753.5,407.2656 2753.5,407.2656 C2753.5,407.2656 2809.5,407.2656 2809.5,397.2656" style="stroke:#181818;stroke-width:.5"/><text x="2714" y="424.801" fill="#000" font-family="sans-serif" font-size="14" font-style="italic" lengthAdjust="spacing" textLength="79">«Central/B»</text><text x="2707.5" y="441.289" fill="#000" font-family="sans-serif" font-size="14" lengthAdjust="spacing" textLength="92">Price Registry</text></g><g id="elem_Secondary Token B"><rect style="stroke:#181818;stroke-width:.5" width="150" height="36.488" x="2512.5" y="400.266" fill="#F1F1F1" rx="2.5" ry="2.5"/><text x="2522.5" y="423.801" fill="#000" font-family="sans-serif" font-size="14" lengthAdjust="spacing" textLength="130">Secondary Token B</text></g><g id="elem_gps2"><ellipse cx="2424.5" cy="418.266" fill="#F1F1F1" rx="8" ry="8" style="stroke:#181818;stroke-width:.5"/><text x="2379" y="448.801" fill="#000" font-family="sans-serif" font-size="14" lengthAdjust="spacing" textLength="91">getPoolSeat()</text></g><g id="elem_ct1"><rect style="stroke:#181818;stroke-width:.5" width="117" height="36.488" x="682" y="574.266" fill="#F1F1F1" rx="2.5" ry="2.5"/><text x="692" y="597.801" fill="#000" font-family="sans-serif" font-size="14" lengthAdjust="spacing" textLength="97">Central Token</text></g><g id="elem_pr1"><path fill="#F1F1F1" d="M992.5,397.2656 C992.5,387.2656 1048.5,387.2656 1048.5,387.2656 C1048.5,387.2656 1104.5,387.2656 1104.5,397.2656 L1104.5,439.2422 C1104.5,449.2422 1048.5,449.2422 1048.5,449.2422 C1048.5,449.2422 992.5,449.2422 992.5,439.2422 L992.5,397.2656" style="stroke:#181818;stroke-width:.5"/><path fill="none" d="M992.5,397.2656 C992.5,407.2656 1048.5,407.2656 1048.5,407.2656 C1048.5,407.2656 1104.5,407.2656 1104.5,397.2656" style="stroke:#181818;stroke-width:.5"/><text x="1008" y="424.801" fill="#000" font-family="sans-serif" font-size="14" font-style="italic" lengthAdjust="spacing" textLength="81">«Central/A»</text><text x="1002.5" y="441.289" fill="#000" font-family="sans-serif" font-size="14" lengthAdjust="spacing" textLength="92">Price Registry</text></g><g id="elem_Secondary Token A"><rect style="stroke:#181818;stroke-width:.5" width="152" height="36.488" x="664.5" y="400.266" fill="#F1F1F1" rx="2.5" ry="2.5"/><text x="674.5" y="423.801" fill="#000" font-family="sans-serif" font-size="14" lengthAdjust="spacing" textLength="132">Secondary Token A</text></g><g id="elem_gps1"><ellipse cx="904.5" cy="418.266" fill="#F1F1F1" rx="8" ry="8" style="stroke:#181818;stroke-width:.5"/><text x="859" y="448.801" fill="#000" font-family="sans-serif" font-size="14" lengthAdjust="spacing" textLength="91">getPoolSeat()</text></g><g id="elem_pooln"><polygon fill="#F1F1F1" points="3023.5 579.266 3033.5 569.266 3107.5 569.266 3107.5 605.754 3097.5 615.754 3023.5 615.754 3023.5 579.266" style="stroke:#181818;stroke-width:.5"/><line style="stroke:#181818;stroke-width:.5" x1="3097.5" x2="3107.5" y1="579.266" y2="569.266"/><line style="stroke:#181818;stroke-width:.5" x1="3023.5" x2="3097.5" y1="579.266" y2="579.266"/><line style="stroke:#181818;stroke-width:.5" x1="3097.5" x2="3097.5" y1="579.266" y2="615.754"/><text x="3038.5" y="602.801" fill="#000" font-family="sans-serif" font-size="14" lengthAdjust="spacing" textLength="44">pool n</text></g><g id="elem_cc1"><ellipse cx="132.5" cy="189.766" fill="#F1F1F1" rx="8" ry="8" style="stroke:#181818;stroke-width:.5"/><path fill="none" d="M132.5,197.7656 L132.5,224.7656 M119.5,205.7656 L145.5,205.7656 M132.5,224.7656 L119.5,239.7656 M132.5,224.7656 L145.5,239.7656" style="stroke:#181818;stroke-width:.5"/><text x="6" y="254.801" fill="#000" font-family="sans-serif" font-size="14" lengthAdjust="spacing" textLength="253">Multipool Autoswap Contract creator</text></g><g id="elem_cc2"><ellipse cx="3065.5" cy="189.766" fill="#F1F1F1" rx="8" ry="8" style="stroke:#181818;stroke-width:.5"/><path fill="none" d="M3065.5,197.7656 L3065.5,224.7656 M3052.5,205.7656 L3078.5,205.7656 M3065.5,224.7656 L3052.5,239.7656 M3065.5,224.7656 L3078.5,239.7656" style="stroke:#181818;stroke-width:.5"/><text x="2992" y="254.801" fill="#000" font-family="sans-serif" font-size="14" lengthAdjust="spacing" textLength="147">Random Pool Creator</text></g><g id="elem_cc3"><ellipse cx="594.5" cy="189.766" fill="#F1F1F1" rx="8" ry="8" style="stroke:#181818;stroke-width:.5"/><path fill="none" d="M594.5,197.7656 L594.5,224.7656 M581.5,205.7656 L607.5,205.7656 M594.5,224.7656 L581.5,239.7656 M594.5,224.7656 L607.5,239.7656" style="stroke:#181818;stroke-width:.5"/><text x="513" y="254.801" fill="#000" font-family="sans-serif" font-size="14" lengthAdjust="spacing" textLength="163">Person wanting to swap</text></g><g id="elem_si0"><ellipse cx="191.5" cy="418.266" fill="#F1F1F1" rx="8" ry="8" style="stroke:#181818;stroke-width:.5"/><text x="142.5" y="448.801" fill="#000" font-family="sans-serif" font-size="14" lengthAdjust="spacing" textLength="98">startInstance()</text></g><g id="link_si0_cf0"><path id="si0-to-cf0" fill="none" d="M199.07,409.2256 C222.09,382.5156 294.65,304.1456 375,276.7656 C418.75,261.8556 436.79,257.9356 479,276.7656 C528.6,298.8956 556.96,361.1056 569.21,395.2056" style="stroke:#181818;stroke-width:1"/><polygon fill="#181818" points="570.9 400.026 571.689 390.208 569.242 395.309 564.142 392.861 570.9 400.026" style="stroke:#181818;stroke-width:1"/></g><g id="link_Secondary Token B_ct2"><path id="Secondary Token B-to-ct2" fill="none" d="M2587.5,436.3856 C2587.5,467.6856 2587.5,534.0956 2587.5,568.9056" style="stroke:#181818;stroke-width:1"/><polygon fill="#181818" points="2587.5 574.216 2591.5 565.216 2587.5 569.216 2583.5 565.216 2587.5 574.216" style="stroke:#181818;stroke-width:1"/></g><g id="link_Secondary Token A_ct1"><path id="Secondary Token A-to-ct1" fill="none" d="M740.5,436.3856 C740.5,467.6856 740.5,534.0956 740.5,568.9056" style="stroke:#181818;stroke-width:1"/><polygon fill="#181818" points="740.5 574.216 744.5 565.216 740.5 569.216 736.5 565.216 740.5 574.216" style="stroke:#181818;stroke-width:1"/></g><g id="link_ap_pooln"><path id="ap-to-pooln" fill="none" d="M3065.5,427.5656 C3065.5,451.9056 3065.5,523.9156 3065.5,563.8356" style="stroke:#181818;stroke-width:1"/><polygon fill="#181818" points="3065.5 569.016 3069.5 560.016 3065.5 564.016 3061.5 560.016 3065.5 569.016" style="stroke:#181818;stroke-width:1"/></g><g id="link_offer_conf1"><path id="offer-to-conf1" fill="none" d="M603.76,108.6456 C653.775,124.2256 897.995,200.3006 1131.4238,273.0144 C1189.7809,291.1928 1247.4637,309.1612 1301.2689,325.9217 C1328.1715,334.302 1354.1047,342.3803 1378.6682,350.0319 C1390.9499,353.8577 1402.8892,357.5769 1414.436,361.1737 C1420.2094,362.9722 1425.8847,364.7401 1431.4556,366.4754 C1434.241,367.3431 1437.0004,368.2027 1439.7329,369.0538" style="stroke:#181818;stroke-width:1"/><polygon fill="#181818" points="1439.733 369.054 1432.33 362.558 1434.959 367.567 1429.95 370.196 1439.733 369.054" style="stroke:#181818;stroke-width:1"/><text x="1078.5" y="224.334" fill="#000" font-family="sans-serif" font-size="13" lengthAdjust="spacing" textLength="101">execute method</text></g><g id="link_gps1_pa1"><path id="gps1-to-pa1" fill="none" d="M912.3,427.4456 C924.48,439.5756 949.31,461.9156 975.5,471.2656 C976.01,471.4456 1289.12,487.8756 1289.5,488.2656 C1297.41,496.2981 1301.6688,506.615 1303.5944,517.6055 C1303.7147,518.2924 1303.826,518.9819 1303.9284,519.6737 C1303.954,519.8466 1303.9791,520.0197 1304.0036,520.1929" style="stroke:#181818;stroke-width:1"/><polygon fill="#181818" points="1304.004 520.193 1306.703 510.721 1303.303 515.242 1298.782 511.842 1304.004 520.193" style="stroke:#181818;stroke-width:1"/></g><g id="link_gps2_pa2"><path id="gps2-to-pa2" fill="none" d="M2415.65,427.4356 C2402.17,440.0256 2375.9,465.1456 2355.5,488.2656 C2336.625,509.6606 2316.95,534.9456 2301.835,555.1094 C2298.0563,560.1503 2294.5625,564.8712 2291.4375,569.1312 C2289.875,571.2611 2288.4047,573.2759 2287.037,575.1579 C2286.3532,576.0988 2285.695,577.0066 2285.0638,577.879 C2284.7483,578.3152 2284.4394,578.7425 2284.1375,579.1607 C2283.9865,579.3698 2283.8372,579.5766 2283.6897,579.7811" style="stroke:#181818;stroke-width:1"/><polygon fill="#181818" points="2283.69 579.781 2292.199 574.822 2286.615 575.726 2285.71 570.142 2283.69 579.781" style="stroke:#181818;stroke-width:1"/></g><g id="link_conf1_pa1i1"><path id="conf1-to-pa1i1" fill="none" d="M1594.43,419.2856 C1591.6,419.9456 1500.6,441.6056 1446.5,488.2656 C1416.16,514.4356 1393.86,557.3356 1384.04,578.5556" style="stroke:#181818;stroke-width:1"/><polygon fill="#181818" points="1381.93 583.226 1389.296 576.688 1383.999 578.674 1382.013 573.377 1381.93 583.226" style="stroke:#181818;stroke-width:1"/></g><g id="link_conf1_pa1i2"><path id="conf1-to-pa1i2" fill="none" d="M1594.44,419.3856 C1592.46,423.7156 1539.39,539.2456 1521.4,578.4156" style="stroke:#181818;stroke-width:1"/><polygon fill="#181818" points="1519.2 583.216 1526.583 576.697 1521.281 578.669 1519.308 573.367 1519.2 583.216" style="stroke:#181818;stroke-width:1"/></g><g id="link_conf1_pa2i1"><path id="conf1-to-pa2i1" fill="none" d="M1594.64,419.2656 C1600.68,419.3656 1794.9,422.8856 1929.5,488.2656 C1977.15,511.4056 2021.65,557.3956 2041.14,579.2256" style="stroke:#181818;stroke-width:1"/><polygon fill="#181818" points="2044.49 583.006 2041.536 573.61 2041.182 579.256 2035.537 578.902 2044.49 583.006" style="stroke:#181818;stroke-width:1"/></g><g id="link_conf1_pa2i2"><path id="conf1-to-pa2i2" fill="none" d="M1594.58,419.2656 C1601.12,419.3756 2020.31,426.6856 2119.5,488.2656 C2154.03,509.7056 2175.17,555.5656 2183.88,578.1556" style="stroke:#181818;stroke-width:1"/><polygon fill="#181818" points="2185.73 583.106 2186.341 573.276 2183.987 578.419 2178.843 576.065 2185.73 583.106" style="stroke:#181818;stroke-width:1"/></g><g id="link_conf1_usi1"><path id="conf1-to-usi1" fill="none" d="M1594.64,419.3656 C1597.49,421.3256 1643.46,453.3056 1670.5,488.2656 C1693.27,517.7156 1711.25,558.1756 1719.53,578.5056" style="stroke:#181818;stroke-width:1"/><polygon fill="#181818" points="1721.42 583.226 1721.765 573.383 1719.551 578.588 1714.345 576.374 1721.42 583.226" style="stroke:#181818;stroke-width:1"/></g><g id="link_conf1_usi2"><path id="conf1-to-usi2" fill="none" d="M1594.59,419.2756 C1598.37,419.6556 1719.91,432.1756 1792.5,488.2656 C1824.35,512.8756 1846.49,556.4956 1856.11,578.2156" style="stroke:#181818;stroke-width:1"/><polygon fill="#181818" points="1858.18 582.996 1858.285 573.147 1856.198 578.405 1850.941 576.318 1858.18 582.996" style="stroke:#181818;stroke-width:1"/></g><g id="link_conf1_reall"><path id="conf1-to-reall" fill="none" d="M1594.45,419.2656 C1590.47,419.6856 1335.35,446.1956 1277.5,488.2656 C1246.05,511.1456 1228.44,555.9356 1221.3,578.1456" style="stroke:#181818;stroke-width:1"/><polygon fill="#181818" points="1219.78 583.026 1226.268 575.616 1221.262 578.25 1218.628 573.244 1219.78 583.026" style="stroke:#181818;stroke-width:1"/></g><g id="link_cc1_si0"><path id="cc1-to-si0" fill="none" d="M143.6,257.3156 C156.98,302.0156 178.79,374.8256 187.61,404.2856" style="stroke:#181818;stroke-width:1"/><polygon fill="#181818" points="189.1 409.266 190.332 399.494 187.657 404.478 182.672 401.803 189.1 409.266" style="stroke:#181818;stroke-width:1"/></g><g id="link_cc2_ap"><path id="cc2-to-ap" fill="none" d="M3065.5,257.3156 C3065.5,301.8356 3065.5,374.2256 3065.5,403.9156" style="stroke:#181818;stroke-width:1"/><polygon fill="#181818" points="3065.5 409.266 3069.5 400.266 3065.5 404.266 3061.5 400.266 3065.5 409.266" style="stroke:#181818;stroke-width:1"/></g><g id="link_offer_cc3"><path id="offer-backto-cc3" fill="none" d="M594.5,118.9456 C594.5,134.0956 594.5,159.6456 594.5,181.0256" style="stroke:#181818;stroke-width:1"/><polygon fill="#181818" points="594.5 113.856 590.5 122.856 594.5 118.856 598.5 122.856 594.5 113.856" style="stroke:#181818;stroke-width:1"/></g><g id="link_offer_offer"><path id="offer-to-offer" fill="none" d="M603.57,99.6756 C618.76,93.6356 638.5,95.3356 638.5,104.7656 C638.5,113.2456 622.57,115.4656 608.32,111.4556" style="stroke:#181818;stroke-width:1"/><polygon fill="#181818" points="603.57 109.856 610.813 116.529 608.306 111.458 613.377 108.951 603.57 109.856" style="stroke:#181818;stroke-width:1"/><text x="644.5" y="109.834" fill="#000" font-family="sans-serif" font-size="13" lengthAdjust="spacing" textLength="89">validate terms</text></g><g id="link_offer_use"><path id="offer-to-use" fill="none" d="M585.27,109.9456 C549.3,126.8456 418.34,194.1256 374.5,296.2656 C343.82,367.7356 321.5,414.3456 374.5,471.2656 C397.39,495.8456 1554.69,470.9956 1583.5,488.2656 C1605.495,501.4556 1619.405,526.6131 1627.86,548.7619 C1628.9169,551.5305 1629.8885,554.2521 1630.7801,556.8974 C1631.0029,557.5587 1631.2208,558.2153 1631.4338,558.8666" style="stroke:#181818;stroke-width:1"/><polygon fill="#181818" points="1631.434 558.867 1632.439 549.069 1629.88 554.114 1624.835 551.555 1631.434 558.867" style="stroke:#181818;stroke-width:1"/></g><g id="link_cc3_use"><path id="cc3-to-use" fill="none" d="M512.73,235.0456 C477.83,245.8456 440.39,264.4156 419.5,296.2656 C376.84,361.3056 364.91,415.8656 419.5,471.2656 C442.2,494.2956 1555.83,471.5356 1583.5,488.2656 C1605.45,501.5306 1619.36,526.6906 1627.8263,548.8219 C1628.8845,551.5883 1629.8578,554.3074 1630.751,556.95 C1630.9743,557.6106 1631.1926,558.2665 1631.406,558.9171" style="stroke:#181818;stroke-width:1"/><polygon fill="#181818" points="1631.406 558.917 1632.402 549.119 1629.848 554.166 1624.801 551.612 1631.406 558.917" style="stroke:#181818;stroke-width:1"/><text x="420.5" y="423.334" fill="#000" font-family="sans-serif" font-size="13" lengthAdjust="spacing" textLength="86">reclaim funds</text></g><g id="link_cc3_om"><path id="cc3-to-om" fill="none" d="M676.16,226.9956 C782.19,235.4556 973.03,249.8056 1136.5,257.2656 C1230.26,261.5456 2740.85,255.7156 2825.5,296.2656 C2874.05,319.5256 2908.03,378.0656 2921.31,404.2456" style="stroke:#181818;stroke-width:1"/><polygon fill="#181818" points="2923.68 409.036 2923.258 399.196 2921.455 404.558 2916.093 402.755 2923.68 409.036" style="stroke:#181818;stroke-width:1"/></g><rect style="stroke:#00000000;stroke-width:1;fill:none" width="29" height="11.777" x="1555.25" y="723.266"/><text x="1555.25" y="732.934" fill="#888" font-family="sans-serif" font-size="10" lengthAdjust="spacing" textLength="29">v0.0.1</text></g></svg>