<svg xmlns="http://www.w3.org/2000/svg" xmlns:xlink="http://www.w3.org/1999/xlink" style="width:1521px;height:719px;background:#fff" width="1521" height="719" contentStyleType="text/css" preserveAspectRatio="none" version="1.1" viewBox="0 0 1521 719" zoomAndPan="magnify"><g><rect style="stroke:#00000000;stroke-width:1;fill:none" width="364" height="26.488" x="574.75" y="22.777"/><text x="579.75" y="41.313" fill="#000" font-family="sans-serif" font-size="14" font-weight="bold" lengthAdjust="spacing" textLength="354">Multipool Auto Swap Sequence Diagram Creation</text><rect style="stroke:#181818;stroke-width:.5" width="309.5" height="642.324" x="763" y="56.266" fill="#DDD"/><text x="905.75" y="68.834" fill="#000" font-family="sans-serif" font-size="13" font-weight="bold" lengthAdjust="spacing" textLength="24">Zoe</text><line style="stroke:#181818;stroke-width:.5;fill:none;stroke-dasharray:5,5" x1="55" x2="55" y1="131.754" y2="619.102"/><line style="stroke:#181818;stroke-width:.5;fill:none;stroke-dasharray:5,5" x1="163" x2="163" y1="131.754" y2="619.102"/><line style="stroke:#181818;stroke-width:.5;fill:none;stroke-dasharray:5,5" x1="256" x2="256" y1="131.754" y2="619.102"/><line style="stroke:#181818;stroke-width:.5;fill:none;stroke-dasharray:5,5" x1="703" x2="703" y1="131.754" y2="619.102"/><line style="stroke:#181818;stroke-width:.5;fill:none;stroke-dasharray:5,5" x1="783" x2="783" y1="131.754" y2="619.102"/><line style="stroke:#181818;stroke-width:.5;fill:none;stroke-dasharray:5,5" x1="1035.5" x2="1035.5" y1="131.754" y2="619.102"/><line style="stroke:#181818;stroke-width:.5;fill:none;stroke-dasharray:5,5" x1="1132.5" x2="1132.5" y1="131.754" y2="619.102"/><line style="stroke:#181818;stroke-width:.5;fill:none;stroke-dasharray:5,5" x1="1293.5" x2="1293.5" y1="131.754" y2="619.102"/><line style="stroke:#181818;stroke-width:.5;fill:none;stroke-dasharray:5,5" x1="1433.5" x2="1433.5" y1="131.754" y2="619.102"/><text x="5" y="128.801" fill="#000" font-family="sans-serif" font-size="14" lengthAdjust="spacing" textLength="94">MPAS Creator</text><ellipse cx="55" cy="63.766" fill="#0F0" rx="8" ry="8" style="stroke:#181818;stroke-width:.5"/><path fill="none" d="M55,71.7656 L55,98.7656 M42,79.7656 L68,79.7656 M55,98.7656 L42,113.7656 M55,98.7656 L68,113.7656" style="stroke:#181818;stroke-width:.5"/><text x="5" y="631.637" fill="#000" font-family="sans-serif" font-size="14" lengthAdjust="spacing" textLength="94">MPAS Creator</text><ellipse cx="55" cy="643.09" fill="#0F0" rx="8" ry="8" style="stroke:#181818;stroke-width:.5"/><path fill="none" d="M55,651.0898 L55,678.0898 M42,659.0898 L68,659.0898 M55,678.0898 L42,693.0898 M55,678.0898 L68,693.0898" style="stroke:#181818;stroke-width:.5"/><text x="115" y="128.801" fill="#000" font-family="sans-serif" font-size="14" lengthAdjust="spacing" textLength="90">Pool Adder N</text><ellipse cx="163" cy="63.766" fill="#FF0" rx="8" ry="8" style="stroke:#181818;stroke-width:.5"/><path fill="none" d="M163,71.7656 L163,98.7656 M150,79.7656 L176,79.7656 M163,98.7656 L150,113.7656 M163,98.7656 L176,113.7656" style="stroke:#181818;stroke-width:.5"/><text x="115" y="631.637" fill="#000" font-family="sans-serif" font-size="14" lengthAdjust="spacing" textLength="90">Pool Adder N</text><ellipse cx="163" cy="643.09" fill="#FF0" rx="8" ry="8" style="stroke:#181818;stroke-width:.5"/><path fill="none" d="M163,651.0898 L163,678.0898 M150,659.0898 L176,659.0898 M163,678.0898 L150,693.0898 M163,678.0898 L176,693.0898" style="stroke:#181818;stroke-width:.5"/><text x="221" y="128.801" fill="#000" font-family="sans-serif" font-size="14" lengthAdjust="spacing" textLength="65">Pool User</text><ellipse cx="256.5" cy="63.766" fill="#E2E2F0" rx="8" ry="8" style="stroke:#181818;stroke-width:.5"/><path fill="none" d="M256.5,71.7656 L256.5,98.7656 M243.5,79.7656 L269.5,79.7656 M256.5,98.7656 L243.5,113.7656 M256.5,98.7656 L269.5,113.7656" style="stroke:#181818;stroke-width:.5"/><text x="221" y="631.637" fill="#000" font-family="sans-serif" font-size="14" lengthAdjust="spacing" textLength="65">Pool User</text><ellipse cx="256.5" cy="643.09" fill="#E2E2F0" rx="8" ry="8" style="stroke:#181818;stroke-width:.5"/><path fill="none" d="M256.5,651.0898 L256.5,678.0898 M243.5,659.0898 L269.5,659.0898 M256.5,678.0898 L243.5,693.0898 M256.5,678.0898 L269.5,693.0898" style="stroke:#181818;stroke-width:.5"/><text x="650" y="128.801" fill="#000" font-family="sans-serif" font-size="14" lengthAdjust="spacing" textLength="101">MPAS Contract</text><path fill="#E2E2F0" d="M685.5,79.2656 C685.5,69.2656 703.5,69.2656 703.5,69.2656 C703.5,69.2656 721.5,69.2656 721.5,79.2656 L721.5,105.2656 C721.5,115.2656 703.5,115.2656 703.5,115.2656 C703.5,115.2656 685.5,115.2656 685.5,105.2656 L685.5,79.2656" style="stroke:#181818;stroke-width:1.5"/><path fill="none" d="M685.5,79.2656 C685.5,89.2656 703.5,89.2656 703.5,89.2656 C703.5,89.2656 721.5,89.2656 721.5,79.2656" style="stroke:#181818;stroke-width:1.5"/><text x="650" y="631.637" fill="#000" font-family="sans-serif" font-size="14" lengthAdjust="spacing" textLength="101">MPAS Contract</text><path fill="#E2E2F0" d="M685.5,644.5898 C685.5,634.5898 703.5,634.5898 703.5,634.5898 C703.5,634.5898 721.5,634.5898 721.5,644.5898 L721.5,670.5898 C721.5,680.5898 703.5,680.5898 703.5,680.5898 C703.5,680.5898 685.5,680.5898 685.5,670.5898 L685.5,644.5898" style="stroke:#181818;stroke-width:1.5"/><path fill="none" d="M685.5,644.5898 C685.5,654.5898 703.5,654.5898 703.5,654.5898 C703.5,654.5898 721.5,654.5898 721.5,644.5898" style="stroke:#181818;stroke-width:1.5"/><text x="767.5" y="128.801" fill="#000" font-family="sans-serif" font-size="14" lengthAdjust="spacing" textLength="25">Zoe</text><ellipse cx="783" cy="99.266" fill="#E2E2F0" rx="12" ry="12" style="stroke:#181818;stroke-width:.5"/><line style="stroke:#181818;stroke-width:.5" x1="771" x2="795" y1="113.266" y2="113.266"/><text x="767.5" y="631.637" fill="#000" font-family="sans-serif" font-size="14" lengthAdjust="spacing" textLength="25">Zoe</text><ellipse cx="783" cy="650.59" fill="#E2E2F0" rx="12" ry="12" style="stroke:#181818;stroke-width:.5"/><line style="stroke:#181818;stroke-width:.5" x1="771" x2="795" y1="664.59" y2="664.59"/><text x="1003.5" y="128.801" fill="#000" font-family="sans-serif" font-size="14" lengthAdjust="spacing" textLength="59">userSeat</text><ellipse cx="1036" cy="99.266" fill="#E2E2F0" rx="12" ry="12" style="stroke:#181818;stroke-width:.5"/><line style="stroke:#181818;stroke-width:.5" x1="1024" x2="1048" y1="113.266" y2="113.266"/><text x="1003.5" y="631.637" fill="#000" font-family="sans-serif" font-size="14" lengthAdjust="spacing" textLength="59">userSeat</text><ellipse cx="1036" cy="650.59" fill="#E2E2F0" rx="12" ry="12" style="stroke:#181818;stroke-width:.5"/><line style="stroke:#181818;stroke-width:.5" x1="1024" x2="1048" y1="664.59" y2="664.59"/><text x="1078.5" y="128.801" fill="#000" font-family="sans-serif" font-size="14" lengthAdjust="spacing" textLength="102">Pool SML:BUCK</text><path fill="#E2E2F0" d="M1114.5,79.2656 C1114.5,69.2656 1132.5,69.2656 1132.5,69.2656 C1132.5,69.2656 1150.5,69.2656 1150.5,79.2656 L1150.5,105.2656 C1150.5,115.2656 1132.5,115.2656 1132.5,115.2656 C1132.5,115.2656 1114.5,115.2656 1114.5,105.2656 L1114.5,79.2656" style="stroke:#181818;stroke-width:1.5"/><path fill="none" d="M1114.5,79.2656 C1114.5,89.2656 1132.5,89.2656 1132.5,89.2656 C1132.5,89.2656 1150.5,89.2656 1150.5,79.2656" style="stroke:#181818;stroke-width:1.5"/><text x="1078.5" y="631.637" fill="#000" font-family="sans-serif" font-size="14" lengthAdjust="spacing" textLength="102">Pool SML:BUCK</text><path fill="#E2E2F0" d="M1114.5,644.5898 C1114.5,634.5898 1132.5,634.5898 1132.5,634.5898 C1132.5,634.5898 1150.5,634.5898 1150.5,644.5898 L1150.5,670.5898 C1150.5,680.5898 1132.5,680.5898 1132.5,680.5898 C1132.5,680.5898 1114.5,680.5898 1114.5,670.5898 L1114.5,644.5898" style="stroke:#181818;stroke-width:1.5"/><path fill="none" d="M1114.5,644.5898 C1114.5,654.5898 1132.5,654.5898 1132.5,654.5898 C1132.5,654.5898 1150.5,654.5898 1150.5,644.5898" style="stroke:#181818;stroke-width:1.5"/><text x="1224.5" y="128.801" fill="#000" font-family="sans-serif" font-size="14" lengthAdjust="spacing" textLength="132">poolSeat SML:BUCK</text><ellipse cx="1293.5" cy="99.266" fill="#E2E2F0" rx="12" ry="12" style="stroke:#181818;stroke-width:.5"/><line style="stroke:#181818;stroke-width:.5" x1="1281.5" x2="1305.5" y1="113.266" y2="113.266"/><text x="1224.5" y="631.637" fill="#000" font-family="sans-serif" font-size="14" lengthAdjust="spacing" textLength="132">poolSeat SML:BUCK</text><ellipse cx="1293.5" cy="650.59" fill="#E2E2F0" rx="12" ry="12" style="stroke:#181818;stroke-width:.5"/><line style="stroke:#181818;stroke-width:.5" x1="1281.5" x2="1305.5" y1="664.59" y2="664.59"/><text x="1372.5" y="128.801" fill="#000" font-family="sans-serif" font-size="14" lengthAdjust="spacing" textLength="116">Pool MOOL:BUCK</text><path fill="#E2E2F0" d="M1415.5,79.2656 C1415.5,69.2656 1433.5,69.2656 1433.5,69.2656 C1433.5,69.2656 1451.5,69.2656 1451.5,79.2656 L1451.5,105.2656 C1451.5,115.2656 1433.5,115.2656 1433.5,115.2656 C1433.5,115.2656 1415.5,115.2656 1415.5,105.2656 L1415.5,79.2656" style="stroke:#181818;stroke-width:1.5"/><path fill="none" d="M1415.5,79.2656 C1415.5,89.2656 1433.5,89.2656 1433.5,89.2656 C1433.5,89.2656 1451.5,89.2656 1451.5,79.2656" style="stroke:#181818;stroke-width:1.5"/><text x="1372.5" y="631.637" fill="#000" font-family="sans-serif" font-size="14" lengthAdjust="spacing" textLength="116">Pool MOOL:BUCK</text><path fill="#E2E2F0" d="M1415.5,644.5898 C1415.5,634.5898 1433.5,634.5898 1433.5,634.5898 C1433.5,634.5898 1451.5,634.5898 1451.5,644.5898 L1451.5,670.5898 C1451.5,680.5898 1433.5,680.5898 1433.5,680.5898 C1433.5,680.5898 1415.5,680.5898 1415.5,670.5898 L1415.5,644.5898" style="stroke:#181818;stroke-width:1.5"/><path fill="none" d="M1415.5,644.5898 C1415.5,654.5898 1433.5,654.5898 1433.5,654.5898 C1433.5,654.5898 1451.5,654.5898 1451.5,644.5898" style="stroke:#181818;stroke-width:1.5"/><rect style="stroke:#eee;stroke-width:1" width="1514.5" height="3" x="0" y="162.409" fill="#EEE"/><line style="stroke:#000;stroke-width:1" x1="0" x2="1514.5" y1="162.409" y2="162.409"/><line style="stroke:#000;stroke-width:1" x1="0" x2="1514.5" y1="165.409" y2="165.409"/><rect style="stroke:#000;stroke-width:2" width="116" height="23.311" x="699.25" y="151.754" fill="#EEE"/><text x="705.25" y="168.322" fill="#000" font-family="sans-serif" font-size="13" font-weight="bold" lengthAdjust="spacing" textLength="98">MPAS Creation</text><polygon fill="#181818" points="691.5 202.375 701.5 206.375 691.5 210.375 695.5 206.375" style="stroke:#181818;stroke-width:1"/><line style="stroke:#181818;stroke-width:1" x1="55" x2="697.5" y1="206.375" y2="206.375"/><text x="62" y="201.633" fill="#000" font-family="sans-serif" font-size="13" font-weight="bold" lengthAdjust="spacing" textLength="9">1</text><text x="75" y="201.633" fill="#000" font-family="sans-serif" font-size="13" lengthAdjust="spacing" textLength="97">Create instance</text><polygon fill="#181818" points="66 231.685 56 235.685 66 239.685 62 235.685" style="stroke:#181818;stroke-width:1"/><line style="stroke:#181818;stroke-width:1;stroke-dasharray:2,2" x1="60" x2="702.5" y1="235.685" y2="235.685"/><text x="72" y="230.943" fill="#000" font-family="sans-serif" font-size="13" font-weight="bold" lengthAdjust="spacing" textLength="9">2</text><text x="85" y="230.531" fill="#000" font-family="monospace" font-size="13" lengthAdjust="spacing" textLength="96">creatorFacet</text><rect style="stroke:#eee;stroke-width:1" width="1514.5" height="3" x="0" y="264.341" fill="#EEE"/><line style="stroke:#000;stroke-width:1" x1="0" x2="1514.5" y1="264.341" y2="264.341"/><line style="stroke:#000;stroke-width:1" x1="0" x2="1514.5" y1="267.341" y2="267.341"/><rect style="stroke:#000;stroke-width:2" width="164" height="23.311" x="675.25" y="253.685" fill="#EEE"/><text x="681.25" y="270.254" fill="#000" font-family="sans-serif" font-size="13" font-weight="bold" lengthAdjust="spacing" textLength="150">Pool Addition SML:BCK</text><polygon fill="#181818" points="691.5 304.307 701.5 308.307 691.5 312.307 695.5 308.307" style="stroke:#181818;stroke-width:1"/><line style="stroke:#181818;stroke-width:1" x1="163" x2="697.5" y1="308.307" y2="308.307"/><text x="170" y="303.565" fill="#000" font-family="sans-serif" font-size="13" font-weight="bold" lengthAdjust="spacing" textLength="18">10</text><text x="192" y="303.152" fill="#000" font-family="monospace" font-size="13" lengthAdjust="spacing" textLength="72">addPool()</text><polygon fill="#181818" points="1120.5 333.617 1130.5 337.617 1120.5 341.617 1124.5 337.617" style="stroke:#181818;stroke-width:1"/><line style="stroke:#181818;stroke-width:1" x1="703.5" x2="1126.5" y1="337.617" y2="337.617"/><text x="710.5" y="332.875" fill="#000" font-family="sans-serif" font-size="13" font-weight="bold" lengthAdjust="spacing" textLength="18">11</text><text x="732.5" y="332.875" fill="#000" font-family="sans-serif" font-size="13" lengthAdjust="spacing" textLength="182">Create pool for SML -&gt; BUCK</text><polygon fill="#181818" points="174 362.928 164 366.928 174 370.928 170 366.928" style="stroke:#181818;stroke-width:1"/><line style="stroke:#181818;stroke-width:1;stroke-dasharray:2,2" x1="168" x2="702.5" y1="366.928" y2="366.928"/><text x="180" y="362.185" fill="#000" font-family="sans-serif" font-size="13" font-weight="bold" lengthAdjust="spacing" textLength="18">12</text><text x="202" y="361.773" fill="#000" font-family="monospace" font-size="13" lengthAdjust="spacing" textLength="48">Issuer</text><rect style="stroke:#eee;stroke-width:1" width="1514.5" height="3" x="0" y="395.583" fill="#EEE"/><line style="stroke:#000;stroke-width:1" x1="0" x2="1514.5" y1="395.583" y2="395.583"/><line style="stroke:#000;stroke-width:1" x1="0" x2="1514.5" y1="398.583" y2="398.583"/><rect style="stroke:#000;stroke-width:2" width="179" height="23.311" x="667.75" y="384.928" fill="#EEE"/><text x="673.75" y="401.496" fill="#000" font-family="sans-serif" font-size="13" font-weight="bold" lengthAdjust="spacing" textLength="165">Pool Addition MOOL:BCK</text><polygon fill="#181818" points="691.5 435.549 701.5 439.549 691.5 443.549 695.5 439.549" style="stroke:#181818;stroke-width:1"/><line style="stroke:#181818;stroke-width:1" x1="163" x2="697.5" y1="439.549" y2="439.549"/><text x="170" y="434.807" fill="#000" font-family="sans-serif" font-size="13" font-weight="bold" lengthAdjust="spacing" textLength="18">10</text><text x="192" y="434.394" fill="#000" font-family="monospace" font-size="13" lengthAdjust="spacing" textLength="72">addPool()</text><polygon fill="#181818" points="1421.5 464.859 1431.5 468.859 1421.5 472.859 1425.5 468.859" style="stroke:#181818;stroke-width:1"/><line style="stroke:#181818;stroke-width:1" x1="703.5" x2="1427.5" y1="468.859" y2="468.859"/><text x="710.5" y="464.117" fill="#000" font-family="sans-serif" font-size="13" font-weight="bold" lengthAdjust="spacing" textLength="18">11</text><text x="732.5" y="464.117" fill="#000" font-family="sans-serif" font-size="13" lengthAdjust="spacing" textLength="195">Create pool for MOOL -&gt; BUCK</text><polygon fill="#181818" points="174 494.17 164 498.17 174 502.17 170 498.17" style="stroke:#181818;stroke-width:1"/><line style="stroke:#181818;stroke-width:1;stroke-dasharray:2,2" x1="168" x2="702.5" y1="498.17" y2="498.17"/><text x="180" y="493.428" fill="#000" font-family="sans-serif" font-size="13" font-weight="bold" lengthAdjust="spacing" textLength="18">12</text><text x="202" y="493.015" fill="#000" font-family="monospace" font-size="13" lengthAdjust="spacing" textLength="48">Issuer</text><rect style="stroke:#eee;stroke-width:1" width="1514.5" height="3" x="0" y="526.825" fill="#EEE"/><line style="stroke:#000;stroke-width:1" x1="0" x2="1514.5" y1="526.825" y2="526.825"/><line style="stroke:#000;stroke-width:1" x1="0" x2="1514.5" y1="529.825" y2="529.825"/><rect style="stroke:#000;stroke-width:2" width="247" height="23.311" x="633.75" y="516.17" fill="#EEE"/><text x="639.75" y="532.738" fill="#000" font-family="sans-serif" font-size="13" font-weight="bold" lengthAdjust="spacing" textLength="233">Duplicate Pool Addition MOOL:BCK</text><polygon fill="#181818" points="691.5 566.791 701.5 570.791 691.5 574.791 695.5 570.791" style="stroke:#181818;stroke-width:1"/><line style="stroke:#181818;stroke-width:1" x1="163" x2="697.5" y1="570.791" y2="570.791"/><text x="170" y="566.049" fill="#000" font-family="sans-serif" font-size="13" font-weight="bold" lengthAdjust="spacing" textLength="18">30</text><text x="192" y="565.636" fill="#000" font-family="monospace" font-size="13" lengthAdjust="spacing" textLength="72">addPool()</text><line style="stroke:#181818;stroke-width:2" x1="169" x2="179" y1="595.102" y2="605.102"/><line style="stroke:#181818;stroke-width:2" x1="169" x2="179" y1="605.102" y2="595.102"/><line style="stroke:#181818;stroke-width:1;stroke-dasharray:2,2" x1="175" x2="702.5" y1="600.102" y2="600.102"/><text x="180" y="595.359" fill="#000" font-family="sans-serif" font-size="13" font-weight="bold" lengthAdjust="spacing" textLength="18">31</text><text x="202" y="595.359" fill="#000" font-family="sans-serif" font-size="13" lengthAdjust="spacing" textLength="211">pool for MOOL:BCK already exists</text><line style="stroke:#000;stroke-width:1;stroke-dasharray:2,2" x1="0" x2="1514.5" y1="608.102" y2="608.102"/><rect style="stroke:#00000000;stroke-width:1;fill:none" width="176" height="11.777" x="1337.5" y="5"/><text x="1337.5" y="14.668" fill="#888" font-family="sans-serif" font-size="10" lengthAdjust="spacing" textLength="176">Agoric Systems Operating Company.</text><rect style="stroke:#00000000;stroke-width:1;fill:none" width="55" height="11.777" x="729.25" y="699.59"/><text x="729.25" y="709.258" fill="#888" font-family="sans-serif" font-size="10" lengthAdjust="spacing" textLength="55">Page 1 of 4</text></g></svg>