<svg xmlns="http://www.w3.org/2000/svg" xmlns:xlink="http://www.w3.org/1999/xlink" style="width:1521px;height:1453px;background:#fff" width="1521" height="1453" contentStyleType="text/css" preserveAspectRatio="none" version="1.1" viewBox="0 0 1521 1453" zoomAndPan="magnify"><g><rect style="stroke:#00000000;stroke-width:1;fill:none" width="423" height="26.488" x="545.25" y="22.777"/><text x="550.25" y="41.313" fill="#000" font-family="sans-serif" font-size="14" font-weight="bold" lengthAdjust="spacing" textLength="413">Multipool Auto Swap Sequence Diagram Adding Liquidity</text><rect style="stroke:#181818;stroke-width:.5" width="309.5" height="1376.467" x="763" y="56.266" fill="#DDD"/><text x="905.75" y="68.834" fill="#000" font-family="sans-serif" font-size="13" font-weight="bold" lengthAdjust="spacing" textLength="24">Zoe</text><rect style="stroke:#000;stroke-width:1.5;fill:none" width="985.5" height="75.932" x="211" y="194.065"/><rect style="stroke:#000;stroke-width:1.5;fill:none" width="556" height="75.932" x="211" y="283.996"/><rect style="stroke:#000;stroke-width:1.5;fill:none" width="383.5" height="74.932" x="211" y="373.928"/><rect style="stroke:#000;stroke-width:1.5;fill:none" width="1161.5" height="538.279" x="211" y="462.859"/><rect style="stroke:#000;stroke-width:1.5;fill:none" width="867.5" height="320.106" x="211" y="1015.139"/><line style="stroke:#181818;stroke-width:.5;fill:none;stroke-dasharray:5,5" x1="55" x2="55" y1="131.754" y2="1353.244"/><line style="stroke:#181818;stroke-width:.5;fill:none;stroke-dasharray:5,5" x1="163" x2="163" y1="131.754" y2="1353.244"/><line style="stroke:#181818;stroke-width:.5;fill:none;stroke-dasharray:5,5" x1="256" x2="256" y1="131.754" y2="1353.244"/><line style="stroke:#181818;stroke-width:.5;fill:none;stroke-dasharray:5,5" x1="703" x2="703" y1="131.754" y2="1353.244"/><line style="stroke:#181818;stroke-width:.5;fill:none;stroke-dasharray:5,5" x1="783" x2="783" y1="131.754" y2="1353.244"/><line style="stroke:#181818;stroke-width:.5;fill:none;stroke-dasharray:5,5" x1="1035.5" x2="1035.5" y1="131.754" y2="1353.244"/><line style="stroke:#181818;stroke-width:.5;fill:none;stroke-dasharray:5,5" x1="1132.5" x2="1132.5" y1="131.754" y2="1353.244"/><line style="stroke:#181818;stroke-width:.5;fill:none;stroke-dasharray:5,5" x1="1293.5" x2="1293.5" y1="131.754" y2="1353.244"/><line style="stroke:#181818;stroke-width:.5;fill:none;stroke-dasharray:5,5" x1="1433.5" x2="1433.5" y1="131.754" y2="1353.244"/><text x="5" y="128.801" fill="#000" font-family="sans-serif" font-size="14" lengthAdjust="spacing" textLength="94">MPAS Creator</text><ellipse cx="55" cy="63.766" fill="#0F0" rx="8" ry="8" style="stroke:#181818;stroke-width:.5"/><path fill="none" d="M55,71.7656 L55,98.7656 M42,79.7656 L68,79.7656 M55,98.7656 L42,113.7656 M55,98.7656 L68,113.7656" style="stroke:#181818;stroke-width:.5"/><text x="5" y="1365.779" fill="#000" font-family="sans-serif" font-size="14" lengthAdjust="spacing" textLength="94">MPAS Creator</text><ellipse cx="55" cy="1377.232" fill="#0F0" rx="8" ry="8" style="stroke:#181818;stroke-width:.5"/><path fill="none" d="M55,1385.2324 L55,1412.2324 M42,1393.2324 L68,1393.2324 M55,1412.2324 L42,1427.2324 M55,1412.2324 L68,1427.2324" style="stroke:#181818;stroke-width:.5"/><text x="115" y="128.801" fill="#000" font-family="sans-serif" font-size="14" lengthAdjust="spacing" textLength="90">Pool Adder N</text><ellipse cx="163" cy="63.766" fill="#FF0" rx="8" ry="8" style="stroke:#181818;stroke-width:.5"/><path fill="none" d="M163,71.7656 L163,98.7656 M150,79.7656 L176,79.7656 M163,98.7656 L150,113.7656 M163,98.7656 L176,113.7656" style="stroke:#181818;stroke-width:.5"/><text x="115" y="1365.779" fill="#000" font-family="sans-serif" font-size="14" lengthAdjust="spacing" textLength="90">Pool Adder N</text><ellipse cx="163" cy="1377.232" fill="#FF0" rx="8" ry="8" style="stroke:#181818;stroke-width:.5"/><path fill="none" d="M163,1385.2324 L163,1412.2324 M150,1393.2324 L176,1393.2324 M163,1412.2324 L150,1427.2324 M163,1412.2324 L176,1427.2324" style="stroke:#181818;stroke-width:.5"/><text x="221" y="128.801" fill="#000" font-family="sans-serif" font-size="14" lengthAdjust="spacing" textLength="65">Pool User</text><ellipse cx="256.5" cy="63.766" fill="#E2E2F0" rx="8" ry="8" style="stroke:#181818;stroke-width:.5"/><path fill="none" d="M256.5,71.7656 L256.5,98.7656 M243.5,79.7656 L269.5,79.7656 M256.5,98.7656 L243.5,113.7656 M256.5,98.7656 L269.5,113.7656" style="stroke:#181818;stroke-width:.5"/><text x="221" y="1365.779" fill="#000" font-family="sans-serif" font-size="14" lengthAdjust="spacing" textLength="65">Pool User</text><ellipse cx="256.5" cy="1377.232" fill="#E2E2F0" rx="8" ry="8" style="stroke:#181818;stroke-width:.5"/><path fill="none" d="M256.5,1385.2324 L256.5,1412.2324 M243.5,1393.2324 L269.5,1393.2324 M256.5,1412.2324 L243.5,1427.2324 M256.5,1412.2324 L269.5,1427.2324" style="stroke:#181818;stroke-width:.5"/><text x="650" y="128.801" fill="#000" font-family="sans-serif" font-size="14" lengthAdjust="spacing" textLength="101">MPAS Contract</text><path fill="#E2E2F0" d="M685.5,79.2656 C685.5,69.2656 703.5,69.2656 703.5,69.2656 C703.5,69.2656 721.5,69.2656 721.5,79.2656 L721.5,105.2656 C721.5,115.2656 703.5,115.2656 703.5,115.2656 C703.5,115.2656 685.5,115.2656 685.5,105.2656 L685.5,79.2656" style="stroke:#181818;stroke-width:1.5"/><path fill="none" d="M685.5,79.2656 C685.5,89.2656 703.5,89.2656 703.5,89.2656 C703.5,89.2656 721.5,89.2656 721.5,79.2656" style="stroke:#181818;stroke-width:1.5"/><text x="650" y="1365.779" fill="#000" font-family="sans-serif" font-size="14" lengthAdjust="spacing" textLength="101">MPAS Contract</text><path fill="#E2E2F0" d="M685.5,1378.7324 C685.5,1368.7324 703.5,1368.7324 703.5,1368.7324 C703.5,1368.7324 721.5,1368.7324 721.5,1378.7324 L721.5,1404.7324 C721.5,1414.7324 703.5,1414.7324 703.5,1414.7324 C703.5,1414.7324 685.5,1414.7324 685.5,1404.7324 L685.5,1378.7324" style="stroke:#181818;stroke-width:1.5"/><path fill="none" d="M685.5,1378.7324 C685.5,1388.7324 703.5,1388.7324 703.5,1388.7324 C703.5,1388.7324 721.5,1388.7324 721.5,1378.7324" style="stroke:#181818;stroke-width:1.5"/><text x="767.5" y="128.801" fill="#000" font-family="sans-serif" font-size="14" lengthAdjust="spacing" textLength="25">Zoe</text><ellipse cx="783" cy="99.266" fill="#E2E2F0" rx="12" ry="12" style="stroke:#181818;stroke-width:.5"/><line style="stroke:#181818;stroke-width:.5" x1="771" x2="795" y1="113.266" y2="113.266"/><text x="767.5" y="1365.779" fill="#000" font-family="sans-serif" font-size="14" lengthAdjust="spacing" textLength="25">Zoe</text><ellipse cx="783" cy="1384.732" fill="#E2E2F0" rx="12" ry="12" style="stroke:#181818;stroke-width:.5"/><line style="stroke:#181818;stroke-width:.5" x1="771" x2="795" y1="1398.732" y2="1398.732"/><text x="1003.5" y="128.801" fill="#000" font-family="sans-serif" font-size="14" lengthAdjust="spacing" textLength="59">userSeat</text><ellipse cx="1036" cy="99.266" fill="#E2E2F0" rx="12" ry="12" style="stroke:#181818;stroke-width:.5"/><line style="stroke:#181818;stroke-width:.5" x1="1024" x2="1048" y1="113.266" y2="113.266"/><text x="1003.5" y="1365.779" fill="#000" font-family="sans-serif" font-size="14" lengthAdjust="spacing" textLength="59">userSeat</text><ellipse cx="1036" cy="1384.732" fill="#E2E2F0" rx="12" ry="12" style="stroke:#181818;stroke-width:.5"/><line style="stroke:#181818;stroke-width:.5" x1="1024" x2="1048" y1="1398.732" y2="1398.732"/><text x="1078.5" y="128.801" fill="#000" font-family="sans-serif" font-size="14" lengthAdjust="spacing" textLength="102">Pool SML:BUCK</text><path fill="#E2E2F0" d="M1114.5,79.2656 C1114.5,69.2656 1132.5,69.2656 1132.5,69.2656 C1132.5,69.2656 1150.5,69.2656 1150.5,79.2656 L1150.5,105.2656 C1150.5,115.2656 1132.5,115.2656 1132.5,115.2656 C1132.5,115.2656 1114.5,115.2656 1114.5,105.2656 L1114.5,79.2656" style="stroke:#181818;stroke-width:1.5"/><path fill="none" d="M1114.5,79.2656 C1114.5,89.2656 1132.5,89.2656 1132.5,89.2656 C1132.5,89.2656 1150.5,89.2656 1150.5,79.2656" style="stroke:#181818;stroke-width:1.5"/><text x="1078.5" y="1365.779" fill="#000" font-family="sans-serif" font-size="14" lengthAdjust="spacing" textLength="102">Pool SML:BUCK</text><path fill="#E2E2F0" d="M1114.5,1378.7324 C1114.5,1368.7324 1132.5,1368.7324 1132.5,1368.7324 C1132.5,1368.7324 1150.5,1368.7324 1150.5,1378.7324 L1150.5,1404.7324 C1150.5,1414.7324 1132.5,1414.7324 1132.5,1414.7324 C1132.5,1414.7324 1114.5,1414.7324 1114.5,1404.7324 L1114.5,1378.7324" style="stroke:#181818;stroke-width:1.5"/><path fill="none" d="M1114.5,1378.7324 C1114.5,1388.7324 1132.5,1388.7324 1132.5,1388.7324 C1132.5,1388.7324 1150.5,1388.7324 1150.5,1378.7324" style="stroke:#181818;stroke-width:1.5"/><text x="1224.5" y="128.801" fill="#000" font-family="sans-serif" font-size="14" lengthAdjust="spacing" textLength="132">poolSeat SML:BUCK</text><ellipse cx="1293.5" cy="99.266" fill="#E2E2F0" rx="12" ry="12" style="stroke:#181818;stroke-width:.5"/><line style="stroke:#181818;stroke-width:.5" x1="1281.5" x2="1305.5" y1="113.266" y2="113.266"/><text x="1224.5" y="1365.779" fill="#000" font-family="sans-serif" font-size="14" lengthAdjust="spacing" textLength="132">poolSeat SML:BUCK</text><ellipse cx="1293.5" cy="1384.732" fill="#E2E2F0" rx="12" ry="12" style="stroke:#181818;stroke-width:.5"/><line style="stroke:#181818;stroke-width:.5" x1="1281.5" x2="1305.5" y1="1398.732" y2="1398.732"/><text x="1372.5" y="128.801" fill="#000" font-family="sans-serif" font-size="14" lengthAdjust="spacing" textLength="116">Pool MOOL:BUCK</text><path fill="#E2E2F0" d="M1415.5,79.2656 C1415.5,69.2656 1433.5,69.2656 1433.5,69.2656 C1433.5,69.2656 1451.5,69.2656 1451.5,79.2656 L1451.5,105.2656 C1451.5,115.2656 1433.5,115.2656 1433.5,115.2656 C1433.5,115.2656 1415.5,115.2656 1415.5,105.2656 L1415.5,79.2656" style="stroke:#181818;stroke-width:1.5"/><path fill="none" d="M1415.5,79.2656 C1415.5,89.2656 1433.5,89.2656 1433.5,89.2656 C1433.5,89.2656 1451.5,89.2656 1451.5,79.2656" style="stroke:#181818;stroke-width:1.5"/><text x="1372.5" y="1365.779" fill="#000" font-family="sans-serif" font-size="14" lengthAdjust="spacing" textLength="116">Pool MOOL:BUCK</text><path fill="#E2E2F0" d="M1415.5,1378.7324 C1415.5,1368.7324 1433.5,1368.7324 1433.5,1368.7324 C1433.5,1368.7324 1451.5,1368.7324 1451.5,1378.7324 L1451.5,1404.7324 C1451.5,1414.7324 1433.5,1414.7324 1433.5,1414.7324 C1433.5,1414.7324 1415.5,1414.7324 1415.5,1404.7324 L1415.5,1378.7324" style="stroke:#181818;stroke-width:1.5"/><path fill="none" d="M1415.5,1378.7324 C1415.5,1388.7324 1433.5,1388.7324 1433.5,1388.7324 C1433.5,1388.7324 1451.5,1388.7324 1451.5,1378.7324" style="stroke:#181818;stroke-width:1.5"/><line style="stroke:#000;stroke-width:1;stroke-dasharray:2,2" x1="0" x2="1514.5" y1="142.754" y2="142.754"/><rect style="stroke:#eee;stroke-width:1" width="1514.5" height="3" x="0" y="164.409" fill="#EEE"/><line style="stroke:#000;stroke-width:1" x1="0" x2="1514.5" y1="164.409" y2="164.409"/><line style="stroke:#000;stroke-width:1" x1="0" x2="1514.5" y1="167.409" y2="167.409"/><rect style="stroke:#000;stroke-width:2" width="132" height="23.311" x="691.25" y="153.754" fill="#EEE"/><text x="697.25" y="170.322" fill="#000" font-family="sans-serif" font-size="13" font-weight="bold" lengthAdjust="spacing" textLength="114">Adding Liquidity</text><path fill="#EEE" d="M211,194.0645 L528,194.0645 L528,201.375 L518,211.375 L211,211.375 L211,194.0645" style="stroke:#000;stroke-width:1.5"/><rect style="stroke:#000;stroke-width:1.5" width="985.5" height="75.932" x="211" y="194.065" fill="none"/><text x="226" y="207.633" fill="#000" font-family="sans-serif" font-size="13" font-weight="bold" lengthAdjust="spacing" textLength="272">discover existing proportion of balances</text><polygon fill="#181818" points="1120.5 228.685 1130.5 232.685 1120.5 236.685 1124.5 232.685" style="stroke:#181818;stroke-width:1"/><line style="stroke:#181818;stroke-width:1" x1="256.5" x2="1126.5" y1="232.685" y2="232.685"/><text x="263.5" y="227.943" fill="#000" font-family="sans-serif" font-size="13" font-weight="bold" lengthAdjust="spacing" textLength="27">100</text><text x="294.5" y="227.531" fill="#000" font-family="monospace" font-size="13" lengthAdjust="spacing" textLength="176">getPoolAllocation(SML)</text><polygon fill="#181818" points="267.5 257.996 257.5 261.996 267.5 265.996 263.5 261.996" style="stroke:#181818;stroke-width:1"/><line style="stroke:#181818;stroke-width:1;stroke-dasharray:2,2" x1="261.5" x2="1131.5" y1="261.996" y2="261.996"/><text x="273.5" y="257.254" fill="#000" font-family="sans-serif" font-size="13" font-weight="bold" lengthAdjust="spacing" textLength="27">101</text><text x="304.5" y="256.841" fill="#000" font-family="monospace" font-size="13" lengthAdjust="spacing" textLength="112">poolAllocation</text><path fill="#EEE" d="M211,283.9961 L340,283.9961 L340,291.3066 L330,301.3066 L211,301.3066 L211,283.9961" style="stroke:#000;stroke-width:1.5"/><rect style="stroke:#000;stroke-width:1.5" width="556" height="75.932" x="211" y="283.996" fill="none"/><text x="226" y="297.565" fill="#000" font-family="sans-serif" font-size="13" font-weight="bold" lengthAdjust="spacing" textLength="84">create invite</text><polygon fill="#181818" points="691.5 318.617 701.5 322.617 691.5 326.617 695.5 322.617" style="stroke:#181818;stroke-width:1"/><line style="stroke:#181818;stroke-width:1" x1="256.5" x2="697.5" y1="322.617" y2="322.617"/><text x="263.5" y="317.875" fill="#000" font-family="sans-serif" font-size="13" font-weight="bold" lengthAdjust="spacing" textLength="27">102</text><text x="294.5" y="317.462" fill="#000" font-family="monospace" font-size="13" lengthAdjust="spacing" textLength="208">makeAddLiquidityInvitation</text><polygon fill="#181818" points="267.5 347.928 257.5 351.928 267.5 355.928 263.5 351.928" style="stroke:#181818;stroke-width:1"/><line style="stroke:#181818;stroke-width:1;stroke-dasharray:2,2" x1="261.5" x2="702.5" y1="351.928" y2="351.928"/><text x="273.5" y="347.185" fill="#000" font-family="sans-serif" font-size="13" font-weight="bold" lengthAdjust="spacing" textLength="27">103</text><text x="304.5" y="346.773" fill="#000" font-family="monospace" font-size="13" lengthAdjust="spacing" textLength="80">invitation</text><path fill="#EEE" d="M211,373.9277 L361,373.9277 L361,381.2383 L351,391.2383 L211,391.2383 L211,373.9277" style="stroke:#000;stroke-width:1.5"/><rect style="stroke:#000;stroke-width:1.5" width="383.5" height="74.932" x="211" y="373.928" fill="none"/><text x="226" y="387.496" fill="#000" font-family="sans-serif" font-size="13" font-weight="bold" lengthAdjust="spacing" textLength="105">create proposal</text><line style="stroke:#181818;stroke-width:1" x1="256.5" x2="298.5" y1="427.859" y2="427.859"/><line style="stroke:#181818;stroke-width:1" x1="298.5" x2="298.5" y1="427.859" y2="440.859"/><line style="stroke:#181818;stroke-width:1" x1="257.5" x2="298.5" y1="440.859" y2="440.859"/><polygon fill="#181818" points="267.5 436.859 257.5 440.859 267.5 444.859 263.5 440.859" style="stroke:#181818;stroke-width:1"/><text x="263.5" y="415.462" fill="#000" font-family="sans-serif" font-size="13" font-weight="bold" lengthAdjust="spacing" textLength="27">104</text><text x="294.5" y="407.807" fill="#000" font-family="sans-serif" font-size="13" lengthAdjust="spacing" textLength="40">Create</text><text x="338.5" y="407.483" fill="#000" font-family="monospace" font-size="13" lengthAdjust="spacing" textLength="64">proposal</text><text x="406.5" y="407.807" fill="#000" font-family="sans-serif" font-size="13" lengthAdjust="spacing" textLength="161">to add 1 BUCK, and 1 SML</text><text x="294.5" y="423.117" fill="#000" font-family="sans-serif" font-size="13" lengthAdjust="spacing" textLength="62">at ratio of</text><text x="360.5" y="422.793" fill="#000" font-family="monospace" font-size="13" lengthAdjust="spacing" textLength="112">poolAllocation</text><text x="476.5" y="423.117" fill="#000" font-family="sans-serif" font-size="13" lengthAdjust="spacing" textLength="30">for X</text><text x="510.5" y="422.793" fill="#000" font-family="monospace" font-size="13" lengthAdjust="spacing" textLength="72">liquidity</text><path fill="#EEE" d="M211,462.8594 L362,462.8594 L362,470.1699 L352,480.1699 L211,480.1699 L211,462.8594" style="stroke:#000;stroke-width:1.5"/><rect style="stroke:#000;stroke-width:1.5" width="1161.5" height="538.279" x="211" y="462.859" fill="none"/><text x="226" y="476.428" fill="#000" font-family="sans-serif" font-size="13" font-weight="bold" lengthAdjust="spacing" textLength="106">withdraw funds</text><line style="stroke:#181818;stroke-width:1" x1="256.5" x2="298.5" y1="501.481" y2="501.481"/><line style="stroke:#181818;stroke-width:1" x1="298.5" x2="298.5" y1="501.481" y2="514.481"/><line style="stroke:#181818;stroke-width:1" x1="257.5" x2="298.5" y1="514.481" y2="514.481"/><polygon fill="#181818" points="267.5 510.481 257.5 514.481 267.5 518.481 263.5 514.481" style="stroke:#181818;stroke-width:1"/><text x="263.5" y="496.738" fill="#000" font-family="sans-serif" font-size="13" font-weight="bold" lengthAdjust="spacing" textLength="27">105</text><text x="294.5" y="496.738" fill="#000" font-family="sans-serif" font-size="13" lengthAdjust="spacing" textLength="119">withdraw funds for</text><text x="417.5" y="496.415" fill="#000" font-family="monospace" font-size="13" lengthAdjust="spacing" textLength="32">BUCK</text><text x="453.5" y="496.738" fill="#000" font-family="sans-serif" font-size="13" lengthAdjust="spacing" textLength="25">into</text><text x="482.5" y="496.415" fill="#000" font-family="monospace" font-size="13" lengthAdjust="spacing" textLength="64">payments</text><text x="550.5" y="496.738" fill="#000" font-family="sans-serif" font-size="13" lengthAdjust="spacing" textLength="40">record</text><line style="stroke:#181818;stroke-width:1" x1="256.5" x2="298.5" y1="543.791" y2="543.791"/><line style="stroke:#181818;stroke-width:1" x1="298.5" x2="298.5" y1="543.791" y2="556.791"/><line style="stroke:#181818;stroke-width:1" x1="257.5" x2="298.5" y1="556.791" y2="556.791"/><polygon fill="#181818" points="267.5 552.791 257.5 556.791 267.5 560.791 263.5 556.791" style="stroke:#181818;stroke-width:1"/><text x="263.5" y="539.049" fill="#000" font-family="sans-serif" font-size="13" font-weight="bold" lengthAdjust="spacing" textLength="27">106</text><text x="294.5" y="539.049" fill="#000" font-family="sans-serif" font-size="13" lengthAdjust="spacing" textLength="119">withdraw funds for</text><text x="417.5" y="538.725" fill="#000" font-family="monospace" font-size="13" lengthAdjust="spacing" textLength="24">SML</text><text x="445.5" y="539.049" fill="#000" font-family="sans-serif" font-size="13" lengthAdjust="spacing" textLength="25">into</text><text x="474.5" y="538.725" fill="#000" font-family="monospace" font-size="13" lengthAdjust="spacing" textLength="64">payments</text><text x="542.5" y="539.049" fill="#000" font-family="sans-serif" font-size="13" lengthAdjust="spacing" textLength="40">record</text><polygon fill="#181818" points="771 582.102 781 586.102 771 590.102 775 586.102" style="stroke:#181818;stroke-width:1"/><line style="stroke:#181818;stroke-width:1" x1="256.5" x2="777" y1="586.102" y2="586.102"/><text x="263.5" y="581.359" fill="#000" font-family="sans-serif" font-size="13" font-weight="bold" lengthAdjust="spacing" textLength="27">107</text><text x="294.5" y="580.947" fill="#000" font-family="monospace" font-size="13" lengthAdjust="spacing" textLength="296">offer(invitation, proposal, payments)</text><line style="stroke:#181818;stroke-width:1" x1="783" x2="825" y1="615.412" y2="615.412"/><line style="stroke:#181818;stroke-width:1" x1="825" x2="825" y1="615.412" y2="628.412"/><line style="stroke:#181818;stroke-width:1" x1="784" x2="825" y1="628.412" y2="628.412"/><polygon fill="#181818" points="794 624.412 784 628.412 794 632.412 790 628.412" style="stroke:#181818;stroke-width:1"/><text x="790" y="610.67" fill="#000" font-family="sans-serif" font-size="13" font-weight="bold" lengthAdjust="spacing" textLength="27">108</text><text x="821" y="610.67" fill="#000" font-family="sans-serif" font-size="13" lengthAdjust="spacing" textLength="83">validate offer</text><polygon fill="#181818" points="1024 653.723 1034 657.723 1024 661.723 1028 657.723" style="stroke:#181818;stroke-width:1"/><line style="stroke:#181818;stroke-width:1" x1="783" x2="1030" y1="657.723" y2="657.723"/><text x="790" y="652.981" fill="#000" font-family="sans-serif" font-size="13" font-weight="bold" lengthAdjust="spacing" textLength="27">109</text><text x="821" y="652.981" fill="#000" font-family="sans-serif" font-size="13" lengthAdjust="spacing" textLength="38">create</text><text x="863" y="652.657" fill="#000" font-family="monospace" font-size="13" lengthAdjust="spacing" textLength="64">userSeat</text><polygon fill="#181818" points="794 683.033 784 687.033 794 691.033 790 687.033" style="stroke:#181818;stroke-width:1"/><line style="stroke:#181818;stroke-width:1;stroke-dasharray:2,2" x1="788" x2="1035" y1="687.033" y2="687.033"/><text x="800" y="682.291" fill="#000" font-family="sans-serif" font-size="13" font-weight="bold" lengthAdjust="spacing" textLength="27">110</text><text x="831" y="681.878" fill="#000" font-family="monospace" font-size="13" lengthAdjust="spacing" textLength="64">userSeat</text><polygon fill="#181818" points="1120.5 712.344 1130.5 716.344 1120.5 720.344 1124.5 716.344" style="stroke:#181818;stroke-width:1"/><line style="stroke:#181818;stroke-width:1" x1="783" x2="1126.5" y1="716.344" y2="716.344"/><text x="790" y="711.602" fill="#000" font-family="sans-serif" font-size="13" font-weight="bold" lengthAdjust="spacing" textLength="27">111</text><text x="821" y="711.189" fill="#000" font-family="monospace" font-size="13" lengthAdjust="spacing" textLength="104">getPoolSeat()</text><polygon fill="#181818" points="1281.5 741.654 1291.5 745.654 1281.5 749.654 1285.5 745.654" style="stroke:#181818;stroke-width:1"/><line style="stroke:#181818;stroke-width:1" x1="1132.5" x2="1287.5" y1="745.654" y2="745.654"/><text x="1139.5" y="740.912" fill="#000" font-family="sans-serif" font-size="13" font-weight="bold" lengthAdjust="spacing" textLength="27">112</text><text x="1170.5" y="740.912" fill="#000" font-family="sans-serif" font-size="13" lengthAdjust="spacing" textLength="38">create</text><text x="1212.5" y="740.588" fill="#000" font-family="monospace" font-size="13" lengthAdjust="spacing" textLength="64">poolSeat</text><polygon fill="#181818" points="794 770.965 784 774.965 794 778.965 790 774.965" style="stroke:#181818;stroke-width:1"/><line style="stroke:#181818;stroke-width:1;stroke-dasharray:2,2" x1="788" x2="1292.5" y1="774.965" y2="774.965"/><text x="800" y="770.223" fill="#000" font-family="sans-serif" font-size="13" font-weight="bold" lengthAdjust="spacing" textLength="27">113</text><text x="831" y="769.81" fill="#000" font-family="monospace" font-size="13" lengthAdjust="spacing" textLength="64">poolSeat</text><polygon fill="#181818" points="1281.5 800.275 1291.5 804.275 1281.5 808.275 1285.5 804.275" style="stroke:#181818;stroke-width:1"/><line style="stroke:#181818;stroke-width:1" x1="783" x2="1287.5" y1="804.275" y2="804.275"/><text x="790" y="799.533" fill="#000" font-family="sans-serif" font-size="13" font-weight="bold" lengthAdjust="spacing" textLength="27">114</text><text x="821" y="799.121" fill="#000" font-family="monospace" font-size="13" lengthAdjust="spacing" textLength="96">addLiquidity</text><polygon fill="#181818" points="1281.5 829.586 1291.5 833.586 1281.5 837.586 1285.5 833.586" style="stroke:#181818;stroke-width:1"/><line style="stroke:#181818;stroke-width:1" x1="703.5" x2="1287.5" y1="833.586" y2="833.586"/><text x="710.5" y="828.844" fill="#000" font-family="sans-serif" font-size="13" font-weight="bold" lengthAdjust="spacing" textLength="27">115</text><text x="741.5" y="828.844" fill="#000" font-family="sans-serif" font-size="13" lengthAdjust="spacing" textLength="78">stage assets</text><polygon fill="#181818" points="1024 858.896 1034 862.896 1024 866.896 1028 862.896" style="stroke:#181818;stroke-width:1"/><line style="stroke:#181818;stroke-width:1" x1="703.5" x2="1030" y1="862.896" y2="862.896"/><text x="710.5" y="858.154" fill="#000" font-family="sans-serif" font-size="13" font-weight="bold" lengthAdjust="spacing" textLength="27">116</text><text x="741.5" y="858.154" fill="#000" font-family="sans-serif" font-size="13" lengthAdjust="spacing" textLength="78">stage assets</text><line style="stroke:#181818;stroke-width:1" x1="783" x2="825" y1="892.207" y2="892.207"/><line style="stroke:#181818;stroke-width:1" x1="825" x2="825" y1="892.207" y2="905.207"/><line style="stroke:#181818;stroke-width:1" x1="784" x2="825" y1="905.207" y2="905.207"/><polygon fill="#181818" points="794 901.207 784 905.207 794 909.207 790 905.207" style="stroke:#181818;stroke-width:1"/><text x="790" y="887.465" fill="#000" font-family="sans-serif" font-size="13" font-weight="bold" lengthAdjust="spacing" textLength="27">117</text><text x="821" y="887.052" fill="#000" font-family="monospace" font-size="13" lengthAdjust="spacing" textLength="208">reallocate(seat, poolSeat)</text><polygon fill="#181818" points="267.5 930.518 257.5 934.518 267.5 938.518 263.5 934.518" style="stroke:#181818;stroke-width:1"/><line style="stroke:#181818;stroke-width:1;stroke-dasharray:2,2" x1="261.5" x2="1035" y1="934.518" y2="934.518"/><text x="273.5" y="929.775" fill="#000" font-family="sans-serif" font-size="13" font-weight="bold" lengthAdjust="spacing" textLength="27">118</text><text x="304.5" y="929.363" fill="#000" font-family="monospace" font-size="13" lengthAdjust="spacing" textLength="64">userSeat</text><polygon fill="#181818" points="771 959.828 781 963.828 771 967.828 775 963.828" style="stroke:#181818;stroke-width:1"/><line style="stroke:#181818;stroke-width:1" x1="256.5" x2="777" y1="963.828" y2="963.828"/><text x="263.5" y="959.086" fill="#000" font-family="sans-serif" font-size="13" font-weight="bold" lengthAdjust="spacing" textLength="27">119</text><text x="294.5" y="958.673" fill="#000" font-family="monospace" font-size="13" lengthAdjust="spacing" textLength="128">getOfferResult()</text><polygon fill="#181818" points="267.5 989.139 257.5 993.139 267.5 997.139 263.5 993.139" style="stroke:#181818;stroke-width:1"/><line style="stroke:#181818;stroke-width:1;stroke-dasharray:2,2" x1="261.5" x2="782" y1="993.139" y2="993.139"/><text x="273.5" y="988.396" fill="#000" font-family="sans-serif" font-size="13" font-weight="bold" lengthAdjust="spacing" textLength="27">120</text><text x="304.5" y="988.396" fill="#000" font-family="sans-serif" font-size="13" lengthAdjust="spacing" textLength="168">result of failure or success</text><path fill="#EEE" d="M211,1015.1387 L372,1015.1387 L372,1022.4492 L362,1032.4492 L211,1032.4492 L211,1015.1387" style="stroke:#000;stroke-width:1.5"/><rect style="stroke:#000;stroke-width:1.5" width="867.5" height="320.106" x="211" y="1015.139" fill="none"/><text x="226" y="1028.707" fill="#000" font-family="sans-serif" font-size="13" font-weight="bold" lengthAdjust="spacing" textLength="116">recovering funds</text><polygon fill="#181818" points="1024 1049.76 1034 1053.76 1024 1057.76 1028 1053.76" style="stroke:#181818;stroke-width:1"/><line style="stroke:#181818;stroke-width:1" x1="256.5" x2="1030" y1="1053.76" y2="1053.76"/><text x="263.5" y="1049.018" fill="#000" font-family="sans-serif" font-size="13" font-weight="bold" lengthAdjust="spacing" textLength="27">121</text><text x="294.5" y="1048.694" fill="#000" font-family="monospace" font-size="13" lengthAdjust="spacing" textLength="160">getPayout(&quot;Central&quot;)</text><text x="458.5" y="1049.018" fill="#000" font-family="sans-serif" font-size="13" lengthAdjust="spacing" textLength="34">(give)</text><polygon fill="#181818" points="267.5 1079.07 257.5 1083.07 267.5 1087.07 263.5 1083.07" style="stroke:#181818;stroke-width:1"/><line style="stroke:#181818;stroke-width:1;stroke-dasharray:2,2" x1="261.5" x2="1035" y1="1083.07" y2="1083.07"/><text x="273.5" y="1078.328" fill="#000" font-family="sans-serif" font-size="13" font-weight="bold" lengthAdjust="spacing" textLength="27">122</text><text x="304.5" y="1077.916" fill="#000" font-family="monospace" font-size="13" lengthAdjust="spacing" textLength="104">payoutCentral</text><line style="stroke:#181818;stroke-width:1" x1="256.5" x2="298.5" y1="1112.381" y2="1112.381"/><line style="stroke:#181818;stroke-width:1" x1="298.5" x2="298.5" y1="1112.381" y2="1125.381"/><line style="stroke:#181818;stroke-width:1" x1="257.5" x2="298.5" y1="1125.381" y2="1125.381"/><polygon fill="#181818" points="267.5 1121.381 257.5 1125.381 267.5 1129.381 263.5 1125.381" style="stroke:#181818;stroke-width:1"/><text x="263.5" y="1107.639" fill="#000" font-family="sans-serif" font-size="13" font-weight="bold" lengthAdjust="spacing" textLength="27">123</text><text x="294.5" y="1107.639" fill="#000" font-family="sans-serif" font-size="13" lengthAdjust="spacing" textLength="47">deposit</text><text x="345.5" y="1107.315" fill="#000" font-family="monospace" font-size="13" lengthAdjust="spacing" textLength="104">payoutCentral</text><text x="453.5" y="1107.639" fill="#000" font-family="sans-serif" font-size="13" lengthAdjust="spacing" textLength="64">into purse</text><polygon fill="#181818" points="1024 1150.691 1034 1154.691 1024 1158.691 1028 1154.691" style="stroke:#181818;stroke-width:1"/><line style="stroke:#181818;stroke-width:1" x1="256.5" x2="1030" y1="1154.691" y2="1154.691"/><text x="263.5" y="1149.949" fill="#000" font-family="sans-serif" font-size="13" font-weight="bold" lengthAdjust="spacing" textLength="27">124</text><text x="294.5" y="1149.626" fill="#000" font-family="monospace" font-size="13" lengthAdjust="spacing" textLength="176">getPayout(&quot;Secondary&quot;)</text><text x="474.5" y="1149.949" fill="#000" font-family="sans-serif" font-size="13" lengthAdjust="spacing" textLength="34">(give)</text><polygon fill="#181818" points="267.5 1180.002 257.5 1184.002 267.5 1188.002 263.5 1184.002" style="stroke:#181818;stroke-width:1"/><line style="stroke:#181818;stroke-width:1;stroke-dasharray:2,2" x1="261.5" x2="1035" y1="1184.002" y2="1184.002"/><text x="273.5" y="1179.26" fill="#000" font-family="sans-serif" font-size="13" font-weight="bold" lengthAdjust="spacing" textLength="27">125</text><text x="304.5" y="1178.847" fill="#000" font-family="monospace" font-size="13" lengthAdjust="spacing" textLength="120">payoutSecondary</text><line style="stroke:#181818;stroke-width:1" x1="256.5" x2="298.5" y1="1213.313" y2="1213.313"/><line style="stroke:#181818;stroke-width:1" x1="298.5" x2="298.5" y1="1213.313" y2="1226.313"/><line style="stroke:#181818;stroke-width:1" x1="257.5" x2="298.5" y1="1226.313" y2="1226.313"/><polygon fill="#181818" points="267.5 1222.313 257.5 1226.313 267.5 1230.313 263.5 1226.313" style="stroke:#181818;stroke-width:1"/><text x="263.5" y="1208.57" fill="#000" font-family="sans-serif" font-size="13" font-weight="bold" lengthAdjust="spacing" textLength="27">126</text><text x="294.5" y="1208.57" fill="#000" font-family="sans-serif" font-size="13" lengthAdjust="spacing" textLength="47">deposit</text><text x="345.5" y="1208.247" fill="#000" font-family="monospace" font-size="13" lengthAdjust="spacing" textLength="120">payoutSecondary</text><text x="469.5" y="1208.57" fill="#000" font-family="sans-serif" font-size="13" lengthAdjust="spacing" textLength="64">into purse</text><polygon fill="#181818" points="1024 1251.623 1034 1255.623 1024 1259.623 1028 1255.623" style="stroke:#181818;stroke-width:1"/><line style="stroke:#181818;stroke-width:1" x1="256.5" x2="1030" y1="1255.623" y2="1255.623"/><text x="263.5" y="1250.881" fill="#000" font-family="sans-serif" font-size="13" font-weight="bold" lengthAdjust="spacing" textLength="27">127</text><text x="294.5" y="1250.557" fill="#000" font-family="monospace" font-size="13" lengthAdjust="spacing" textLength="176">getPayout(&quot;Liquidity&quot;)</text><text x="474.5" y="1250.881" fill="#000" font-family="sans-serif" font-size="13" lengthAdjust="spacing" textLength="38">(want)</text><polygon fill="#181818" points="267.5 1280.934 257.5 1284.934 267.5 1288.934 263.5 1284.934" style="stroke:#181818;stroke-width:1"/><line style="stroke:#181818;stroke-width:1;stroke-dasharray:2,2" x1="261.5" x2="1035" y1="1284.934" y2="1284.934"/><text x="273.5" y="1280.191" fill="#000" font-family="sans-serif" font-size="13" font-weight="bold" lengthAdjust="spacing" textLength="27">128</text><text x="304.5" y="1279.779" fill="#000" font-family="monospace" font-size="13" lengthAdjust="spacing" textLength="120">payoutLiquidity</text><line style="stroke:#181818;stroke-width:1" x1="256.5" x2="298.5" y1="1314.244" y2="1314.244"/><line style="stroke:#181818;stroke-width:1" x1="298.5" x2="298.5" y1="1314.244" y2="1327.244"/><line style="stroke:#181818;stroke-width:1" x1="257.5" x2="298.5" y1="1327.244" y2="1327.244"/><polygon fill="#181818" points="267.5 1323.244 257.5 1327.244 267.5 1331.244 263.5 1327.244" style="stroke:#181818;stroke-width:1"/><text x="263.5" y="1309.502" fill="#000" font-family="sans-serif" font-size="13" font-weight="bold" lengthAdjust="spacing" textLength="27">129</text><text x="294.5" y="1309.502" fill="#000" font-family="sans-serif" font-size="13" lengthAdjust="spacing" textLength="47">deposit</text><text x="345.5" y="1309.178" fill="#000" font-family="monospace" font-size="13" lengthAdjust="spacing" textLength="120">payoutLiquidity</text><text x="469.5" y="1309.502" fill="#000" font-family="sans-serif" font-size="13" lengthAdjust="spacing" textLength="64">into purse</text><line style="stroke:#000;stroke-width:1;stroke-dasharray:2,2" x1="0" x2="1514.5" y1="1342.244" y2="1342.244"/><rect style="stroke:#00000000;stroke-width:1;fill:none" width="176" height="11.777" x="1337.5" y="5"/><text x="1337.5" y="14.668" fill="#888" font-family="sans-serif" font-size="10" lengthAdjust="spacing" textLength="176">Agoric Systems Operating Company.</text><rect style="stroke:#00000000;stroke-width:1;fill:none" width="55" height="11.777" x="729.25" y="1433.732"/><text x="729.25" y="1443.4" fill="#888" font-family="sans-serif" font-size="10" lengthAdjust="spacing" textLength="55">Page 3 of 4</text></g></svg>