<svg xmlns="http://www.w3.org/2000/svg" xmlns:xlink="http://www.w3.org/1999/xlink" width="336" height="296" viewBox="0 0 251.61 221.6"><g id="graph0" class="graph" transform="scale(1 1) rotate(0) translate(4 217.6)"><title>G</title><polygon fill="#fff" stroke="transparent" points="-4 4 -4 -217.6 247.607 -217.6 247.607 4 -4 4"/><g id="node1" class="node"><title>idle</title><ellipse cx="63.847" cy="-195.6" fill="none" stroke="#000" rx="27" ry="18"/><text x="63.847" y="-191.4" fill="#000" font-family="Times,serif" font-size="14" text-anchor="middle">idle</text></g><g id="edge1" class="edge"><title>idle-&gt;idle</title><path fill="none" stroke="#000" d="M88.3794,-203.7211C99.3548,-204.4945 108.847,-201.7875 108.847,-195.6 108.847,-191.4428 104.562,-188.8567 98.4213,-187.8417"/><polygon fill="#000" stroke="#000" points="98.499 -184.342 88.379 -187.479 98.246 -191.338 98.499 -184.342"/><text x="133.344" y="-191.4" fill="#000" font-family="Times,serif" font-size="14" text-anchor="middle">snapshot</text></g><g id="node2" class="node"><title>running</title><ellipse cx="63.847" cy="-106.8" fill="none" stroke="#000" rx="41.155" ry="18"/><text x="63.847" y="-102.6" fill="#000" font-family="Times,serif" font-size="14" text-anchor="middle">running</text></g><g id="edge2" class="edge"><title>idle-&gt;running</title><path fill="none" stroke="#000" d="M39.2512,-187.8383C25.98,-182.251 10.7623,-173.251 2.976,-159.6 -5.3284,-145.0406 7.4736,-132.544 23.4447,-123.3684"/><polygon fill="#000" stroke="#000" points="25.288 -126.354 32.53 -118.621 22.046 -120.15 25.288 -126.354"/><text x="23.282" y="-147" fill="#000" font-family="Times,serif" font-size="14" text-anchor="middle">rx:eval</text></g><g id="edge3" class="edge"><title>idle-&gt;running</title><path fill="none" stroke="#000" d="M63.847,-177.2006C63.847,-165.0949 63.847,-149.0076 63.847,-135.2674"/><polygon fill="#000" stroke="#000" points="67.347 -134.872 63.847 -124.872 60.347 -134.872 67.347 -134.872"/><text x="119.449" y="-147" fill="#000" font-family="Times,serif" font-size="14" text-anchor="middle">rx:handleCommand</text></g><g id="edge6" class="edge"><title>running-&gt;idle</title><path fill="none" stroke="#000" d="M103.799,-111.1516C143.8549,-117.2058 196.8042,-130.8505 175.847,-159.6 166.726,-172.1124 129.1205,-182.4317 99.9716,-188.7665"/><polygon fill="#000" stroke="#000" points="99.145 -185.363 90.075 -190.838 100.579 -192.215 99.145 -185.363"/><text x="211.727" y="-147" fill="#000" font-family="Times,serif" font-size="14" text-anchor="middle">tx:response</text></g><g id="node3" class="node"><title>sysCalling</title><ellipse cx="63.847" cy="-18" fill="none" stroke="#000" rx="51.623" ry="18"/><text x="63.847" y="-13.8" fill="#000" font-family="Times,serif" font-size="14" text-anchor="middle">sysCalling</text></g><g id="edge4" class="edge"><title>running-&gt;sysCalling</title><path fill="none" stroke="#000" d="M31.5205,-95.5555C20.3696,-89.9441 9.0931,-81.9181 2.739,-70.8 -5.0539,-57.1644 5.6727,-45.3526 20.2039,-36.3791"/><polygon fill="#000" stroke="#000" points="22.055 -39.355 29.088 -31.431 18.649 -33.239 22.055 -39.355"/><text x="53.401" y="-58.2" fill="#000" font-family="Times,serif" font-size="14" text-anchor="middle">tx:issueCommand</text></g><g id="edge5" class="edge"><title>sysCalling-&gt;running</title><path fill="none" stroke="#000" d="M88.0688,-34.0849C99.6785,-43.9469 109.8825,-57.2481 103.847,-70.8 101.5664,-75.9208 98.1575,-80.6187 94.2746,-84.8108"/><polygon fill="#000" stroke="#000" points="91.761 -82.371 86.915 -91.792 96.579 -87.45 91.761 -82.371"/><text x="137.112" y="-58.2" fill="#000" font-family="Times,serif" font-size="14" text-anchor="middle">rx:response</text></g></g></svg>