<svg xmlns="http://www.w3.org/2000/svg" xmlns:xlink="http://www.w3.org/1999/xlink" style="width:431px;height:448px;background:#fff" width="431" height="448" contentStyleType="text/css" preserveAspectRatio="none" version="1.1" viewBox="0 0 431 448" zoomAndPan="magnify"><g><rect style="stroke:#00000000;stroke-width:1;fill:none" width="216" height="26.488" x="103.75" y="22.777"/><text x="108.75" y="41.313" fill="#000" font-family="sans-serif" font-size="14" font-weight="bold" lengthAdjust="spacing" textLength="206">Pegasus Agoric Peg example</text><rect style="stroke:#181818;stroke-width:.5" width="259.5" height="371.15" x="1" y="56.266" fill="#DDD"/><text x="108.75" y="68.834" fill="#000" font-family="sans-serif" font-size="13" font-weight="bold" lengthAdjust="spacing" textLength="44">Agoric</text><rect style="stroke:#181818;stroke-width:.5" width="109" height="371.15" x="314.5" y="56.266" fill="#DDD"/><text x="354" y="68.834" fill="#000" font-family="sans-serif" font-size="13" font-weight="bold" lengthAdjust="spacing" textLength="30">Gaia</text><line style="stroke:#181818;stroke-width:.5;stroke-dasharray:5,5" x1="26" x2="26" y1="152.065" y2="347.928"/><line style="stroke:#181818;stroke-width:.5;stroke-dasharray:5,5" x1="128.5" x2="128.5" y1="152.065" y2="347.928"/><line style="stroke:#181818;stroke-width:.5;stroke-dasharray:5,5" x1="231.5" x2="231.5" y1="152.065" y2="347.928"/><line style="stroke:#181818;stroke-width:.5;stroke-dasharray:5,5" x1="287.5" x2="287.5" y1="152.065" y2="347.928"/><line style="stroke:#181818;stroke-width:.5;stroke-dasharray:5,5" x1="342.5" x2="342.5" y1="152.065" y2="347.928"/><line style="stroke:#181818;stroke-width:.5;stroke-dasharray:5,5" x1="398.5" x2="398.5" y1="152.065" y2="347.928"/><text x="5" y="149.111" fill="#000" font-family="sans-serif" font-size="14" lengthAdjust="spacing" textLength="36">BobA</text><ellipse cx="26" cy="84.076" fill="#E2E2F0" rx="8" ry="8" style="stroke:#181818;stroke-width:.5"/><path fill="none" d="M26,92.0762 L26,119.0762 M13,100.0762 L39,100.0762 M26,119.0762 L13,134.0762 M26,119.0762 L39,134.0762" style="stroke:#181818;stroke-width:.5"/><text x="5" y="360.463" fill="#000" font-family="sans-serif" font-size="14" lengthAdjust="spacing" textLength="36">BobA</text><ellipse cx="26" cy="371.916" fill="#E2E2F0" rx="8" ry="8" style="stroke:#181818;stroke-width:.5"/><path fill="none" d="M26,379.916 L26,406.916 M13,387.916 L39,387.916 M26,406.916 L13,421.916 M26,406.916 L39,421.916" style="stroke:#181818;stroke-width:.5"/><text x="94.5" y="149.111" fill="#000" font-family="sans-serif" font-size="14" lengthAdjust="spacing" textLength="63">SimpleEx</text><ellipse cx="129" cy="119.576" fill="#E2E2F0" rx="12" ry="12" style="stroke:#181818;stroke-width:.5"/><line style="stroke:#181818;stroke-width:.5" x1="117" x2="141" y1="133.576" y2="133.576"/><text x="94.5" y="360.463" fill="#000" font-family="sans-serif" font-size="14" lengthAdjust="spacing" textLength="63">SimpleEx</text><ellipse cx="129" cy="379.416" fill="#E2E2F0" rx="12" ry="12" style="stroke:#181818;stroke-width:.5"/><line style="stroke:#181818;stroke-width:.5" x1="117" x2="141" y1="393.416" y2="393.416"/><text x="207.5" y="149.111" fill="#000" font-family="sans-serif" font-size="14" lengthAdjust="spacing" textLength="43">AliceA</text><ellipse cx="232" cy="84.076" fill="#E2E2F0" rx="8" ry="8" style="stroke:#181818;stroke-width:.5"/><path fill="none" d="M232,92.0762 L232,119.0762 M219,100.0762 L245,100.0762 M232,119.0762 L219,134.0762 M232,119.0762 L245,134.0762" style="stroke:#181818;stroke-width:.5"/><text x="207.5" y="360.463" fill="#000" font-family="sans-serif" font-size="14" lengthAdjust="spacing" textLength="43">AliceA</text><ellipse cx="232" cy="371.916" fill="#E2E2F0" rx="8" ry="8" style="stroke:#181818;stroke-width:.5"/><path fill="none" d="M232,379.916 L232,406.916 M219,387.916 L245,387.916 M232,406.916 L219,421.916 M232,406.916 L245,421.916" style="stroke:#181818;stroke-width:.5"/><text x="266.5" y="149.111" fill="#000" font-family="sans-serif" font-size="14" lengthAdjust="spacing" textLength="36">Relay</text><ellipse cx="287.5" cy="119.576" fill="#E2E2F0" rx="12" ry="12" style="stroke:#181818;stroke-width:.5"/><line style="stroke:#181818;stroke-width:.5" x1="275.5" x2="299.5" y1="133.576" y2="133.576"/><text x="266.5" y="360.463" fill="#000" font-family="sans-serif" font-size="14" lengthAdjust="spacing" textLength="36">Relay</text><ellipse cx="287.5" cy="379.416" fill="#E2E2F0" rx="12" ry="12" style="stroke:#181818;stroke-width:.5"/><line style="stroke:#181818;stroke-width:.5" x1="275.5" x2="299.5" y1="393.416" y2="393.416"/><text x="318.5" y="149.111" fill="#000" font-family="sans-serif" font-size="14" lengthAdjust="spacing" textLength="43">AliceG</text><ellipse cx="343" cy="84.076" fill="#E2E2F0" rx="8" ry="8" style="stroke:#181818;stroke-width:.5"/><path fill="none" d="M343,92.0762 L343,119.0762 M330,100.0762 L356,100.0762 M343,119.0762 L330,134.0762 M343,119.0762 L356,134.0762" style="stroke:#181818;stroke-width:.5"/><text x="318.5" y="360.463" fill="#000" font-family="sans-serif" font-size="14" lengthAdjust="spacing" textLength="43">AliceG</text><ellipse cx="343" cy="371.916" fill="#E2E2F0" rx="8" ry="8" style="stroke:#181818;stroke-width:.5"/><path fill="none" d="M343,379.916 L343,406.916 M330,387.916 L356,387.916 M343,406.916 L330,421.916 M343,406.916 L356,421.916" style="stroke:#181818;stroke-width:.5"/><text x="377.5" y="149.111" fill="#000" font-family="sans-serif" font-size="14" lengthAdjust="spacing" textLength="36">BobG</text><ellipse cx="398.5" cy="84.076" fill="#E2E2F0" rx="8" ry="8" style="stroke:#181818;stroke-width:.5"/><path fill="none" d="M398.5,92.0762 L398.5,119.0762 M385.5,100.0762 L411.5,100.0762 M398.5,119.0762 L385.5,134.0762 M398.5,119.0762 L411.5,134.0762" style="stroke:#181818;stroke-width:.5"/><text x="377.5" y="360.463" fill="#000" font-family="sans-serif" font-size="14" lengthAdjust="spacing" textLength="36">BobG</text><ellipse cx="398.5" cy="371.916" fill="#E2E2F0" rx="8" ry="8" style="stroke:#181818;stroke-width:.5"/><path fill="none" d="M398.5,379.916 L398.5,406.916 M385.5,387.916 L411.5,387.916 M398.5,406.916 L385.5,421.916 M398.5,406.916 L411.5,421.916" style="stroke:#181818;stroke-width:.5"/><polygon fill="#181818" points="243 179.375 233 183.375 243 187.375 239 183.375" style="stroke:#181818;stroke-width:1"/><line style="stroke:#181818;stroke-width:1" x1="237" x2="342" y1="183.375" y2="183.375"/><text x="249" y="178.633" fill="#000" font-family="sans-serif" font-size="13" font-weight="bold" lengthAdjust="spacing" textLength="9">1</text><text x="262" y="178.633" fill="#000" font-family="sans-serif" font-size="13" lengthAdjust="spacing" textLength="62">100 Atom</text><polygon fill="#181818" points="140 208.685 130 212.685 140 216.685 136 212.685" style="stroke:#181818;stroke-width:1"/><line style="stroke:#181818;stroke-width:1" x1="134" x2="231" y1="212.685" y2="212.685"/><text x="146" y="207.943" fill="#000" font-family="sans-serif" font-size="13" font-weight="bold" lengthAdjust="spacing" textLength="9">2</text><text x="159" y="207.943" fill="#000" font-family="sans-serif" font-size="13" lengthAdjust="spacing" textLength="54">75 Atom</text><polygon fill="#181818" points="117 237.996 127 241.996 117 245.996 121 241.996" style="stroke:#181818;stroke-width:1"/><line style="stroke:#181818;stroke-width:1" x1="26" x2="123" y1="241.996" y2="241.996"/><text x="33" y="237.254" fill="#000" font-family="sans-serif" font-size="13" font-weight="bold" lengthAdjust="spacing" textLength="9">3</text><text x="46" y="237.254" fill="#000" font-family="sans-serif" font-size="13" lengthAdjust="spacing" textLength="66">200 Moola</text><polygon fill="#181818" points="220 267.307 230 271.307 220 275.307 224 271.307" style="stroke:#181818;stroke-width:1"/><line style="stroke:#181818;stroke-width:1" x1="129" x2="226" y1="271.307" y2="271.307"/><text x="136" y="266.565" fill="#000" font-family="sans-serif" font-size="13" font-weight="bold" lengthAdjust="spacing" textLength="9">4</text><text x="149" y="266.565" fill="#000" font-family="sans-serif" font-size="13" lengthAdjust="spacing" textLength="66">200 Moola</text><polygon fill="#181818" points="37 296.617 27 300.617 37 304.617 33 300.617" style="stroke:#181818;stroke-width:1"/><line style="stroke:#181818;stroke-width:1" x1="31" x2="128" y1="300.617" y2="300.617"/><text x="43" y="295.875" fill="#000" font-family="sans-serif" font-size="13" font-weight="bold" lengthAdjust="spacing" textLength="9">5</text><text x="56" y="295.875" fill="#000" font-family="sans-serif" font-size="13" lengthAdjust="spacing" textLength="54">75 Atom</text><polygon fill="#181818" points="386.5 325.928 396.5 329.928 386.5 333.928 390.5 329.928" style="stroke:#181818;stroke-width:1"/><line style="stroke:#181818;stroke-width:1" x1="26" x2="392.5" y1="329.928" y2="329.928"/><text x="33" y="325.185" fill="#000" font-family="sans-serif" font-size="13" font-weight="bold" lengthAdjust="spacing" textLength="9">6</text><text x="46" y="325.185" fill="#000" font-family="sans-serif" font-size="13" lengthAdjust="spacing" textLength="54">20 Atom</text><rect style="stroke:#00000000;stroke-width:1;fill:none" width="176" height="11.777" x="247.5" y="5"/><text x="247.5" y="14.668" fill="#888" font-family="sans-serif" font-size="10" lengthAdjust="spacing" textLength="176">Agoric Systems Operating Company.</text><rect style="stroke:#00000000;stroke-width:1;fill:none" width="29" height="11.777" x="197.25" y="428.416"/><text x="197.25" y="438.084" fill="#888" font-family="sans-serif" font-size="10" lengthAdjust="spacing" textLength="29">v0.0.1</text></g></svg>