<svg xmlns="http://www.w3.org/2000/svg" xmlns:xlink="http://www.w3.org/1999/xlink" style="width:1851px;height:746px;background:#fff" width="1851" height="746" contentStyleType="text/css" preserveAspectRatio="none" version="1.1" viewBox="0 0 1851 746" zoomAndPan="magnify"><g><rect style="stroke:#00000000;stroke-width:1;fill:none" width="176" height="11.777" x="1661.5" y="0"/><text x="1661.5" y="9.668" fill="#888" font-family="sans-serif" font-size="10" lengthAdjust="spacing" textLength="176">Agoric Systems Operating Company.</text><rect style="stroke:#00000000;stroke-width:1;fill:none" width="100" height="26.488" x="868.75" y="17.777"/><text x="873.75" y="36.313" fill="#000" font-family="sans-serif" font-size="14" font-weight="bold" lengthAdjust="spacing" textLength="90">VaultFactory</text><g id="cluster_Vat"><polygon points="944.5 204.766 954.5 194.766 1834.5 194.766 1834.5 700.766 1824.5 710.766 944.5 710.766 944.5 204.766" style="stroke:#181818;stroke-width:1;fill:none"/><line style="stroke:#181818;stroke-width:1;fill:none" x1="1824.5" x2="1834.5" y1="204.766" y2="194.766"/><line style="stroke:#181818;stroke-width:1;fill:none" x1="944.5" x2="1824.5" y1="204.766" y2="204.766"/><line style="stroke:#181818;stroke-width:1;fill:none" x1="1824.5" x2="1824.5" y1="204.766" y2="710.766"/><text x="1373.5" y="221.301" fill="#000" font-family="sans-serif" font-size="14" font-weight="bold" lengthAdjust="spacing" textLength="24">Vat</text></g><g id="cluster_VaultFactory"><polygon points="968.5 252.766 978.5 242.766 1671.5 242.766 1671.5 442.766 1661.5 452.766 968.5 452.766 968.5 252.766" style="stroke:#181818;stroke-width:1;fill:none"/><line style="stroke:#181818;stroke-width:1;fill:none" x1="1661.5" x2="1671.5" y1="252.766" y2="242.766"/><line style="stroke:#181818;stroke-width:1;fill:none" x1="968.5" x2="1661.5" y1="252.766" y2="252.766"/><line style="stroke:#181818;stroke-width:1;fill:none" x1="1661.5" x2="1661.5" y1="252.766" y2="452.766"/><text x="1271" y="269.301" fill="#000" font-family="sans-serif" font-size="14" font-weight="bold" lengthAdjust="spacing" textLength="90">VaultFactory</text></g><g id="cluster_publicAPI"><polygon points="1311.5 300.766 1321.5 290.766 1647.5 290.766 1647.5 418.766 1637.5 428.766 1311.5 428.766 1311.5 300.766" style="stroke:#181818;stroke-width:1;fill:none"/><line style="stroke:#181818;stroke-width:1;fill:none" x1="1637.5" x2="1647.5" y1="300.766" y2="290.766"/><line style="stroke:#181818;stroke-width:1;fill:none" x1="1311.5" x2="1637.5" y1="300.766" y2="300.766"/><line style="stroke:#181818;stroke-width:1;fill:none" x1="1637.5" x2="1637.5" y1="300.766" y2="428.766"/><text x="1441.5" y="317.301" fill="#000" font-family="sans-serif" font-size="14" font-weight="bold" lengthAdjust="spacing" textLength="68">publicAPI</text></g><g id="cluster_creatorFacet"><polygon points="1077.5 300.766 1087.5 290.766 1287.5 290.766 1287.5 418.766 1277.5 428.766 1077.5 428.766 1077.5 300.766" style="stroke:#181818;stroke-width:1;fill:none"/><line style="stroke:#181818;stroke-width:1;fill:none" x1="1277.5" x2="1287.5" y1="300.766" y2="290.766"/><line style="stroke:#181818;stroke-width:1;fill:none" x1="1077.5" x2="1277.5" y1="300.766" y2="300.766"/><line style="stroke:#181818;stroke-width:1;fill:none" x1="1277.5" x2="1277.5" y1="300.766" y2="428.766"/><text x="1135" y="317.301" fill="#000" font-family="sans-serif" font-size="14" font-weight="bold" lengthAdjust="spacing" textLength="87">creatorFacet</text></g><g id="cluster_Vault"><polygon points="976.5 534.766 986.5 524.766 1802.5 524.766 1802.5 668.766 1792.5 678.766 976.5 678.766 976.5 534.766" style="stroke:#181818;stroke-width:1;fill:none"/><line style="stroke:#181818;stroke-width:1;fill:none" x1="1792.5" x2="1802.5" y1="534.766" y2="524.766"/><line style="stroke:#181818;stroke-width:1;fill:none" x1="976.5" x2="1792.5" y1="534.766" y2="534.766"/><line style="stroke:#181818;stroke-width:1;fill:none" x1="1792.5" x2="1792.5" y1="534.766" y2="678.766"/><text x="1366.5" y="551.301" fill="#000" font-family="sans-serif" font-size="14" font-weight="bold" lengthAdjust="spacing" textLength="38">Vault</text></g><g id="elem_AMM"><polygon fill="#F1F1F1" points="984.5 370.766 994.5 360.766 1058.5 360.766 1058.5 397.254 1048.5 407.254 984.5 407.254 984.5 370.766" style="stroke:#181818;stroke-width:.5"/><line style="stroke:#181818;stroke-width:.5" x1="1048.5" x2="1058.5" y1="370.766" y2="360.766"/><line style="stroke:#181818;stroke-width:.5" x1="984.5" x2="1048.5" y1="370.766" y2="370.766"/><line style="stroke:#181818;stroke-width:.5" x1="1048.5" x2="1048.5" y1="370.766" y2="407.254"/><text x="999.5" y="394.301" fill="#000" font-family="sans-serif" font-size="14" lengthAdjust="spacing" textLength="34">AMM</text></g><g id="elem_getCollaterals"><ellipse cx="1523.5" cy="383.766" fill="#F1F1F1" rx="8" ry="8" style="stroke:#181818;stroke-width:.5"/><text x="1476" y="414.301" fill="#000" font-family="sans-serif" font-size="14" lengthAdjust="spacing" textLength="95">getCollaterals</text></g><g id="elem_makeVaultInvitation"><ellipse cx="1622.5" cy="383.766" fill="#F1F1F1" rx="8" ry="8" style="stroke:#181818;stroke-width:.5"/><text x="1554.5" y="414.301" fill="#000" font-family="sans-serif" font-size="14" lengthAdjust="spacing" textLength="136">makeVaultInvitation</text></g><g id="elem_getRunIssuer"><ellipse cx="1380.5" cy="383.766" fill="#F1F1F1" rx="8" ry="8" style="stroke:#181818;stroke-width:.5"/><text x="1335.5" y="414.301" fill="#000" font-family="sans-serif" font-size="14" lengthAdjust="spacing" textLength="90">getRunIssuer</text></g><g id="elem_makeAddTypeInvitation"><ellipse cx="1182.5" cy="383.766" fill="#F1F1F1" rx="8" ry="8" style="stroke:#181818;stroke-width:.5"/><text x="1101.5" y="414.301" fill="#000" font-family="sans-serif" font-size="14" lengthAdjust="spacing" textLength="162">makeAddTypeInvitation</text></g><g id="elem_makeCloseInvitation"><ellipse cx="1077.5" cy="625.766" fill="#F1F1F1" rx="8" ry="8" style="stroke:#181818;stroke-width:.5"/><text x="1008" y="656.301" fill="#000" font-family="sans-serif" font-size="14" lengthAdjust="spacing" textLength="139">makeCloseInvitation</text></g><g id="elem_makeAdjustBalancesInvitation"><ellipse cx="1649.5" cy="625.766" fill="#F1F1F1" rx="8" ry="8" style="stroke:#181818;stroke-width:.5"/><text x="1547.5" y="656.301" fill="#000" font-family="sans-serif" font-size="14" lengthAdjust="spacing" textLength="204">makeAdjustBalancesInvitation</text></g><g id="elem_getCollateralAmount"><ellipse cx="1425.5" cy="625.766" fill="#F1F1F1" rx="8" ry="8" style="stroke:#181818;stroke-width:.5"/><text x="1354" y="656.301" fill="#000" font-family="sans-serif" font-size="14" lengthAdjust="spacing" textLength="143">getCollateralAmount</text></g><g id="elem_getCurrentDebt"><ellipse cx="1250.5" cy="625.766" fill="#F1F1F1" rx="8" ry="8" style="stroke:#181818;stroke-width:.5"/><text x="1197" y="656.301" fill="#000" font-family="sans-serif" font-size="14" lengthAdjust="spacing" textLength="107">getCurrentDebt</text></g><g id="elem_vfc"><ellipse cx="1182.5" cy="64.266" fill="#F1F1F1" rx="8" ry="8" style="stroke:#181818;stroke-width:.5"/><path fill="none" d="M1182.5,72.2656 L1182.5,99.2656 M1169.5,80.2656 L1195.5,80.2656 M1182.5,99.2656 L1169.5,114.2656 M1182.5,99.2656 L1195.5,114.2656" style="stroke:#181818;stroke-width:.5"/><text x="1057.5" y="129.301" fill="#000" font-family="sans-serif" font-size="14" lengthAdjust="spacing" textLength="250">VaultFactoryCreator aka Governance</text></g><g id="elem_Borrower"><ellipse cx="417.5" cy="354.266" fill="#F1F1F1" rx="8" ry="8" style="stroke:#181818;stroke-width:.5"/><path fill="none" d="M417.5,362.2656 L417.5,389.2656 M404.5,370.2656 L430.5,370.2656 M417.5,389.2656 L404.5,404.2656 M417.5,389.2656 L430.5,404.2656" style="stroke:#181818;stroke-width:.5"/><text x="386" y="419.301" fill="#000" font-family="sans-serif" font-size="14" lengthAdjust="spacing" textLength="63">Borrower</text></g><g id="elem_AdjustBalancesInvitation"><polygon fill="#F1F1F1" points="721 370.766 731 360.766 928 360.766 928 397.254 918 407.254 721 407.254 721 370.766" style="stroke:#181818;stroke-width:.5"/><line style="stroke:#181818;stroke-width:.5" x1="918" x2="928" y1="370.766" y2="360.766"/><line style="stroke:#181818;stroke-width:.5" x1="721" x2="918" y1="370.766" y2="370.766"/><line style="stroke:#181818;stroke-width:.5" x1="918" x2="918" y1="370.766" y2="407.254"/><text x="736" y="394.301" fill="#000" font-family="sans-serif" font-size="14" lengthAdjust="spacing" textLength="167">AdjustBalancesInvitation</text></g><g id="elem_CloseVaultInvitation"><polygon fill="#F1F1F1" points="16 370.766 26 360.766 193 360.766 193 397.254 183 407.254 16 407.254 16 370.766" style="stroke:#181818;stroke-width:.5"/><line style="stroke:#181818;stroke-width:.5" x1="183" x2="193" y1="370.766" y2="360.766"/><line style="stroke:#181818;stroke-width:.5" x1="16" x2="183" y1="370.766" y2="370.766"/><line style="stroke:#181818;stroke-width:.5" x1="183" x2="183" y1="370.766" y2="407.254"/><text x="31" y="394.301" fill="#000" font-family="sans-serif" font-size="14" lengthAdjust="spacing" textLength="137">CloseVaultInvitation</text></g><g id="elem_getPayout"><ellipse cx="505.5" cy="64.266" fill="#F1F1F1" rx="8" ry="8" style="stroke:#181818;stroke-width:.5"/><path fill="none" d="M505.5,72.2656 L505.5,99.2656 M492.5,80.2656 L518.5,80.2656 M505.5,99.2656 L492.5,114.2656 M505.5,99.2656 L518.5,114.2656" style="stroke:#181818;stroke-width:.5"/><text x="471.5" y="129.301" fill="#000" font-family="sans-serif" font-size="14" lengthAdjust="spacing" textLength="68">getPayout</text></g><g id="elem_getPayouts"><ellipse cx="329.5" cy="64.266" fill="#F1F1F1" rx="8" ry="8" style="stroke:#181818;stroke-width:.5"/><path fill="none" d="M329.5,72.2656 L329.5,99.2656 M316.5,80.2656 L342.5,80.2656 M329.5,99.2656 L316.5,114.2656 M329.5,99.2656 L342.5,114.2656" style="stroke:#181818;stroke-width:.5"/><text x="292" y="129.301" fill="#000" font-family="sans-serif" font-size="14" lengthAdjust="spacing" textLength="75">getPayouts</text></g><g id="link_CloseVaultInvitation_makeCloseInvitation"><path id="CloseVaultInvitation-backto-makeCloseInvitation" fill="none" d="M182.07,408.2656 C234.51,423.8656 305.44,444.4056 368.5,460.7656 C653.44,534.6756 1007.03,609.9056 1068.26,622.8256" style="stroke:#181818;stroke-width:1"/><polygon fill="#181818" points="177.05 406.776 184.53 413.183 181.841 408.206 186.818 405.517 177.05 406.776" style="stroke:#181818;stroke-width:1"/></g><g id="link_AdjustBalancesInvitation_makeAdjustBalancesInvitation"><path id="AdjustBalancesInvitation-backto-makeAdjustBalancesInvitation" fill="none" d="M860.61,409.6656 C888.66,427.5056 929.25,450.1856 968.5,460.7656 C1010.37,472.0556 1120.26,465.4756 1163.5,468.7656 C1323.58,480.9556 1376.28,442.4856 1522.5,508.7656 C1579.07,534.4056 1627.55,594.9556 1643.75,616.7656" style="stroke:#181818;stroke-width:1"/><polygon fill="#181818" points="856.22 406.846 861.628 415.077 860.426 409.549 865.954 408.348 856.22 406.846" style="stroke:#181818;stroke-width:1"/></g><g id="link_Borrower_makeVaultInvitation"><path id="Borrower-to-makeVaultInvitation" fill="none" d="M449.23,357.4756 C499.43,317.7756 601.93,244.2456 703.5,216.7656 C799.28,190.8456 1521.14,152.2256 1596.5,216.7656 C1641.38,255.1956 1631.74,336.4856 1625.59,369.4356" style="stroke:#181818;stroke-width:1"/><polygon fill="#181818" points="1624.56 374.656 1630.211 366.589 1625.519 369.748 1622.36 365.056 1624.56 374.656" style="stroke:#181818;stroke-width:1"/><text x="1305.5" y="175.334" fill="#000" font-family="sans-serif" font-size="13" lengthAdjust="spacing" textLength="208">open vault and transfer collateral</text></g><g id="link_makeVaultInvitation_Vault"><path id="makeVaultInvitation-to-Vault" fill="none" d="M1631.66,389.1256 C1658.83,402.5956 1739.28,446.3756 1775.5,508.7656 C1777.1138,511.545 1778.6009,514.4214 1779.9708,517.3725 C1780.6558,518.848 1781.3115,520.3422 1781.939,521.8522 C1782.2528,522.6072 1782.5596,523.3662 1782.8595,524.1288 C1782.9344,524.3194 1783.009,524.5103 1783.0831,524.7014" style="stroke:#181818;stroke-width:1"/><polygon fill="#181818" points="1783.083 524.701 1783.558 514.864 1781.275 520.04 1776.099 517.757 1783.083 524.701" style="stroke:#181818;stroke-width:1"/></g><g id="link_getPayout_Borrower"><path id="getPayout-backto-Borrower" fill="none" d="M492.66,136.7956 C475.49,192.9756 445.33,291.6856 428.92,345.3856" style="stroke:#181818;stroke-width:1"/><polygon fill="#181818" points="494.18 131.826 487.732 139.27 492.724 136.609 495.385 141.601 494.18 131.826" style="stroke:#181818;stroke-width:1"/><text x="485.5" y="175.334" fill="#000" font-family="sans-serif" font-size="13" lengthAdjust="spacing" textLength="134">retrieve any proceeds</text></g><g id="link_getPayouts_Borrower"><path id="getPayouts-backto-Borrower" fill="none" d="M331.86,137.1956 C333.19,150.6156 335.26,165.4256 338.5,178.7656 C353.15,239.1056 381.31,305.5856 399.75,345.7456" style="stroke:#181818;stroke-width:1"/><polygon fill="#181818" points="331.37 131.926 328.209 141.253 331.827 136.905 336.175 140.523 331.37 131.926" style="stroke:#181818;stroke-width:1"/><text x="339.5" y="175.334" fill="#000" font-family="sans-serif" font-size="13" lengthAdjust="spacing" textLength="134">retrieve any proceeds</text></g><g id="link_Borrower_AdjustBalancesInvitation"><path id="Borrower-to-AdjustBalancesInvitation" fill="none" d="M449.1,383.7656 C505.56,383.7656 626.2,383.7656 715.57,383.7656" style="stroke:#181818;stroke-width:1"/><polygon fill="#181818" points="720.6 383.766 711.6 379.766 715.6 383.766 711.6 387.766 720.6 383.766" style="stroke:#181818;stroke-width:1"/><text x="498.5" y="362.334" fill="#000" font-family="sans-serif" font-size="13" lengthAdjust="spacing" textLength="169">add or remove collateral or</text><text x="467.5" y="377.644" fill="#000" font-family="sans-serif" font-size="13" lengthAdjust="spacing" textLength="235">increase or decrease the loan balance</text></g><g id="link_CloseVaultInvitation_Borrower"><path id="CloseVaultInvitation-backto-Borrower" fill="none" d="M198.68,383.7656 C262.22,383.7656 342.15,383.7656 385.67,383.7656" style="stroke:#181818;stroke-width:1"/><polygon fill="#181818" points="193.36 383.766 202.36 387.766 198.36 383.766 202.36 379.766 193.36 383.766" style="stroke:#181818;stroke-width:1"/><text x="211.5" y="362.334" fill="#000" font-family="sans-serif" font-size="13" lengthAdjust="spacing" textLength="152">close loan and withdraw</text><text x="214" y="377.644" fill="#000" font-family="sans-serif" font-size="13" lengthAdjust="spacing" textLength="151">any remaining collateral</text></g><g id="link_vfc_makeAddTypeInvitation"><path id="vfc-to-makeAddTypeInvitation" fill="none" d="M1182.5,131.8256 C1182.5,196.6756 1182.5,327.8056 1182.5,369.6256" style="stroke:#181818;stroke-width:1"/><polygon fill="#181818" points="1182.5 374.706 1186.5 365.706 1182.5 369.706 1178.5 365.706 1182.5 374.706" style="stroke:#181818;stroke-width:1"/></g><g id="link_Borrower_getCurrentDebt"><path id="Borrower-to-getCurrentDebt" fill="none" d="M449.22,393.2956 C501.96,407.4456 611.04,436.6256 703.5,460.7656 C772.76,478.8456 788.61,490.8956 859.5,500.7656 C876.73,503.1656 1157.25,500.3956 1172.5,508.7656 C1213.81,531.4456 1237.33,586.4656 1246.28,611.7056" style="stroke:#181818;stroke-width:1"/><polygon fill="#181818" points="1247.97 616.626 1248.821 606.814 1246.342 611.898 1241.257 609.419 1247.97 616.626" style="stroke:#181818;stroke-width:1"/><text x="860.5" y="489.834" fill="#000" font-family="sans-serif" font-size="13" lengthAdjust="spacing" textLength="122">how much do I owe</text></g><g id="link_Borrower_getCollateralAmount"><path id="Borrower-to-getCollateralAmount" fill="none" d="M449.17,395.7756 C501.39,413.3356 609.18,447.0956 703.5,460.7656 C734.74,465.2956 957.93,457.7156 987.5,468.7656 C1008.5,476.6156 1005.49,492.9356 1026.5,500.7656 C1058.06,512.5256 1299.22,494.0256 1329.5,508.7656 C1375.34,531.0756 1407.04,586.7056 1419.55,611.9456" style="stroke:#181818;stroke-width:1"/><polygon fill="#181818" points="1421.8 616.566 1421.466 606.722 1419.616 612.068 1414.27 610.218 1421.8 616.566" style="stroke:#181818;stroke-width:1"/><text x="1040.5" y="482.334" fill="#000" font-family="sans-serif" font-size="13" lengthAdjust="spacing" textLength="97">how much did I</text><text x="1027.5" y="497.644" fill="#000" font-family="sans-serif" font-size="13" lengthAdjust="spacing" textLength="127">deposit as collateral</text></g><rect style="stroke:#00000000;stroke-width:1;fill:none" width="29" height="11.777" x="904.25" y="726.766"/><text x="904.25" y="736.434" fill="#888" font-family="sans-serif" font-size="10" lengthAdjust="spacing" textLength="29">v0.0.1</text></g></svg>